<svg xmlns="http://www.w3.org/2000/svg" xmlns:xlink="http://www.w3.org/1999/xlink" width="500" zoomAndPan="magnify" viewBox="0 0 375 374.999991" height="500" preserveAspectRatio="xMidYMid meet" version="1.2"><defs><clipPath id="1b38351361"><path d="M 0 109 L 375 109 L 375 260 L 0 260 Z M 0 109 "/></clipPath><clipPath id="cdd4cf4214"><path d="M -13.167969 136.554688 L 372.867188 100.15625 L 387.933594 259.945312 L 1.898438 296.34375 Z M -13.167969 136.554688 "/></clipPath><clipPath id="5827b38453"><path d="M 373.101562 100.132812 L -12.9375 136.53125 L 2.128906 296.324219 L 388.167969 259.925781 Z M 373.101562 100.132812 "/></clipPath></defs><g id="8eacb4097c"><g clip-rule="nonzero" clip-path="url(#1b38351361)"><g clip-rule="nonzero" clip-path="url(#cdd4cf4214)"><g clip-rule="nonzero" clip-path="url(#5827b38453)"><path style=" stroke:none;fill-rule:nonzero;fill:#ff9f29;fill-opacity:1;" d="M 1.191406 160.550781 C -3.109375 157.941406 -7.183594 154.976562 -11.460938 152.351562 L -11.285156 154.238281 C -10.480469 154.761719 -9.683594 155.285156 -8.882812 155.808594 C 4.167969 164.363281 17.742188 170.917969 32.597656 175.511719 C 40.140625 177.84375 47.933594 179.804688 55.535156 181.914062 C 62.078125 183.730469 68.605469 185.917969 75.355469 186.515625 C 80.203125 186.949219 85.964844 185.960938 89.21875 181.914062 C 93.625 176.433594 87.75 171.640625 89.535156 166.941406 C 91.3125 162.265625 102.085938 162.816406 106.550781 163.097656 C 111.789062 163.425781 117.164062 164.316406 121.859375 166.980469 C 130.378906 171.816406 139.175781 175.429688 148.636719 172.386719 C 153.492188 170.824219 157.289062 165.714844 161.253906 162.503906 C 165.359375 159.179688 170.242188 156.757812 175.175781 155.214844 C 180.253906 153.628906 185.761719 152.871094 191.195312 153.191406 C 200.808594 153.757812 210.324219 156.25 219.796875 158.1875 C 230.695312 160.414062 241.746094 162.699219 252.730469 163.964844 C 262.226562 165.058594 272.066406 165.324219 281.125 162.769531 C 288.878906 160.585938 295.003906 155.933594 301.097656 150.6875 C 306.046875 146.425781 311.8125 143.90625 318.191406 142.832031 C 324.574219 141.757812 331.292969 141.832031 337.90625 142.101562 C 350.980469 142.632812 364.132812 143.617188 377.257812 144.214844 L 377.113281 142.664062 C 375.476562 142.597656 373.839844 142.527344 372.207031 142.449219 C 364.460938 142.089844 356.691406 141.648438 348.941406 141.246094 C 341.96875 140.882812 334.921875 140.433594 328.023438 140.621094 C 321.71875 140.796875 315.457031 141.53125 309.535156 143.640625 C 303.777344 145.6875 299.390625 150.339844 294.675781 154.183594 C 287.425781 160.089844 277.765625 162.511719 268.78125 162.960938 C 258.140625 163.5 247.222656 161.664062 236.574219 159.78125 C 226.195312 157.949219 215.832031 155.703125 205.480469 153.703125 C 196.988281 152.0625 188.863281 151.25 180.410156 152.855469 C 171.210938 154.601562 162.5625 159.292969 155.433594 165.378906 C 151.167969 169.019531 146.808594 171.785156 141.109375 171.753906 C 136.058594 171.726562 131.277344 170.589844 126.707031 168.117188 C 122.929688 166.074219 119.578125 164.128906 115.449219 163.09375 C 109.625 161.636719 103.183594 161.589844 97.304688 162.261719 C 94.390625 162.597656 86.175781 163.613281 87.753906 168.664062 C 89.402344 173.933594 91.515625 180.488281 85.117188 183.386719 C 79.652344 185.863281 74.050781 185.105469 68.234375 183.707031 C 52.550781 179.929688 36.277344 176.1875 21.050781 170.285156 C 14.15625 167.613281 7.515625 164.390625 1.191406 160.550781 Z M 18.742188 165.445312 C 34.070312 172.109375 50.761719 175.335938 67.015625 178.410156 C 72.558594 179.460938 79 180.601562 84.28125 177.945312 C 90.296875 174.914062 84.8125 168.746094 83.433594 164.855469 C 81.644531 159.828125 91.660156 158.730469 94.316406 158.445312 C 101.0625 157.71875 108.320312 157.863281 115.078125 159.109375 C 123.320312 160.628906 130.9375 166.171875 139.253906 166.019531 C 145.234375 165.910156 150.945312 162.851562 156.308594 160.121094 C 165.605469 155.382812 175.335938 150.433594 185.550781 148.5 C 193.25 147.042969 200.59375 147.640625 208.347656 149.257812 C 217.589844 151.1875 226.867188 153.144531 236.152344 154.652344 C 246.792969 156.382812 257.777344 157.84375 268.40625 157.300781 C 276.867188 156.867188 286.152344 154.898438 292.980469 149.308594 C 297.59375 145.535156 301.628906 141.414062 307.050781 139.3125 C 312.898438 137.046875 319.511719 136.304688 325.960938 136.015625 C 333.0625 135.699219 340.320312 136.003906 347.507812 136.230469 C 355.457031 136.476562 363.410156 136.777344 371.359375 137.050781 C 373.105469 137.109375 374.851562 137.167969 376.597656 137.21875 L 376.730469 138.640625 C 363.183594 138.15625 349.605469 137.445312 336.105469 137.183594 C 329.300781 137.054688 322.386719 137.109375 315.824219 138.285156 C 309.726562 139.375 303.648438 141.648438 298.90625 146.011719 C 293.488281 150.996094 288.007812 154.859375 280.988281 156.929688 C 271.863281 159.625 261.550781 159.0625 252.097656 158.15625 C 241.609375 157.152344 231.046875 155.292969 220.675781 153.210938 C 212.339844 151.535156 203.957031 149.21875 195.507812 148.703125 C 190.296875 148.386719 185.082031 149.285156 180.082031 150.671875 C 174.4375 152.234375 168.921875 154.726562 163.65625 157.417969 C 157.761719 160.433594 151.824219 164.574219 145.613281 166.347656 C 136.625 168.910156 130.898438 165.726562 122.539062 162.371094 C 116.839844 160.085938 110.679688 159.40625 104.664062 159.152344 C 99.644531 158.945312 87.4375 158.25 85.234375 163.128906 C 83.421875 167.148438 90.898438 171.582031 88.046875 176.480469 C 85.648438 180.601562 79.015625 181.253906 74.671875 180.878906 C 67.578125 180.265625 60.546875 178.390625 53.539062 176.828125 C 45.605469 175.054688 37.632812 173.171875 29.953125 170.710938 C 22.628906 168.363281 15.402344 165.453125 8.585938 161.722656 C 2.304688 158.285156 -3.410156 153.605469 -9.480469 150.269531 C -10.226562 149.859375 -10.988281 149.472656 -11.765625 149.105469 L -11.875 147.953125 C -7.605469 149.847656 -3.722656 152.433594 0.242188 155.136719 C 6.101562 159.128906 12.238281 162.617188 18.742188 165.445312 Z M 68.941406 189.214844 C 74.742188 190.609375 80.34375 191.378906 85.78125 188.90625 C 91.359375 186.367188 91.953125 178.15625 91.386719 172.835938 C 90.867188 167.90625 96.5 166.449219 100.238281 166.09375 C 105.382812 165.601562 110.894531 165.664062 115.894531 167.402344 C 120.117188 168.871094 123.644531 171.777344 127.691406 173.660156 C 133.464844 176.34375 139.792969 178.007812 145.800781 177.949219 C 151.28125 177.894531 155.34375 176.109375 158.378906 171.289062 C 160.085938 168.578125 161.320312 165.519531 163.832031 163.3125 C 167.375 160.195312 172.125 158.449219 176.496094 157.476562 C 185.4375 155.480469 194.644531 156.757812 203.835938 158.539062 C 215.097656 160.722656 226.382812 163.300781 237.640625 165.550781 C 247.925781 167.605469 258.515625 169.648438 268.820312 169.101562 C 278.101562 168.605469 287.675781 165.488281 295.25 159.707031 C 300.519531 155.6875 305.433594 150.421875 311.707031 148.167969 C 317.546875 146.070312 323.710938 145.382812 329.929688 145.328125 C 336.621094 145.269531 343.453125 145.871094 350.210938 146.367188 C 357.785156 146.925781 365.378906 147.476562 372.964844 147.914062 C 374.515625 148.003906 376.074219 148.082031 377.628906 148.152344 L 377.789062 149.84375 C 365.007812 149.195312 352.203125 147.972656 339.480469 147.164062 C 333.042969 146.753906 326.5 146.550781 320.277344 147.558594 C 313.582031 148.644531 307.722656 151.53125 302.429688 155.921875 C 295.796875 161.425781 288.84375 166.625 280.640625 169.078125 C 271.984375 171.667969 262.648438 171.460938 253.550781 170.277344 C 242.539062 168.839844 231.492188 166.195312 220.539062 163.8125 C 209.882812 161.496094 199.140625 158.621094 188.203125 158.015625 C 182.664062 157.707031 177.03125 158.238281 172.109375 160.148438 C 168.117188 161.695312 164.78125 164.089844 162.789062 168.246094 C 160.847656 172.292969 158.84375 177.429688 154.355469 178.886719 C 144.167969 182.1875 130.824219 178.023438 121.964844 172.265625 C 117.753906 169.53125 113.308594 167.796875 108.320312 167.242188 C 104.230469 166.789062 95.019531 166.375 93.363281 171.015625 C 91.542969 176.132812 93.851562 182.390625 89.917969 187.523438 C 86.726562 191.6875 80.875 192.585938 76.039062 192.15625 C 69.3125 191.558594 62.796875 189.484375 56.265625 187.53125 C 49.003906 185.359375 41.796875 182.949219 34.609375 180.578125 C 19.621094 175.632812 5.25 169.710938 -8.164062 161.421875 C -9.027344 160.886719 -9.894531 160.347656 -10.757812 159.804688 L -10.960938 157.65625 C 0.015625 164.40625 10.96875 170.660156 23.253906 175.167969 C 38.152344 180.636719 53.671875 185.539062 68.941406 189.214844 Z M 86.445312 194.421875 C 91.75 191.914062 92.726562 182.96875 93.746094 177.691406 C 94.664062 172.960938 98.316406 170.648438 102.84375 170.238281 C 107.429688 169.820312 112.273438 170.160156 116.535156 172.304688 C 128.097656 178.121094 139.335938 184.410156 152.101562 184.421875 C 156.578125 184.425781 162.925781 183.097656 164.140625 177.683594 C 165.792969 170.320312 166.503906 164.824219 174.78125 162.582031 C 184.09375 160.054688 194.554688 162.050781 204.363281 163.984375 C 216.0625 166.289062 227.75 169.210938 239.410156 171.785156 C 249.085938 173.921875 259.066406 176.082031 268.785156 175.527344 C 278.007812 175 287.007812 171.324219 294.65625 165.746094 C 300.652344 161.375 306.382812 155.671875 313.265625 153.097656 C 319.078125 150.925781 325.21875 150.238281 331.457031 150.285156 C 337.960938 150.332031 344.609375 151.089844 351.171875 151.695312 C 358.636719 152.382812 366.132812 153.011719 373.621094 153.445312 C 375.128906 153.535156 376.636719 153.609375 378.148438 153.675781 L 378.320312 155.472656 C 365.726562 154.816406 353.136719 153.570312 340.621094 152.511719 C 334.300781 151.976562 328.003906 151.746094 321.796875 152.664062 C 314.574219 153.726562 308.183594 157.394531 302.464844 161.84375 C 295.453125 167.296875 288.21875 172.96875 279.859375 175.660156 C 271.785156 178.261719 263.09375 178.121094 254.578125 176.890625 C 243.972656 175.359375 233.359375 172.519531 222.820312 170.03125 C 211.175781 167.277344 199.351562 164.109375 187.585938 163.414062 C 182.628906 163.117188 176.769531 163.101562 172.347656 165.695312 C 169.195312 167.542969 167.976562 171.113281 167.722656 174.578125 C 167.398438 178.921875 166.484375 183.988281 161.554688 185.640625 C 149.890625 189.546875 134.179688 183.304688 123.894531 178.117188 C 119.269531 175.78125 114.902344 172.871094 109.875 171.898438 C 105.605469 171.070312 98.417969 171.019531 96.195312 175.6875 C 94.996094 178.210938 94.527344 181.28125 93.953125 184.3125 C 94.078125 183.921875 94.214844 183.542969 94.367188 183.183594 C 96.207031 178.84375 99.902344 175.339844 104.855469 174.992188 C 109.488281 174.667969 113.316406 175.871094 117.628906 177.855469 C 130.757812 183.886719 144.71875 190.792969 158.992188 190.992188 C 163.441406 191.054688 170.8125 190.378906 171.453125 184.347656 C 172.175781 177.519531 169.496094 171.269531 177.007812 168.335938 C 185.789062 164.914062 197.8125 168.027344 207.242188 170.023438 C 218.71875 172.449219 230.160156 175.539062 241.570312 178.289062 C 250.5 180.441406 259.730469 182.628906 268.691406 182.054688 C 277.722656 181.480469 285.933594 177.402344 293.378906 172.105469 C 299.894531 167.472656 306.289062 161.53125 313.734375 158.667969 C 319.695312 156.375 325.910156 155.550781 332.320312 155.660156 C 338.730469 155.769531 345.304688 156.625 351.769531 157.242188 C 359.25 157.949219 366.800781 158.542969 374.308594 158.957031 C 375.757812 159.035156 377.210938 159.109375 378.667969 159.171875 L 378.851562 161.125 C 366.242188 160.507812 353.636719 159.363281 341.09375 158.242188 C 334.757812 157.675781 328.476562 157.402344 322.273438 158.371094 C 314.621094 159.570312 307.699219 163.542969 301.519531 168.175781 C 294.425781 173.484375 287.222656 179.492188 278.96875 182.320312 C 271.542969 184.867188 263.503906 184.820312 255.644531 183.601562 C 245.742188 182.0625 235.824219 179.140625 225.988281 176.621094 C 214.304688 173.628906 202.410156 170.265625 190.589844 169.476562 C 186.074219 169.175781 179.949219 168.859375 176.34375 171.882812 C 173.722656 174.082031 174.226562 178.183594 174.617188 181.273438 C 175.269531 186.441406 174.144531 190.566406 169.03125 192.441406 C 156.886719 196.894531 139.34375 189.503906 127.414062 184.238281 C 122.058594 181.875 116.628906 178.722656 110.898438 177.308594 C 106.027344 176.101562 100.320312 176.773438 97.285156 181.132812 C 95.414062 183.820312 95.035156 187.164062 94.53125 190.449219 C 94.691406 189.855469 94.867188 189.28125 95.074219 188.742188 C 96.820312 184.226562 100.441406 180.921875 105.679688 180.417969 C 110.730469 179.933594 115.496094 181.808594 120.050781 183.660156 C 134.375 189.488281 149.824219 197.441406 165.429688 197.484375 C 169.902344 197.5 178.253906 197.023438 179.0625 191.066406 C 179.792969 185.707031 174.6875 177.457031 181.816406 174.617188 C 190.65625 171.089844 202.449219 174.433594 211.359375 176.453125 C 222.21875 178.914062 233.03125 182.066406 243.816406 184.875 C 251.878906 186.972656 260.199219 189.042969 268.589844 188.503906 C 277.273438 187.941406 284.949219 183.609375 291.789062 178.605469 C 298.546875 173.660156 305.382812 167.707031 313.15625 164.703125 C 319.304688 162.328125 325.6875 161.386719 332.296875 161.464844 C 338.773438 161.542969 345.425781 162.386719 351.960938 162.957031 C 359.558594 163.621094 367.230469 164.152344 374.855469 164.523438 C 376.296875 164.59375 377.742188 164.65625 379.191406 164.714844 L 379.386719 166.8125 C 366.558594 166.273438 353.730469 165.269531 340.960938 164.230469 C 334.496094 163.707031 328.101562 163.472656 321.78125 164.511719 C 313.808594 165.820312 306.511719 169.960938 300.023438 174.734375 C 293.1875 179.757812 286.230469 186.132812 278.171875 188.867188 C 271.148438 191.25 263.910156 191.378906 256.597656 190.207031 C 247.554688 188.757812 238.496094 185.855469 229.527344 183.375 C 218.300781 180.273438 206.851562 176.859375 195.464844 176.011719 C 191.464844 175.710938 185.136719 175.261719 182.390625 178.496094 C 180.320312 180.941406 181.59375 185.089844 182.242188 188.109375 C 183.40625 193.511719 180.996094 197.660156 175.5625 199.082031 C 161.375 202.785156 144.703125 195.714844 131.8125 190.511719 C 125.429688 187.933594 119.007812 184.65625 112.25 183.0625 C 107.230469 181.875 101.136719 182.007812 98.070312 186.753906 C 96.355469 189.414062 96.007812 192.691406 95.527344 195.90625 C 95.664062 195.371094 95.808594 194.84375 95.976562 194.335938 C 97.566406 189.503906 101.855469 186.386719 106.875 186.015625 C 112.597656 185.589844 118.140625 187.65625 123.367188 189.617188 C 138.308594 195.226562 154.285156 203.671875 170.382812 203.726562 C 175.292969 203.742188 183.726562 203.203125 185.734375 197.621094 C 187.488281 192.746094 181.839844 184.109375 188.058594 181.207031 C 196.066406 177.464844 207.859375 181.09375 216.050781 183.074219 C 226.019531 185.492188 235.945312 188.617188 245.839844 191.34375 C 253.285156 193.390625 260.796875 195.09375 268.519531 194.683594 C 276.664062 194.25 283.9375 189.882812 290.265625 185.070312 C 296.976562 179.964844 304.03125 174.015625 311.96875 170.992188 C 318.292969 168.585938 324.921875 167.417969 331.730469 167.5 C 338.425781 167.582031 345.179688 168.292969 351.878906 168.789062 C 359.664062 169.367188 367.523438 169.8125 375.332031 170.121094 C 376.792969 170.179688 378.253906 170.230469 379.714844 170.277344 L 379.925781 172.511719 C 366.761719 172.074219 353.589844 171.246094 340.480469 170.367188 C 333.820312 169.917969 327.238281 169.761719 320.746094 170.878906 C 312.589844 172.28125 305.050781 176.457031 298.410156 181.34375 C 291.898438 186.132812 285.378906 192.472656 277.6875 195.101562 C 271.070312 197.359375 264.183594 197.589844 257.296875 196.503906 C 249.140625 195.222656 240.984375 192.472656 232.917969 190.082031 C 222.511719 187.003906 211.863281 183.609375 201.3125 182.792969 C 197.894531 182.527344 191.53125 182.019531 189.390625 185.316406 C 187.703125 187.917969 189.078125 191.816406 189.382812 194.855469 C 190.007812 201.058594 184.949219 204.003906 179.914062 205.347656 C 165.992188 209.0625 149.625 201.980469 136.375 196.8125 C 129.226562 194.027344 122.003906 190.628906 114.476562 188.964844 C 109.398438 187.84375 102.398438 187.320312 99.1875 192.433594 C 97.644531 194.894531 97.175781 197.816406 96.699219 200.71875 C 96.78125 200.457031 96.863281 200.195312 96.953125 199.941406 C 98.738281 194.898438 103.382812 191.96875 108.605469 191.703125 C 114.964844 191.375 121.167969 193.539062 127.035156 195.636719 C 141.609375 200.851562 157.117188 209.503906 172.773438 209.542969 C 178.605469 209.554688 186.175781 208.652344 190.230469 203.800781 C 193.960938 199.335938 189.191406 190.890625 194.753906 187.898438 C 201.90625 184.054688 213.359375 187.800781 220.667969 189.6875 C 229.589844 191.992188 238.488281 195.019531 247.347656 197.503906 C 254.339844 199.464844 261.347656 200.824219 268.597656 200.4375 C 276.324219 200.023438 283.269531 196.023438 289.195312 191.320312 C 295.816406 186.0625 302.804688 180.5 310.53125 177.386719 C 316.929688 174.8125 323.890625 173.722656 330.882812 173.652344 C 337.734375 173.582031 344.769531 174.261719 351.6875 174.664062 C 359.703125 175.132812 367.773438 175.476562 375.808594 175.722656 C 377.285156 175.765625 378.761719 175.804688 380.238281 175.839844 L 380.460938 178.203125 C 366.925781 177.859375 353.375 177.230469 339.882812 176.550781 C 333.003906 176.199219 326.199219 176.132812 319.503906 177.328125 C 311.335938 178.789062 303.710938 182.863281 297.105469 187.820312 C 291.023438 192.386719 285.0625 198.304688 277.894531 201.042969 C 271.328125 203.546875 264.648438 203.585938 257.753906 202.410156 C 250.320312 201.140625 242.964844 198.8125 235.664062 196.535156 C 226.3125 193.617188 216.753906 190.375 207.25 189.605469 C 204.042969 189.34375 198.253906 188.945312 196.265625 192.117188 C 194.703125 194.605469 195.351562 198.492188 194.835938 201.292969 C 193.832031 206.726562 186.378906 210.175781 181.351562 211.292969 C 167.574219 214.355469 153.292969 208.070312 140.375 203.019531 C 132.742188 200.035156 125.066406 196.761719 117.136719 194.945312 C 111.855469 193.730469 104.058594 192.839844 100.46875 198.140625 C 98.902344 200.460938 98.292969 203.199219 97.726562 205.949219 C 97.78125 205.8125 97.832031 205.671875 97.886719 205.539062 C 99.980469 200.277344 105.113281 197.601562 110.574219 197.429688 C 117.4375 197.210938 124.15625 199.378906 130.492188 201.621094 C 144.371094 206.53125 159.148438 215.320312 173.871094 215.746094 C 180.65625 215.945312 186.488281 213.996094 191.699219 209.535156 C 194.289062 207.3125 195.914062 204.84375 196.957031 201.566406 C 197.824219 198.839844 198.257812 195.957031 200.941406 194.484375 C 207.574219 190.847656 217.808594 194.242188 224.582031 196.089844 C 232.449219 198.234375 240.316406 200.855469 248.164062 203.253906 C 255.210938 205.410156 262.1875 207.605469 269.511719 207.378906 C 277.125 207.148438 283.417969 201.828125 288.980469 197.179688 C 295.15625 192.015625 301.8125 186.714844 309.195312 183.738281 C 315.734375 181.105469 322.871094 179.976562 330.019531 179.808594 C 337.113281 179.644531 344.394531 180.210938 351.5625 180.515625 C 359.800781 180.867188 368.085938 181.113281 376.339844 181.296875 C 377.8125 181.328125 379.289062 181.359375 380.761719 181.386719 L 380.996094 183.871094 C 367.128906 183.59375 353.246094 183.15625 339.410156 182.679688 C 332.34375 182.4375 325.277344 182.449219 318.398438 183.726562 C 310.410156 185.207031 302.902344 189.019531 296.535156 193.996094 C 290.753906 198.515625 285.554688 205.621094 278.929688 208.714844 C 272.40625 211.761719 265.660156 211.496094 258.765625 209.710938 C 251.597656 207.855469 244.472656 204.820312 237.273438 202.519531 C 229.066406 199.898438 220.730469 196.90625 212.398438 196.226562 C 209.171875 195.960938 204.234375 195.792969 201.949219 198.671875 C 200 201.128906 199.25 204.671875 197.398438 207.191406 C 193.882812 211.976562 188.746094 216.644531 182.710938 218.054688 C 169.234375 221.210938 155.609375 214.152344 143.082031 209.003906 C 135.46875 205.875 127.753906 202.707031 119.789062 200.921875 C 114.191406 199.664062 105.8125 198.472656 101.734375 203.847656 C 100.164062 205.914062 99.394531 208.363281 98.75 210.871094 C 101.195312 205.667969 107.0625 203.167969 112.460938 203.144531 C 119.535156 203.113281 126.472656 205.074219 133.167969 207.46875 C 146.863281 212.375 160.839844 221.933594 175.386719 222.667969 C 182.257812 223.019531 188.171875 221.050781 192.933594 216.03125 C 197.113281 211.617188 199.890625 203.648438 205.652344 200.757812 C 212.003906 197.574219 220.769531 200.273438 227.160156 202.078125 C 234.695312 204.207031 241.972656 207.152344 249.222656 210.203125 C 256.171875 213.128906 263.21875 216.027344 270.765625 215.984375 C 278.820312 215.9375 284.835938 209.363281 289.742188 203.644531 C 294.914062 197.613281 301.121094 192.796875 308.308594 189.902344 C 314.917969 187.242188 322.175781 186.113281 329.40625 185.863281 C 336.738281 185.605469 344.257812 186.054688 351.667969 186.269531 C 360.089844 186.511719 368.550781 186.675781 376.992188 186.820312 C 378.421875 186.84375 379.851562 186.867188 381.28125 186.890625 L 381.53125 189.546875 C 367.457031 189.074219 353.347656 188.9375 339.296875 188.660156 C 332.054688 188.515625 324.800781 188.609375 317.75 189.929688 C 310.28125 191.332031 302.34375 194.664062 297.074219 199.875 C 291.628906 205.257812 287.371094 214.398438 280.253906 218.015625 C 273.757812 221.320312 266.949219 220.742188 260.128906 218.507812 C 252.714844 216.085938 245.472656 212.132812 238.203125 208.949219 C 231 205.796875 223.660156 203.1875 215.898438 202.4375 C 212.449219 202.105469 208.257812 202.4375 205.394531 204.757812 C 202.421875 207.171875 200.449219 210.226562 198.5625 213.46875 C 195.464844 218.800781 190.683594 224.089844 184.457031 225.480469 C 170.488281 228.601562 156.601562 220.566406 144.117188 214.800781 C 136.976562 211.503906 129.605469 208.519531 121.972656 206.816406 C 116.070312 205.5 107.285156 204.226562 102.789062 209.515625 C 101.394531 211.164062 100.507812 213.191406 99.859375 215.28125 C 102.828125 210.683594 108.804688 208.769531 113.949219 208.789062 C 120.988281 208.8125 127.824219 210.640625 134.5 213.089844 C 148.824219 218.339844 162.144531 228.757812 177.140625 229.996094 C 183.960938 230.5625 190.109375 228.589844 194.597656 223.285156 C 198.921875 218.175781 200.777344 208.847656 207.90625 206.507812 C 214.703125 204.273438 221.578125 205.570312 228.238281 207.960938 C 235.898438 210.714844 243.28125 214.796875 250.628906 218.515625 C 257.304688 221.890625 264.542969 225.515625 272.203125 225.523438 C 280.632812 225.535156 286.519531 218.410156 290.859375 212.128906 C 295.582031 205.292969 300.292969 198.769531 308.21875 195.734375 C 314.960938 193.152344 322.09375 192.015625 329.300781 191.703125 C 336.832031 191.375 344.542969 191.703125 352.164062 191.859375 C 360.679688 192.03125 369.1875 192.625 377.644531 193.476562 C 379.003906 193.613281 380.464844 193.695312 381.929688 193.777344 L 382.664062 201.574219 C 370.789062 200.527344 353.355469 195.054688 339.765625 194.507812 C 332.472656 194.214844 325.070312 194.472656 317.914062 195.757812 C 309.78125 197.222656 303.023438 201.214844 298.167969 207.738281 C 293.292969 214.277344 289.144531 224.265625 281.722656 228.117188 C 275.3125 231.449219 268.375 230.582031 261.664062 228.078125 C 254.097656 225.257812 246.839844 220.742188 239.566406 216.859375 C 232.414062 213.039062 225.148438 209.296875 217.195312 208.332031 C 213.726562 207.910156 209.394531 208.378906 206.550781 210.746094 C 203.480469 213.308594 201.945312 217.203125 200.230469 220.714844 C 197.464844 226.367188 192.738281 231.867188 186.371094 233.199219 C 171.972656 236.207031 157.753906 227.453125 145.167969 221.089844 C 138.101562 217.515625 130.921875 214.3125 123.21875 212.554688 C 116.957031 211.121094 108.28125 210.136719 103.4375 215.117188 C 102.015625 216.578125 101.210938 218.480469 100.640625 220.476562 C 103.617188 216.015625 109.652344 214.285156 114.707031 214.308594 C 121.863281 214.34375 128.71875 216.160156 135.382812 218.875 C 149.613281 224.667969 163.34375 236.214844 178.941406 237.414062 C 185.914062 237.945312 192.039062 236.273438 196.472656 230.914062 C 200.761719 225.726562 202.078125 215.441406 209.007812 212.75 C 215.886719 210.078125 222.941406 212.183594 229.574219 215.15625 C 237.316406 218.628906 244.753906 223.367188 252.226562 227.554688 C 258.777344 231.226562 265.972656 235.070312 273.679688 235.273438 C 282.207031 235.496094 288.105469 228.316406 292.167969 221.855469 C 296.621094 214.773438 301.265625 205.941406 309.066406 202.125 C 315.585938 198.933594 322.714844 197.8125 329.910156 197.796875 C 337.503906 197.777344 345.1875 199.003906 352.746094 200.453125 C 361.183594 202.070312 369.574219 204.164062 377.933594 206.265625 C 379.570312 206.679688 381.40625 207.007812 383.210938 207.34375 L 384.242188 218.300781 C 372.320312 215.960938 354.632812 206.722656 340.460938 203.820312 C 333.265625 202.347656 325.96875 201.769531 318.8125 203.179688 C 310.472656 204.820312 304.039062 210.496094 299.476562 217.460938 C 294.980469 224.328125 290.800781 234.554688 283.1875 238.199219 C 276.738281 241.285156 269.804688 240.273438 263.203125 237.6875 C 255.582031 234.703125 248.375 229.925781 241.183594 225.628906 C 234.175781 221.441406 226.785156 216.597656 218.53125 215.382812 C 215.007812 214.863281 210.777344 215.332031 208.070312 217.855469 C 205.15625 220.574219 203.8125 225.039062 202.167969 228.492188 C 199.453125 234.191406 194.855469 239.441406 188.238281 240.832031 C 173.640625 243.898438 158.726562 234.378906 146.449219 227.773438 C 139.207031 223.875 131.855469 220.207031 123.894531 218.238281 C 117.816406 216.734375 108.769531 215.589844 104.128906 220.683594 C 102.84375 222.097656 102.085938 223.859375 101.539062 225.714844 C 104.574219 221.457031 110.414062 219.753906 115.394531 219.828125 C 122.726562 219.933594 129.75 222.078125 136.5 225.058594 C 150.820312 231.390625 164.691406 243.265625 180.613281 244.597656 C 187.519531 245.175781 193.796875 243.722656 198.335938 238.527344 C 202.765625 233.457031 203.824219 222.820312 210.5625 220.011719 C 217.488281 217.128906 224.667969 219.925781 231.214844 223.273438 C 238.917969 227.214844 246.3125 232.316406 253.835938 236.683594 C 260.292969 240.429688 267.394531 244.160156 275.046875 244.496094 C 283.464844 244.863281 289.480469 238.421875 293.539062 232 C 298.03125 224.894531 302.550781 215.488281 310.132812 211.25 C 316.53125 207.671875 323.539062 206.640625 330.71875 207.449219 C 338.355469 208.308594 345.855469 211.011719 353.21875 213.761719 C 361.53125 216.867188 369.757812 220.394531 378.007812 223.625 C 380.144531 224.460938 382.640625 225.160156 384.957031 225.886719 L 386.175781 238.78125 C 374.226562 236.066406 355.914062 222.65625 341.132812 217.003906 C 334.210938 214.359375 327.09375 212.667969 319.832031 213.734375 C 311.578125 214.945312 305.328125 221.25 300.886719 228.0625 C 296.523438 234.75 292.164062 244.339844 284.496094 247.429688 C 277.988281 250.050781 271.09375 249.074219 264.582031 246.609375 C 257.003906 243.738281 249.886719 239.03125 242.863281 234.628906 C 235.851562 230.230469 228.527344 224.929688 220.222656 223.347656 C 216.757812 222.6875 212.53125 223.074219 209.914062 225.683594 C 207.105469 228.484375 205.816406 232.851562 204.148438 236.363281 C 201.417969 242.101562 196.253906 246.808594 189.839844 248.007812 C 174.980469 250.785156 160.246094 241.5625 147.832031 234.628906 C 140.425781 230.492188 132.957031 226.488281 124.800781 224.25 C 118.730469 222.585938 109.59375 221.210938 104.929688 226.390625 C 103.757812 227.691406 103.03125 229.285156 102.503906 230.972656 C 105.625 226.914062 111.359375 225.414062 116.226562 225.582031 C 123.746094 225.839844 130.945312 228.25 137.75 231.476562 C 151.832031 238.152344 165.992188 249.960938 181.960938 251.234375 C 188.777344 251.777344 195.164062 250.539062 199.96875 245.726562 C 204.683594 241.003906 205.855469 231.0625 212.367188 227.835938 C 218.941406 224.578125 227.226562 228.601562 232.980469 231.769531 C 240.511719 235.910156 247.800781 241.046875 255.300781 245.257812 C 261.84375 248.933594 268.625 251.941406 276.15625 252.460938 C 284.171875 253.019531 290.535156 247.882812 294.847656 241.734375 C 299.449219 235.175781 304.015625 225.976562 311.304688 222.054688 C 317.730469 218.597656 324.601562 218.171875 331.558594 219.910156 C 339.238281 221.832031 346.492188 225.929688 353.625 229.839844 C 361.730469 234.285156 369.765625 239.039062 377.980469 243.140625 C 380.722656 244.511719 384.113281 245.632812 386.933594 246.824219 L 388.152344 259.773438 C 375.828125 257.8125 356.964844 240.640625 341.789062 232.222656 C 335.226562 228.585938 328.328125 225.683594 320.910156 226.019531 C 313.015625 226.378906 306.796875 232.332031 302.273438 238.535156 C 297.851562 244.605469 293.132812 252.78125 285.5 254.980469 C 278.855469 256.894531 272.09375 256.214844 265.625 254.101562 C 258.191406 251.671875 251.203125 247.410156 244.421875 243.222656 C 237.4375 238.910156 230.246094 233.515625 222.058594 231.695312 C 218.664062 230.9375 214.445312 231.101562 211.859375 233.753906 C 209.101562 236.582031 207.855469 240.632812 205.945312 243.886719 C 202.617188 249.539062 197.40625 253.054688 190.949219 254.347656 C 176.445312 257.257812 161.722656 248.523438 149.1875 241.441406 C 141.648438 237.179688 134.089844 232.957031 125.824219 230.476562 C 119.78125 228.660156 110.523438 226.992188 105.78125 232.183594 C 103.507812 234.671875 102.90625 238.261719 102.171875 241.519531 C 101.527344 244.390625 100.460938 247.292969 98.460938 249.492188 C 94.765625 253.554688 88.808594 254.613281 83.589844 254.363281 C 76.964844 254.050781 70.4375 252.480469 63.933594 250.953125 C 56.664062 249.25 49.445312 247.207031 42.507812 244.609375 C 27.636719 239.046875 13.835938 230.6875 -0.164062 223.128906 C -1.792969 222.25 -3.421875 221.351562 -5.042969 220.441406 L -5.402344 216.605469 C 7.003906 223.691406 19.738281 230.515625 32.65625 236.539062 C 46.773438 243.117188 61.550781 247.296875 76.777344 250.324219 C 82.414062 251.445312 87.886719 251.90625 93.109375 249.601562 C 95.890625 248.375 97.335938 245.921875 98.308594 243.117188 C 98.117188 243.371094 97.917969 243.621094 97.707031 243.863281 C 94.09375 247.925781 88.070312 249.011719 82.910156 248.757812 C 76.25 248.425781 69.722656 246.738281 63.222656 245.050781 C 55.9375 243.160156 48.71875 240.894531 41.761719 238.144531 C 27.242188 232.402344 12.957031 224.9375 -0.835938 217.496094 C -2.414062 216.640625 -3.992188 215.769531 -5.566406 214.886719 L -5.910156 211.207031 C 19.820312 225.820312 47.058594 238.5625 76.0625 244.746094 C 81.71875 245.953125 87.320312 246.453125 92.441406 244.085938 C 95.378906 242.726562 96.789062 240.105469 97.734375 237.148438 C 97.484375 237.507812 97.21875 237.859375 96.929688 238.195312 C 93.371094 242.296875 87.359375 243.386719 82.222656 243.085938 C 75.527344 242.699219 69.003906 240.871094 62.503906 239.042969 C 55.21875 236.996094 48.011719 234.570312 41.019531 231.761719 C 26.597656 225.964844 12.207031 219.257812 -1.503906 211.859375 C -3.035156 211.035156 -4.5625 210.1875 -6.089844 209.335938 L -6.421875 205.8125 C 19.175781 220.265625 46.679688 232.550781 75.339844 239.101562 C 81.003906 240.394531 86.652344 240.957031 91.773438 238.5625 C 94.863281 237.113281 96.253906 234.257812 97.195312 231.078125 C 96.882812 231.582031 96.535156 232.0625 96.148438 232.519531 C 92.621094 236.667969 86.667969 237.734375 81.53125 237.378906 C 74.8125 236.910156 68.292969 234.960938 61.78125 233.03125 C 54.523438 230.878906 47.34375 228.378906 40.304688 225.625 C 25.820312 219.964844 11.519531 213.613281 -2.171875 206.226562 C -3.65625 205.425781 -5.136719 204.609375 -6.613281 203.78125 L -6.929688 200.414062 C 18.664062 214.789062 46.070312 226.523438 74.617188 233.4375 C 80.28125 234.808594 85.988281 235.445312 91.101562 233.039062 C 94.320312 231.523438 95.65625 228.472656 96.597656 225.125 C 96.234375 225.734375 95.832031 226.3125 95.375 226.855469 C 91.863281 231.027344 85.976562 232.078125 80.835938 231.660156 C 74.101562 231.117188 67.59375 229.078125 61.070312 227.101562 C 53.851562 224.914062 46.671875 222.496094 39.625 219.875 C 25.082031 214.46875 10.820312 207.964844 -2.839844 200.59375 C -4.273438 199.816406 -5.707031 199.027344 -7.136719 198.226562 L -7.4375 195.015625 C 18.179688 209.355469 45.390625 220.652344 73.898438 227.796875 C 79.566406 229.21875 85.332031 229.9375 90.4375 227.519531 C 93.851562 225.902344 95.257812 222.378906 96.324219 218.648438 C 95.867188 219.5625 95.316406 220.433594 94.621094 221.230469 C 91.035156 225.355469 85.289062 226.421875 80.148438 225.964844 C 73.417969 225.371094 66.910156 223.292969 60.375 221.351562 C 53.160156 219.210938 45.984375 216.855469 38.957031 214.242188 C 24.414062 208.835938 10.152344 202.328125 -3.507812 194.957031 C -4.894531 194.210938 -6.277344 193.445312 -7.660156 192.675781 L -7.949219 189.617188 C 17.566406 203.980469 44.785156 215.097656 73.1875 222.234375 C 78.867188 223.660156 84.652344 224.425781 89.769531 222.003906 C 93.324219 220.320312 94.734375 216.667969 95.792969 212.808594 C 95.3125 213.824219 94.710938 214.78125 93.917969 215.652344 C 90.269531 219.660156 84.613281 220.785156 79.460938 220.328125 C 72.730469 219.726562 66.226562 217.683594 59.691406 215.730469 C 52.484375 213.574219 45.3125 211.21875 38.289062 208.605469 C 23.746094 203.199219 9.511719 196.6875 -4.175781 189.324219 C -5.519531 188.601562 -6.855469 187.859375 -8.183594 187.105469 L -8.464844 184.140625 C 17.210938 198.320312 44.183594 209.941406 72.480469 216.761719 C 78.199219 218.140625 83.847656 218.953125 89.109375 216.488281 C 92.949219 214.691406 94.253906 210.875 95.207031 206.859375 C 94.738281 208.003906 94.117188 209.082031 93.25 210.046875 C 89.664062 214.054688 83.851562 215.167969 78.78125 214.714844 C 72.054688 214.117188 65.539062 212.042969 59.007812 210.089844 C 51.804688 207.9375 44.640625 205.582031 37.621094 202.972656 C 23.082031 197.566406 8.925781 191.035156 -4.753906 183.648438 C -6.074219 182.933594 -7.394531 182.210938 -8.714844 181.484375 L -8.96875 178.789062 C 16.59375 192.949219 43.609375 204.464844 71.773438 211.253906 C 77.519531 212.636719 83.101562 213.425781 88.449219 210.972656 C 92.644531 209.046875 93.742188 204.734375 94.601562 200.359375 C 94.140625 201.832031 93.484375 203.210938 92.445312 204.421875 C 88.980469 208.46875 83.082031 209.519531 78.09375 209.074219 C 71.367188 208.476562 64.855469 206.40625 58.320312 204.453125 C 51.125 202.300781 43.964844 199.945312 36.953125 197.339844 C 22.402344 191.929688 8.175781 185.367188 -5.503906 178.050781 C -6.75 177.386719 -7.992188 176.703125 -9.230469 176.015625 L -9.464844 173.507812 C 15.835938 187.765625 43.152344 199.015625 71.066406 205.742188 C 76.820312 207.128906 82.421875 207.921875 87.777344 205.457031 C 91.925781 203.546875 92.855469 199.050781 93.65625 194.683594 C 93.214844 196.160156 92.582031 197.554688 91.578125 198.785156 C 88.242188 202.890625 82.324219 203.875 77.410156 203.4375 C 70.683594 202.835938 64.167969 200.765625 57.636719 198.8125 C 50.445312 196.660156 43.292969 194.308594 36.28125 191.703125 C 21.738281 186.296875 7.238281 179.964844 -6.386719 172.503906 C -7.507812 171.890625 -8.625 171.257812 -9.738281 170.621094 L -9.960938 168.246094 C 15.070312 182.652344 42.65625 193.5625 70.359375 200.234375 C 76.128906 201.625 81.78125 202.425781 87.113281 199.9375 C 91.347656 197.960938 92.117188 193.082031 92.96875 188.539062 C 92.457031 190.230469 91.765625 191.808594 90.71875 193.148438 C 87.484375 197.296875 81.585938 198.230469 76.726562 197.796875 C 70 197.199219 63.484375 195.125 56.953125 193.171875 C 49.765625 191.023438 42.617188 188.671875 35.613281 186.070312 C 20.941406 180.613281 6.234375 174.835938 -7.300781 166.976562 C -8.285156 166.40625 -9.265625 165.820312 -10.246094 165.234375 L -10.460938 162.945312 C 14.476562 177.546875 41.859375 188.035156 69.648438 194.722656 C 75.4375 196.117188 81.144531 196.929688 86.445312 194.421875 Z M 64.113281 173.828125 C 69.601562 174.675781 76.5 175.90625 81.691406 173.238281 C 86.648438 170.6875 79.6875 164.078125 79.011719 161.09375 C 77.824219 155.820312 88.332031 154.65625 91.570312 154.34375 C 99.105469 153.609375 107.089844 153.988281 114.660156 155.167969 C 123.40625 156.53125 132.414062 161.359375 141.132812 160.960938 C 147.617188 160.664062 154.136719 157.769531 160.265625 155.390625 C 170.316406 151.488281 180.480469 146.304688 190.933594 144.195312 C 198.011719 142.765625 204.660156 143.324219 211.769531 144.984375 C 219.972656 146.898438 228.265625 148.730469 236.558594 150.054688 C 246.625 151.660156 257.023438 152.808594 267.09375 152.28125 C 275.074219 151.867188 284.292969 150.308594 290.683594 144.890625 C 295.191406 141.070312 299.140625 137.230469 304.574219 134.984375 C 310.558594 132.507812 317.453125 131.738281 323.976562 131.359375 C 331.257812 130.9375 338.695312 131.121094 346.058594 131.222656 C 354.195312 131.335938 362.332031 131.496094 370.46875 131.675781 C 372.339844 131.714844 374.214844 131.753906 376.085938 131.792969 L 376.207031 133.089844 C 362.230469 132.746094 348.226562 132.304688 334.289062 132.277344 C 327.3125 132.265625 320.195312 132.429688 313.472656 133.726562 C 307.296875 134.921875 300.996094 137.210938 296.230469 141.652344 C 291.132812 146.414062 286.121094 149.898438 279.410156 151.757812 C 270.523438 154.226562 260.503906 153.792969 251.296875 153.023438 C 241.703125 152.21875 232.015625 150.667969 222.558594 148.664062 C 215.15625 147.097656 207.769531 144.882812 200.230469 144.316406 C 195.339844 143.953125 190.394531 144.953125 185.738281 146.277344 C 179.90625 147.9375 174.15625 150.453125 168.492188 152.785156 C 161.453125 155.683594 154.1875 159.199219 146.890625 160.992188 C 138.070312 163.160156 132.03125 160.695312 123.632812 158.160156 C 116.9375 156.136719 109.777344 155.417969 102.78125 155.101562 C 97.117188 154.847656 84.238281 153.832031 81.011719 159.25 C 78.628906 163.257812 86.191406 167.523438 84.9375 171.863281 C 83.753906 175.957031 75.957031 175.890625 72.703125 175.78125 C 65.332031 175.53125 57.695312 173.800781 50.300781 172.265625 C 42.453125 170.632812 34.570312 168.695312 27.089844 166 C 20.21875 163.527344 13.539062 160.335938 7.304688 156.34375 C 1.601562 152.699219 -3.578125 148.46875 -10.007812 146.371094 C -10.695312 146.144531 -11.386719 145.941406 -12.085938 145.75 L -12.136719 145.183594 C -1.519531 148.242188 6.511719 155.367188 16.636719 160.523438 C 31.386719 168.035156 47.988281 171.339844 64.113281 173.828125 Z M 14.917969 141.417969 C 20.007812 143.386719 24.492188 146.539062 29.058594 149.460938 C 34.910156 153.207031 41.167969 155.800781 47.757812 157.5 C 52.546875 158.730469 59.132812 160.179688 63.769531 157.613281 C 66.347656 156.1875 66.773438 153.488281 67.566406 150.875 C 68.753906 146.949219 70.726562 143.335938 73.214844 140.332031 C 77.824219 134.769531 84.972656 130.96875 92.554688 130.851562 C 99.699219 130.742188 106.445312 132.550781 113.273438 134.746094 C 127.792969 139.414062 143.167969 144.480469 158.664062 143.476562 C 166.648438 142.960938 174.863281 140.972656 181.816406 137.457031 C 188.03125 134.316406 191.140625 126.042969 197.890625 123.925781 C 204.539062 121.839844 211.1875 123.371094 217.839844 125.410156 C 225.066406 127.625 232.328125 130.425781 239.609375 132.328125 C 246.980469 134.25 254.785156 135.382812 262.285156 134.902344 C 269.554688 134.433594 276.203125 132.019531 281.863281 126.984375 C 287.246094 122.195312 292.785156 117.125 299.207031 114.308594 C 305.5 111.554688 312.597656 110.441406 319.59375 110.007812 C 327.0625 109.542969 334.71875 109.738281 342.273438 109.753906 C 350.664062 109.769531 359.085938 109.761719 367.484375 109.808594 C 369.664062 109.820312 371.839844 109.835938 374.019531 109.855469 L 374.09375 110.640625 C 359.351562 110.492188 344.585938 110.472656 329.878906 110.550781 C 322.628906 110.589844 315.355469 110.839844 308.324219 112.296875 C 300.921875 113.828125 293.851562 117.445312 288.097656 122.507812 C 283.160156 126.855469 278.1875 132.210938 271.710938 133.992188 C 264.804688 135.886719 257.585938 135.972656 250.554688 135.140625 C 243.320312 134.289062 236.15625 132.304688 229.171875 129.957031 C 221.886719 127.503906 214.421875 124.4375 206.988281 123.777344 C 202.847656 123.410156 198.851562 123.96875 195.355469 126.058594 C 192.203125 127.941406 190.226562 131.597656 187.496094 134.164062 C 182.253906 139.09375 174.222656 141.472656 167.207031 142.851562 C 153.039062 145.644531 139.503906 143.3125 125.761719 139.578125 C 117.796875 137.414062 109.855469 134.332031 101.765625 132.65625 C 92.988281 130.839844 84.261719 131.597656 77.433594 137.09375 C 74.144531 139.742188 71.453125 143.304688 69.6875 147.414062 C 68.515625 150.132812 68.417969 153.347656 66.910156 155.886719 C 64.640625 159.714844 59.03125 159.652344 55.371094 159.382812 C 49.023438 158.914062 42.539062 156.992188 36.59375 154.335938 C 31.265625 151.957031 26.53125 148.457031 21.535156 145.496094 C 11.359375 139.460938 0.597656 139.691406 -10.59375 137.882812 C -11.359375 137.757812 -12.117188 137.613281 -12.867188 137.441406 L -12.949219 136.554688 C -3.765625 138.710938 5.914062 137.933594 14.917969 141.417969 Z M 30.480469 155.21875 C 37.085938 158.402344 44.230469 160.425781 51.289062 161.816406 C 56.191406 162.785156 63.277344 164.277344 67.851562 161.6875 C 70.058594 160.4375 69.808594 158.066406 69.710938 155.816406 C 69.554688 152.289062 69.863281 149.703125 71.621094 146.820312 C 75.1875 140.96875 83.28125 137.917969 90.144531 137.667969 C 97.792969 137.390625 105.222656 138.984375 112.675781 140.816406 C 126.117188 144.121094 140.511719 148.960938 154.546875 147.90625 C 162.605469 147.296875 170.824219 145.136719 178.09375 142.226562 C 182.210938 140.574219 186.207031 138.304688 189.84375 135.53125 C 192.640625 133.398438 195.230469 130.484375 198.566406 129.445312 C 205.199219 127.382812 211.875 128.867188 218.5 130.933594 C 225.378906 133.074219 232.335938 135.558594 239.34375 137.113281 C 247.207031 138.855469 255.5 139.800781 263.449219 139.308594 C 270.609375 138.871094 277.875 137.054688 283.398438 131.976562 C 288.46875 127.308594 293.851562 122.683594 300.046875 120.015625 C 306.359375 117.292969 313.441406 116.152344 320.433594 115.6875 C 327.871094 115.195312 335.496094 115.347656 343.023438 115.332031 C 351.394531 115.3125 359.796875 115.273438 368.171875 115.308594 C 370.292969 115.320312 372.414062 115.335938 374.535156 115.359375 L 374.625 116.289062 C 359.972656 116.152344 345.304688 116.164062 330.683594 116.308594 C 323.457031 116.382812 316.117188 116.613281 309.199219 118.132812 C 301.828125 119.746094 294.835938 123.136719 289.0625 128.023438 C 284.113281 132.207031 279.855469 136.621094 273.5625 138.5 C 266.429688 140.636719 258.238281 140.429688 250.777344 139.707031 C 243.359375 138.992188 235.960938 137.371094 228.773438 135.195312 C 221.773438 133.078125 214.777344 130.066406 207.691406 129.433594 C 203.558594 129.0625 199.628906 129.625 196.085938 131.683594 C 192.457031 133.796875 189.082031 137.066406 185.300781 139.292969 C 178.382812 143.367188 170 145.832031 162.144531 147.382812 C 149.632812 149.851562 138.519531 147.878906 126.132812 145.035156 C 117.484375 143.046875 108.792969 140.648438 100.066406 139.300781 C 91.660156 138.003906 81.722656 138.015625 75.355469 143.902344 C 72.703125 146.359375 70.738281 149.0625 70.664062 152.992188 C 70.617188 155.382812 71.523438 157.964844 70.757812 160.1875 C 69.460938 163.949219 62.683594 163.65625 59.644531 163.507812 C 52.730469 163.167969 45.644531 161.449219 38.980469 159.257812 C 32.703125 157.195312 26.898438 154.402344 21.320312 150.703125 C 16.617188 147.582031 11.902344 144.5 6.480469 142.746094 C 1.015625 140.980469 -4.734375 140.742188 -10.375 140.292969 C -11.121094 140.230469 -11.871094 140.164062 -12.617188 140.085938 L -12.664062 139.59375 C -3.492188 140.8125 5.660156 140.757812 14.214844 145.375 C 19.808594 148.394531 24.742188 152.449219 30.480469 155.21875 Z M 15.054688 155.375 C 28.648438 163.820312 44.601562 167.449219 60.097656 169.714844 C 65.378906 170.488281 72.515625 171.820312 77.578125 169.175781 C 81.699219 167.023438 74.988281 159.945312 75.097656 157.050781 C 75.3125 151.453125 84.917969 149.988281 89.371094 149.65625 C 97.570312 149.046875 105.957031 149.714844 114.101562 150.988281 C 123.945312 152.527344 134.832031 157.234375 144.902344 156.410156 C 152.117188 155.820312 159.246094 153.308594 166.054688 150.976562 C 175.929688 147.589844 185.578125 142.023438 195.550781 139.714844 C 202.183594 138.179688 208.402344 138.878906 215.0625 140.652344 C 222.460938 142.625 229.945312 144.480469 237.457031 145.75 C 246.785156 147.320312 256.476562 148.289062 265.835938 147.765625 C 273.5 147.339844 282.125 145.902344 288.109375 140.6875 C 292.648438 136.738281 296.886719 132.707031 302.402344 130.453125 C 308.542969 127.945312 315.523438 126.953125 322.308594 126.496094 C 329.703125 126 337.265625 126.113281 344.75 126.125 C 353.03125 126.136719 361.320312 126.1875 369.601562 126.285156 C 371.59375 126.308594 373.582031 126.335938 375.574219 126.363281 L 375.683594 127.527344 C 361.339844 127.3125 346.96875 127.105469 332.667969 127.246094 C 325.539062 127.316406 318.277344 127.558594 311.429688 128.96875 C 305.007812 130.289062 298.449219 132.769531 293.449219 137.367188 C 288.503906 141.914062 283.96875 145.488281 277.546875 147.132812 C 269.144531 149.285156 259.78125 149.101562 250.941406 148.402344 C 242.246094 147.710938 233.433594 146.328125 224.902344 144.308594 C 218.117188 142.699219 211.386719 140.429688 204.460938 139.796875 C 199.90625 139.378906 195.324219 140.410156 191.039062 141.804688 C 185.496094 143.605469 180.027344 146.234375 174.539062 148.375 C 166.863281 151.367188 158.84375 154.425781 150.863281 156.207031 C 141.382812 158.328125 134.09375 156.265625 124.808594 154.054688 C 117.035156 152.203125 109.003906 151.128906 101.027344 150.632812 C 94.3125 150.214844 82.09375 149.070312 77.429688 154.976562 C 74 159.320312 81.335938 164.035156 80.527344 167.835938 C 79.757812 171.476562 72.191406 171.476562 69.042969 171.394531 C 61.574219 171.199219 53.839844 169.621094 46.410156 167.980469 C 38.914062 166.324219 31.402344 164.21875 24.425781 161.207031 C 12.558594 156.085938 2.730469 146.320312 -10.230469 143.855469 C -10.910156 143.726562 -11.601562 143.617188 -12.292969 143.519531 L -12.332031 143.117188 C -8.585938 143.5625 -4.894531 144.265625 -1.320312 145.636719 C 4.738281 147.960938 9.609375 151.988281 15.054688 155.375 Z M 14.234375 149.992188 C 27.214844 158.535156 40.390625 163.347656 55.609375 165.800781 C 60.691406 166.621094 67.851562 168.023438 72.710938 165.433594 C 76.398438 163.46875 71.355469 155.839844 72.300781 152.414062 C 74.015625 146.207031 83.492188 144.367188 88.785156 144.042969 C 96.945312 143.539062 105.234375 144.839844 113.320312 146.292969 C 124.957031 148.382812 137.671875 153.136719 149.667969 152.136719 C 157.410156 151.492188 165.15625 149.152344 172.417969 146.660156 C 181.34375 143.597656 189.589844 137.320312 198.40625 134.847656 C 204.8125 133.046875 211.058594 134.101562 217.542969 136.042969 C 224.46875 138.121094 231.453125 140.175781 238.503906 141.511719 C 247.0625 143.132812 256.007812 144.019531 264.625 143.519531 C 271.949219 143.097656 279.921875 141.589844 285.578125 136.464844 C 290.308594 132.179688 295.058594 127.9375 300.859375 125.511719 C 307.15625 122.882812 314.238281 121.753906 321.191406 121.273438 C 328.613281 120.757812 336.21875 120.863281 343.734375 120.835938 C 352.089844 120.804688 360.460938 120.792969 368.820312 120.839844 C 370.898438 120.851562 372.976562 120.871094 375.058594 120.886719 L 375.15625 121.9375 C 360.582031 121.796875 345.988281 121.746094 331.453125 121.945312 C 324.242188 122.046875 316.921875 122.324219 310.003906 123.808594 C 303.238281 125.257812 296.246094 128.109375 290.929688 132.90625 C 286.039062 137.320312 281.847656 141.136719 275.550781 142.796875 C 267.777344 144.851562 259.035156 144.726562 250.832031 144.046875 C 242.917969 143.390625 234.878906 142.007812 227.160156 139.898438 C 220.558594 138.097656 213.992188 135.570312 207.269531 134.898438 C 202.960938 134.46875 198.820312 135.402344 194.875 137.015625 C 190.09375 138.972656 185.363281 141.867188 180.558594 143.953125 C 172.882812 147.289062 164.546875 150.0625 156.324219 151.753906 C 145.546875 153.96875 136.425781 152.105469 125.746094 149.773438 C 117.113281 147.890625 108.382812 146.316406 99.613281 145.421875 C 91.894531 144.636719 80.933594 143.851562 75.074219 149.972656 C 70.425781 154.832031 76.664062 159.597656 75.550781 164.058594 C 74.65625 167.640625 67.519531 167.503906 64.445312 167.40625 C 57.148438 167.175781 49.617188 165.585938 42.441406 163.726562 C 35.503906 161.925781 28.597656 159.542969 22.371094 156.160156 C 16.929688 153.207031 11.898438 149.027344 6.203125 146.257812 C 0.914062 143.679688 -4.527344 142.570312 -10.300781 142.054688 C -11.011719 141.992188 -11.730469 141.933594 -12.449219 141.878906 L -12.488281 141.46875 C -8.363281 141.765625 -4.234375 142.101562 -0.234375 143.125 C 5.023438 144.472656 9.722656 147.023438 14.234375 149.992188 Z M 14.234375 149.992188 "/></g></g></g></g></svg>