<svg xmlns="http://www.w3.org/2000/svg" xmlns:xlink="http://www.w3.org/1999/xlink" width="500" zoomAndPan="magnify" viewBox="0 0 375 374.999991" height="500" preserveAspectRatio="xMidYMid meet" version="1.2"><defs><clipPath id="57573ba634"><path d="M 0 103 L 375 103 L 375 300 L 0 300 Z M 0 103 "/></clipPath><clipPath id="e649cba5b9"><path d="M -118.15625 96.078125 L 375.179688 108.816406 L 369.917969 312.746094 L -123.417969 300.007812 Z M -118.15625 96.078125 "/></clipPath><clipPath id="57e3e56841"><path d="M -118.15625 96.078125 L 375.179688 108.816406 L 369.917969 312.746094 L -123.417969 300.007812 Z M -118.15625 96.078125 "/></clipPath></defs><g id="6c11870927"><g clip-rule="nonzero" clip-path="url(#57573ba634)"><g clip-rule="nonzero" clip-path="url(#e649cba5b9)"><g clip-rule="nonzero" clip-path="url(#57e3e56841)"><path style=" stroke:none;fill-rule:nonzero;fill:#ff9f29;fill-opacity:1;" d="M 359.117188 140.519531 C 364.351562 136.835938 369.265625 132.71875 374.464844 129.015625 L 374.402344 131.425781 C 373.429688 132.15625 372.460938 132.894531 371.492188 133.628906 C 355.667969 145.613281 339.007812 155.113281 320.554688 162.226562 C 311.179688 165.839844 301.457031 169.003906 291.996094 172.34375 C 283.84375 175.21875 275.75 178.558594 267.238281 179.90625 C 261.121094 180.875 253.726562 180.121094 249.242188 175.265625 C 243.171875 168.691406 250.214844 162.097656 247.542969 156.289062 C 244.882812 150.507812 231.253906 152.140625 225.613281 152.882812 C 218.996094 153.757812 212.246094 155.351562 206.519531 159.140625 C 196.125 166.015625 185.273438 171.363281 173 168.320312 C 166.703125 166.757812 161.445312 160.605469 156.132812 156.871094 C 150.632812 153.011719 144.226562 150.359375 137.828125 148.832031 C 131.25 147.257812 124.191406 146.769531 117.320312 147.648438 C 105.171875 149.203125 93.308594 153.1875 81.453125 156.46875 C 67.816406 160.242188 53.984375 164.097656 40.15625 166.65625 C 28.195312 168.867188 15.730469 170.058594 4.015625 167.601562 C -6.015625 165.5 -14.195312 160.132812 -22.382812 154 C -29.03125 149.019531 -36.574219 146.320312 -44.757812 145.511719 C -52.957031 144.699219 -61.476562 145.375 -69.84375 146.292969 C -86.390625 148.101562 -103.003906 150.492188 -119.609375 152.386719 L -119.558594 150.40625 C -117.488281 150.179688 -115.417969 149.949219 -113.351562 149.710938 C -103.550781 148.578125 -93.730469 147.347656 -83.925781 146.164062 C -75.105469 145.097656 -66.203125 143.914062 -57.429688 143.558594 C -49.414062 143.230469 -41.402344 143.625 -33.703125 145.785156 C -26.21875 147.882812 -20.246094 153.410156 -13.929688 157.878906 C -4.21875 164.746094 8.257812 166.980469 19.699219 166.777344 C 33.246094 166.535156 46.945312 163.257812 60.300781 159.949219 C 73.3125 156.71875 86.273438 152.972656 99.234375 149.535156 C 109.871094 146.71875 120.113281 144.984375 130.980469 146.289062 C 142.8125 147.707031 154.195312 152.914062 163.769531 160.015625 C 169.5 164.269531 175.273438 167.402344 182.503906 166.867188 C 188.910156 166.394531 194.878906 164.535156 200.464844 161.003906 C 205.085938 158.082031 209.171875 155.320312 214.316406 153.652344 C 221.582031 151.296875 229.757812 150.675781 237.277344 151.023438 C 241.007812 151.195312 251.515625 151.773438 249.953125 158.320312 C 248.320312 165.152344 246.203125 173.652344 254.578125 176.78125 C 261.730469 179.449219 268.773438 178 276.03125 175.71875 C 295.613281 169.566406 315.941406 163.40625 334.753906 154.59375 C 343.273438 150.605469 351.425781 145.9375 359.117188 140.519531 Z M 337.265625 148.25 C 318.386719 158.039062 297.484375 163.578125 277.121094 168.894531 C 270.175781 170.707031 262.101562 172.714844 255.167969 169.796875 C 247.265625 166.472656 253.691406 158.167969 255.109375 153.113281 C 256.941406 146.574219 244.136719 146.050781 240.738281 145.917969 C 232.113281 145.582031 222.914062 146.394531 214.445312 148.5625 C 204.113281 151.207031 194.925781 158.902344 184.359375 159.429688 C 176.757812 159.808594 169.25 156.421875 162.199219 153.417969 C 149.992188 148.210938 137.210938 142.777344 124.078125 141.207031 C 114.179688 140.027344 104.914062 141.417969 95.210938 144.144531 C 83.648438 147.390625 72.046875 150.683594 60.390625 153.402344 C 47.035156 156.519531 33.21875 159.324219 19.683594 159.558594 C 8.902344 159.742188 -3.050781 158.050781 -12.199219 151.546875 C -18.382812 147.152344 -23.859375 142.277344 -30.925781 140.078125 C -38.542969 137.710938 -47.003906 137.339844 -55.210938 137.535156 C -64.25 137.746094 -73.441406 138.765625 -82.539062 139.671875 C -92.605469 140.675781 -102.679688 141.746094 -112.742188 142.78125 C -114.953125 143.007812 -117.164062 143.230469 -119.378906 143.453125 L -119.425781 145.265625 C -102.273438 143.476562 -85.097656 141.394531 -67.988281 139.894531 C -59.359375 139.140625 -50.582031 138.613281 -42.148438 139.535156 C -34.3125 140.390625 -26.40625 142.75 -20.007812 147.875 C -12.699219 153.734375 -5.410156 158.15625 3.679688 160.179688 C 15.496094 162.804688 28.539062 161.199219 40.453125 159.230469 C 53.679688 157.046875 66.925781 153.773438 79.90625 150.230469 C 90.34375 147.378906 100.777344 143.714844 111.460938 142.328125 C 118.046875 141.476562 124.742188 142.160156 131.207031 143.488281 C 138.507812 144.984375 145.726562 147.667969 152.640625 150.628906 C 160.382812 153.945312 168.277344 158.683594 176.316406 160.394531 C 187.945312 162.871094 194.941406 158.332031 205.257812 153.351562 C 212.292969 149.953125 220.054688 148.554688 227.664062 147.714844 C 234.019531 147.011719 249.453125 145.078125 252.667969 151.078125 C 255.320312 156.019531 246.214844 162.292969 250.261719 168.269531 C 253.660156 173.289062 262.136719 173.539062 267.617188 172.6875 C 276.566406 171.296875 285.328125 168.304688 294.085938 165.714844 C 304.003906 162.777344 313.960938 159.695312 323.496094 155.90625 C 332.585938 152.292969 341.507812 147.96875 349.835938 142.644531 C 357.507812 137.738281 364.355469 131.304688 371.769531 126.542969 C 372.679688 125.960938 373.617188 125.402344 374.570312 124.867188 L 374.609375 123.398438 C 369.351562 126.171875 364.652344 129.789062 359.851562 133.5625 C 352.761719 139.136719 345.277344 144.097656 337.265625 148.25 Z M 275.613281 182.773438 C 268.367188 185.046875 261.324219 186.507812 254.210938 183.839844 C 246.910156 181.101562 245.449219 170.730469 245.703125 163.929688 C 245.9375 157.628906 238.660156 156.269531 233.882812 156.140625 C 227.3125 155.964844 220.324219 156.519531 214.128906 159.15625 C 208.894531 161.386719 204.671875 165.378906 199.695312 168.121094 C 192.605469 172.03125 184.714844 174.691406 177.085938 175.136719 C 170.125 175.542969 164.8125 173.628906 160.542969 167.773438 C 158.140625 164.480469 156.3125 160.707031 152.929688 158.121094 C 148.164062 154.472656 141.980469 152.671875 136.351562 151.8125 C 124.828125 150.054688 113.253906 152.472656 101.746094 155.53125 C 87.636719 159.28125 73.539062 163.53125 59.445312 167.363281 C 46.570312 170.863281 33.304688 174.375 20.179688 174.570312 C 8.355469 174.75 -4.066406 171.621094 -14.179688 164.941406 C -21.214844 160.296875 -27.910156 154.039062 -36.066406 151.722656 C -43.660156 149.5625 -51.542969 149.226562 -59.445312 149.695312 C -67.941406 150.199219 -76.5625 151.558594 -85.09375 152.773438 C -94.660156 154.136719 -104.25 155.496094 -113.835938 156.707031 C -115.800781 156.957031 -117.769531 157.191406 -119.738281 157.417969 L -119.792969 159.578125 C -103.625 157.644531 -87.480469 154.984375 -71.402344 152.855469 C -63.265625 151.777344 -54.984375 150.953125 -47 151.691406 C -38.40625 152.488281 -30.71875 155.644531 -23.621094 160.757812 C -14.722656 167.171875 -5.449219 173.167969 5.171875 175.570312 C 16.386719 178.105469 28.21875 177.035156 39.660156 174.742188 C 53.511719 171.964844 67.300781 167.644531 81 163.675781 C 94.324219 159.8125 107.707031 155.230469 121.539062 153.511719 C 128.542969 152.640625 135.738281 152.828125 142.148438 154.824219 C 147.351562 156.441406 151.792969 159.191406 154.683594 164.292969 C 157.496094 169.261719 160.484375 175.605469 166.308594 177.066406 C 179.527344 180.375 196.097656 173.933594 206.847656 165.855469 C 211.949219 162.019531 217.441406 159.433594 223.726562 158.296875 C 228.875 157.367188 240.535156 156.046875 243.035156 161.792969 C 245.792969 168.128906 243.40625 176.273438 248.84375 182.445312 C 253.253906 187.449219 260.761719 188.085938 266.855469 187.121094 C 275.34375 185.78125 283.433594 182.585938 291.554688 179.539062 C 300.585938 176.152344 309.523438 172.464844 318.441406 168.832031 C 337.03125 161.257812 354.757812 152.5 371.066406 140.8125 C 372.117188 140.058594 373.167969 139.296875 374.21875 138.53125 L 374.289062 135.789062 C 360.941406 145.308594 347.582031 154.199219 332.382812 160.984375 C 313.949219 169.21875 294.675781 176.78125 275.613281 182.773438 Z M 253.847656 190.898438 C 246.898438 188.175781 244.882812 176.910156 243.128906 170.300781 C 241.554688 164.371094 236.71875 161.753906 230.9375 161.625 C 225.082031 161.496094 218.964844 162.347656 213.738281 165.4375 C 199.566406 173.824219 185.847656 182.773438 169.648438 183.898438 C 163.96875 184.289062 155.796875 183.160156 153.785156 176.390625 C 151.050781 167.1875 149.667969 160.273438 138.972656 158.144531 C 126.933594 155.746094 113.828125 159.183594 101.546875 162.488281 C 86.898438 166.429688 72.316406 171.152344 57.742188 175.425781 C 45.644531 178.976562 33.164062 182.585938 20.785156 182.722656 C 9.03125 182.855469 -2.714844 178.96875 -12.902344 172.554688 C -20.890625 167.523438 -28.660156 160.78125 -37.621094 158.113281 C -45.183594 155.859375 -53.039062 155.519531 -60.949219 156.117188 C -69.203125 156.742188 -77.574219 158.28125 -85.851562 159.617188 C -95.265625 161.140625 -104.726562 162.585938 -114.191406 163.789062 C -116.097656 164.03125 -118.007812 164.257812 -119.921875 164.472656 L -119.980469 166.765625 C -104.054688 164.839844 -88.183594 162.167969 -72.386719 159.742188 C -64.414062 158.515625 -56.441406 157.675781 -48.484375 158.300781 C -39.222656 159.027344 -30.796875 163.128906 -23.152344 168.277344 C -13.777344 174.589844 -4.105469 181.160156 6.738281 183.855469 C 17.210938 186.457031 28.230469 185.523438 38.933594 183.222656 C 52.257812 180.359375 65.484375 175.835938 78.644531 171.761719 C 93.1875 167.261719 107.914062 162.214844 122.789062 160.308594 C 129.054688 159.507812 136.492188 158.976562 142.328125 161.882812 C 146.492188 163.957031 148.34375 168.382812 148.972656 172.757812 C 149.757812 178.242188 151.355469 184.59375 157.753906 186.265625 C 172.902344 190.210938 192.296875 180.925781 204.902344 173.449219 C 210.570312 170.085938 215.859375 166.011719 222.15625 164.339844 C 227.507812 162.921875 236.625 162.234375 239.847656 167.96875 C 241.589844 171.066406 242.449219 174.921875 243.441406 178.71875 C 243.25 178.234375 243.042969 177.765625 242.816406 177.324219 C 240.105469 171.976562 235.117188 167.847656 228.796875 167.835938 C 222.886719 167.824219 218.132812 169.683594 212.832031 172.574219 C 196.691406 181.371094 179.574219 191.34375 161.472656 192.835938 C 155.832031 193.300781 146.417969 193.082031 145.082031 185.484375 C 143.570312 176.878906 146.433594 168.710938 136.644531 165.644531 C 125.199219 162.058594 110.210938 167.054688 98.414062 170.402344 C 84.0625 174.476562 69.804688 179.390625 55.558594 183.871094 C 44.414062 187.378906 32.890625 190.953125 21.464844 191.003906 C 9.957031 191.054688 -0.824219 186.589844 -10.730469 180.511719 C -19.402344 175.195312 -28.035156 168.214844 -37.730469 165.222656 C -45.496094 162.828125 -53.453125 162.324219 -61.582031 163.015625 C -69.703125 163.710938 -77.976562 165.371094 -86.128906 166.707031 C -95.5625 168.257812 -105.09375 169.667969 -114.585938 170.839844 C -116.417969 171.066406 -118.257812 171.285156 -120.101562 171.492188 L -120.164062 173.988281 C -104.214844 172.113281 -88.3125 169.5625 -72.492188 167.054688 C -64.5 165.789062 -56.554688 164.894531 -48.59375 165.589844 C -38.777344 166.445312 -29.648438 170.886719 -21.402344 176.230469 C -11.941406 182.355469 -2.273438 189.355469 8.445312 192.230469 C 18.089844 194.820312 28.292969 194.0625 38.160156 191.832031 C 50.59375 189.023438 62.929688 184.453125 75.191406 180.402344 C 89.761719 175.59375 104.570312 170.292969 119.503906 168.265625 C 125.207031 167.492188 132.957031 166.558594 137.789062 170.085938 C 141.308594 172.652344 141.027344 177.902344 140.800781 181.855469 C 140.417969 188.472656 142.203125 193.609375 148.855469 195.542969 C 164.65625 200.144531 186.28125 189.242188 200.964844 181.527344 C 207.558594 178.0625 214.179688 173.59375 221.328125 171.296875 C 227.40625 169.347656 234.707031 169.703125 238.9375 174.96875 C 241.542969 178.21875 242.316406 182.429688 243.238281 186.558594 C 242.988281 185.816406 242.714844 185.105469 242.402344 184.441406 C 239.792969 178.859375 234.914062 174.976562 228.222656 174.792969 C 221.765625 174.617188 215.882812 177.40625 210.261719 180.152344 C 192.585938 188.792969 173.667969 200.226562 153.863281 201.636719 C 148.191406 202.039062 137.546875 202.160156 136.003906 194.667969 C 134.613281 187.929688 140.378906 177.019531 131.085938 174.027344 C 119.5625 170.320312 104.882812 175.585938 93.746094 178.921875 C 80.179688 182.984375 66.726562 187.921875 53.28125 192.421875 C 43.230469 195.785156 32.851562 199.136719 22.15625 199.175781 C 11.082031 199.21875 0.96875 194.382812 -8.148438 188.625 C -17.15625 182.933594 -26.34375 175.972656 -36.472656 172.835938 C -44.484375 170.351562 -52.664062 169.710938 -61.050781 170.382812 C -69.257812 171.046875 -77.632812 172.6875 -85.878906 173.980469 C -95.464844 175.480469 -105.15625 176.824219 -114.796875 177.957031 C -116.621094 178.171875 -118.453125 178.375 -120.285156 178.574219 L -120.351562 181.253906 C -104.117188 179.457031 -87.921875 177.066406 -71.808594 174.644531 C -63.644531 173.417969 -55.546875 172.566406 -47.4375 173.335938 C -37.203125 174.308594 -27.582031 178.933594 -18.933594 184.425781 C -9.824219 190.210938 -0.441406 197.699219 10.023438 200.46875 C 19.144531 202.882812 28.34375 202.421875 37.523438 200.300781 C 48.871094 197.675781 60.121094 193.207031 71.289062 189.28125 C 85.269531 184.371094 99.503906 179.046875 113.882812 176.980469 C 118.929688 176.257812 126.925781 175.136719 130.691406 179.003906 C 133.53125 181.925781 132.273438 187.300781 131.710938 191.191406 C 130.703125 198.148438 134.121094 203.207031 141.140625 204.539062 C 159.472656 208.007812 180.019531 197.589844 195.925781 189.871094 C 203.808594 186.042969 211.671875 181.328125 220.113281 178.714844 C 226.378906 176.777344 234.125 176.417969 238.425781 182.175781 C 240.835938 185.402344 241.5625 189.53125 242.449219 193.574219 C 242.230469 192.902344 242 192.246094 241.742188 191.617188 C 239.304688 185.621094 233.59375 182.035156 227.191406 182 C 219.890625 181.957031 213.035156 185.058594 206.566406 188.003906 C 188.09375 196.417969 168.546875 208.519531 148.121094 209.984375 C 141.886719 210.429688 131.136719 210.476562 128.105469 203.566406 C 125.457031 197.53125 131.878906 186.082031 123.734375 182.933594 C 113.246094 178.882812 98.589844 184.503906 88.367188 187.734375 C 75.925781 191.664062 63.597656 196.496094 51.277344 200.808594 C 42.003906 204.054688 32.617188 206.863281 22.777344 207.011719 C 12.40625 207.171875 2.796875 202.257812 -5.652344 196.699219 C -14.613281 190.800781 -24.085938 183.863281 -34.421875 180.714844 C -42.65625 178.207031 -51.171875 177.300781 -59.804688 177.996094 C -68.296875 178.679688 -76.808594 180.164062 -85.265625 181.375 C -95.097656 182.785156 -105.035156 184.03125 -114.917969 185.101562 C -116.765625 185.300781 -118.617188 185.492188 -120.46875 185.679688 L -120.542969 188.535156 C -103.871094 186.835938 -87.226562 184.644531 -70.660156 182.390625 C -62.246094 181.242188 -53.910156 180.472656 -45.570312 181.328125 C -35.097656 182.402344 -25.167969 187.050781 -16.3125 192.671875 C -7.632812 198.1875 1.1875 205.671875 11.179688 208.339844 C 19.773438 210.632812 28.535156 210.328125 37.179688 208.355469 C 47.421875 206.019531 57.535156 201.820312 67.566406 198.089844 C 80.503906 193.277344 93.726562 188.046875 107.046875 186.097656 C 111.363281 185.464844 119.394531 184.265625 122.398438 188.265625 C 124.765625 191.421875 123.359375 196.488281 123.234375 200.375 C 122.976562 208.300781 129.65625 211.597656 136.160156 212.867188 C 154.152344 216.378906 174.3125 205.96875 190.683594 198.265625 C 199.511719 194.109375 208.386719 189.164062 217.796875 186.402344 C 224.144531 184.539062 232.984375 183.269531 237.5 189.480469 C 239.675781 192.46875 240.519531 196.136719 241.378906 199.78125 C 241.253906 199.453125 241.125 199.128906 240.988281 198.816406 C 238.285156 192.566406 232.136719 189.257812 225.484375 189.367188 C 217.386719 189.503906 209.703125 192.785156 202.433594 195.960938 C 184.390625 203.84375 165.457031 216.167969 145.589844 217.574219 C 138.1875 218.097656 128.503906 217.609375 122.933594 211.796875 C 117.8125 206.457031 123.136719 195.324219 115.8125 192.007812 C 106.402344 187.753906 92.191406 193.5 83.078125 196.527344 C 71.957031 200.222656 60.925781 204.835938 49.894531 208.757812 C 41.191406 211.851562 32.417969 214.1875 23.179688 214.324219 C 13.339844 214.46875 4.171875 209.996094 -3.753906 204.539062 C -12.613281 198.4375 -21.964844 191.984375 -32.042969 188.707031 C -40.386719 185.992188 -49.316406 185.210938 -58.195312 185.726562 C -66.902344 186.234375 -75.769531 187.707031 -84.515625 188.816406 C -94.644531 190.105469 -104.863281 191.246094 -115.035156 192.25 C -116.90625 192.433594 -118.777344 192.609375 -120.652344 192.785156 L -120.730469 195.804688 C -103.578125 194.191406 -86.433594 192.222656 -69.367188 190.183594 C -60.667969 189.148438 -52.039062 188.46875 -43.4375 189.410156 C -32.945312 190.554688 -22.910156 195.066406 -14.097656 200.785156 C -5.980469 206.050781 2.09375 213.046875 11.429688 215.898438 C 19.980469 218.507812 28.464844 217.980469 37.113281 215.890625 C 46.4375 213.632812 55.574219 210.039062 64.636719 206.519531 C 76.253906 202.003906 88.109375 197.0625 100.105469 195.257812 C 104.148438 194.648438 111.460938 193.644531 114.261719 197.492188 C 116.464844 200.515625 115.972656 205.507812 116.875 209.015625 C 118.617188 215.824219 128.375 219.554688 134.851562 220.539062 C 152.605469 223.234375 170.1875 214.019531 186.144531 206.488281 C 195.574219 202.035156 205.03125 197.21875 214.9375 194.222656 C 221.535156 192.226562 231.355469 190.417969 236.371094 196.835938 C 238.5625 199.644531 239.574219 203.066406 240.527344 206.507812 C 240.449219 206.339844 240.371094 206.167969 240.289062 206 C 237.175781 199.503906 230.429688 196.554688 223.484375 196.808594 C 214.753906 197.125 206.414062 200.460938 198.566406 203.855469 C 181.378906 211.289062 163.382812 223.726562 144.734375 225.542969 C 136.136719 226.382812 128.570312 224.417969 121.570312 219.203125 C 118.085938 216.609375 115.8125 213.613281 114.203125 209.546875 C 112.867188 206.160156 112.0625 202.539062 108.535156 200.90625 C 99.800781 196.863281 87.101562 202.0625 78.667969 204.992188 C 68.871094 208.394531 59.109375 212.40625 49.355469 216.128906 C 40.601562 219.472656 31.933594 222.863281 22.617188 223.214844 C 12.9375 223.582031 4.488281 217.375 -2.972656 211.957031 C -11.261719 205.941406 -20.167969 199.785156 -29.792969 196.652344 C -38.324219 193.875 -47.480469 193.058594 -56.566406 193.46875 C -65.585938 193.875 -74.78125 195.222656 -83.847656 196.230469 C -94.273438 197.390625 -104.769531 198.421875 -115.230469 199.371094 C -117.097656 199.539062 -118.964844 199.703125 -120.832031 199.867188 L -120.914062 203.046875 C -103.335938 201.488281 -85.757812 199.726562 -68.238281 197.925781 C -59.289062 197.003906 -50.316406 196.410156 -41.476562 197.433594 C -31.210938 198.621094 -21.347656 202.808594 -12.839844 208.570312 C -5.109375 213.804688 2.105469 222.375 10.785156 225.726562 C 19.324219 229.027344 27.867188 228.105469 36.460938 225.242188 C 45.394531 222.265625 54.179688 217.796875 63.117188 214.253906 C 73.304688 210.210938 83.625 205.695312 94.140625 204.109375 C 98.214844 203.492188 104.46875 202.847656 107.617188 206.304688 C 110.304688 209.257812 111.5625 213.6875 114.132812 216.726562 C 119.007812 222.492188 125.933594 227.972656 133.714844 229.242188 C 151.09375 232.078125 167.773438 221.933594 183.226562 214.316406 C 192.617188 209.6875 202.136719 204.996094 212.089844 202.039062 C 219.089844 199.957031 229.617188 197.71875 235.257812 204.1875 C 237.429688 206.675781 238.621094 209.71875 239.65625 212.839844 C 236.101562 206.449219 228.4375 203.785156 221.582031 204.222656 C 212.601562 204.796875 203.96875 207.886719 195.679688 211.511719 C 178.71875 218.921875 161.808594 232.265625 143.410156 234.460938 C 134.71875 235.5 127.042969 233.515625 120.566406 227.554688 C 114.875 222.316406 110.660156 212.441406 103.097656 209.273438 C 94.757812 205.78125 83.867188 209.972656 75.910156 212.816406 C 66.535156 216.167969 57.554688 220.539062 48.617188 225.039062 C 40.050781 229.355469 31.359375 233.648438 21.777344 234.246094 C 11.550781 234.882812 3.34375 227.0625 -3.382812 220.226562 C -10.46875 213.023438 -18.765625 207.449219 -28.132812 204.398438 C -36.757812 201.59375 -46.066406 200.789062 -55.265625 201.097656 C -64.59375 201.410156 -74.097656 202.628906 -83.480469 203.542969 C -94.152344 204.582031 -104.878906 205.523438 -115.578125 206.4375 C -117.390625 206.59375 -119.203125 206.746094 -121.015625 206.902344 L -121.101562 210.292969 C -103.28125 208.472656 -85.382812 207.078125 -67.578125 205.507812 C -58.394531 204.695312 -49.179688 204.183594 -40.117188 205.25 C -30.515625 206.378906 -20.152344 209.921875 -13.011719 216.078125 C -5.636719 222.441406 0.5625 233.667969 9.90625 237.644531 C 18.441406 241.277344 27.03125 239.949219 35.496094 236.527344 C 44.691406 232.808594 53.542969 227.164062 62.492188 222.496094 C 71.363281 217.867188 80.453125 213.921875 90.238281 212.296875 C 94.585938 211.570312 99.933594 211.632812 103.769531 214.332031 C 107.753906 217.132812 110.523438 220.839844 113.199219 224.792969 C 117.59375 231.292969 124.117188 237.589844 132.140625 238.816406 C 150.140625 241.566406 167.074219 230.164062 182.414062 221.765625 C 191.195312 216.960938 200.289062 212.53125 209.832031 209.710938 C 217.207031 207.53125 228.25 205.148438 234.410156 211.476562 C 236.328125 213.441406 237.628906 215.9375 238.628906 218.539062 C 234.464844 212.960938 226.714844 211.050781 220.183594 211.519531 C 211.25 212.160156 202.734375 215.070312 194.472656 218.757812 C 176.75 226.664062 160.742188 241.039062 141.820312 243.914062 C 133.210938 245.222656 125.238281 243.25 119.082031 236.910156 C 113.148438 230.796875 109.984375 219.121094 100.734375 216.765625 C 91.914062 214.523438 83.300781 216.765625 75.054688 220.378906 C 65.570312 224.53125 56.554688 230.355469 47.550781 235.710938 C 39.371094 240.574219 30.496094 245.800781 20.78125 246.476562 C 10.078125 247.222656 1.992188 238.6875 -4.058594 231.097656 C -10.648438 222.828125 -17.191406 214.957031 -27.519531 211.789062 C -36.296875 209.097656 -45.449219 208.277344 -54.625 208.5 C -64.214844 208.738281 -73.96875 209.824219 -83.628906 210.679688 C -94.421875 211.636719 -105.167969 213.128906 -115.828125 214.941406 C -117.539062 215.234375 -119.386719 215.464844 -121.242188 215.699219 L -121.5 225.65625 C -106.515625 223.296875 -84.863281 214.84375 -67.660156 212.96875 C -58.429688 211.964844 -49.015625 211.648438 -39.820312 212.664062 C -29.371094 213.8125 -20.449219 218.296875 -13.71875 226.152344 C -6.96875 234.03125 -0.835938 246.347656 8.917969 250.59375 C 17.347656 254.265625 26.074219 252.5625 34.378906 248.804688 C 43.734375 244.570312 52.550781 238.210938 61.449219 232.648438 C 70.195312 227.183594 79.09375 221.804688 89.101562 219.890625 C 93.472656 219.054688 99.007812 219.269531 102.820312 222.03125 C 106.945312 225.015625 109.226562 229.828125 111.710938 234.132812 C 115.710938 241.070312 122.183594 247.640625 130.382812 248.777344 C 148.917969 251.34375 166.203125 239.003906 181.625 229.835938 C 190.285156 224.6875 199.121094 220.003906 208.746094 217.097656 C 216.570312 214.738281 227.496094 212.738281 234.074219 218.636719 C 236.007812 220.371094 237.191406 222.714844 238.089844 225.199219 C 233.925781 219.796875 226.117188 218.121094 219.699219 218.589844 C 210.621094 219.253906 202.078125 222.15625 193.855469 226.175781 C 176.296875 234.765625 159.871094 250.613281 140.175781 253.480469 C 131.375 254.765625 123.453125 253.171875 117.363281 246.753906 C 111.46875 240.542969 108.90625 227.601562 99.875 224.785156 C 90.914062 221.992188 82.144531 225.277344 73.984375 229.625 C 64.460938 234.703125 55.429688 241.363281 46.308594 247.324219 C 38.3125 252.550781 29.511719 258.054688 19.75 258.976562 C 8.941406 260 0.835938 251.398438 -4.878906 243.554688 C -11.148438 234.949219 -17.804688 224.144531 -28.039062 219.972656 C -36.589844 216.488281 -45.734375 215.683594 -54.871094 216.285156 C -64.507812 216.921875 -74.15625 219.144531 -83.621094 221.636719 C -94.191406 224.421875 -104.660156 227.808594 -115.085938 231.199219 C -117.128906 231.867188 -119.429688 232.441406 -121.691406 233.027344 L -122.050781 247.023438 C -107.121094 243.019531 -85.472656 229.761719 -67.734375 224.847656 C -58.730469 222.355469 -49.519531 220.988281 -40.316406 222.15625 C -29.589844 223.519531 -20.933594 230.164062 -14.539062 238.609375 C -8.234375 246.933594 -2.046875 259.550781 7.933594 263.515625 C 16.390625 266.875 25.101562 264.992188 33.253906 261.136719 C 42.667969 256.683594 51.398438 250 60.15625 243.921875 C 68.691406 237.996094 77.648438 231.210938 88.019531 228.953125 C 92.449219 227.988281 97.859375 228.214844 101.511719 231.183594 C 105.445312 234.382812 107.539062 239.933594 109.925781 244.175781 C 113.863281 251.167969 120.15625 257.4375 128.671875 258.628906 C 147.46875 261.253906 165.570312 247.878906 180.582031 238.429688 C 189.4375 232.851562 198.445312 227.5625 208.378906 224.375 C 215.964844 221.9375 227.351562 219.703125 233.679688 225.765625 C 235.433594 227.445312 236.550781 229.617188 237.402344 231.925781 C 233.179688 226.78125 225.621094 225.128906 219.308594 225.652344 C 210.007812 226.425781 201.28125 229.753906 192.976562 234.125 C 175.34375 243.402344 158.769531 259.675781 138.679688 262.746094 C 129.960938 264.082031 121.871094 262.78125 115.65625 256.574219 C 109.59375 250.523438 107.332031 237.117188 98.53125 234.140625 C 89.496094 231.082031 80.625 235.25 72.605469 240.070312 C 63.171875 245.738281 54.226562 252.851562 45.054688 259.050781 C 37.183594 264.367188 28.492188 269.714844 18.816406 270.804688 C 8.160156 272 -0.0351562 264.34375 -5.742188 256.546875 C -12.054688 247.921875 -18.609375 236.371094 -28.597656 231.648438 C -37.035156 227.660156 -46.015625 226.960938 -55.058594 228.609375 C -64.675781 230.363281 -73.960938 234.445312 -83.066406 238.570312 C -93.351562 243.234375 -103.484375 248.425781 -113.675781 253.238281 C -116.316406 254.484375 -119.421875 255.589844 -122.300781 256.714844 L -122.726562 273.183594 C -107.796875 268.703125 -85.71875 250.09375 -67.449219 241.640625 C -58.894531 237.683594 -50.007812 234.921875 -40.695312 235.644531 C -30.113281 236.464844 -21.636719 243.925781 -15.410156 252.183594 C -9.292969 260.296875 -2.929688 272.09375 7.078125 275.347656 C 15.5625 278.109375 24.226562 276.273438 32.277344 272.578125 C 41.648438 268.277344 50.273438 261.6875 58.804688 255.488281 C 67.320312 249.300781 76.160156 241.9375 86.5625 239.210938 C 90.90625 238.074219 96.304688 238.195312 99.851562 241.28125 C 103.660156 244.589844 105.671875 250.023438 108.09375 254.335938 C 112.054688 261.382812 119.019531 266.910156 127.265625 267.875 C 146.363281 270.113281 164.265625 257.128906 179.421875 247.253906 C 188.460938 241.363281 197.59375 235.632812 207.753906 232.082031 C 215.3125 229.441406 226.789062 226.90625 233.160156 233.078125 C 234.757812 234.625 235.816406 236.585938 236.632812 238.679688 C 232.324219 233.800781 224.914062 232.398438 218.75 233.03125 C 209.230469 234.007812 200.300781 237.6875 191.945312 242.375 C 174.648438 252.070312 157.703125 268.285156 137.542969 271.285156 C 128.9375 272.566406 120.726562 271.550781 114.210938 265.859375 C 107.816406 260.273438 105.464844 247.757812 96.925781 244.226562 C 88.296875 240.660156 78.128906 246.488281 71.101562 251.003906 C 61.902344 256.914062 53.097656 264.066406 43.941406 270.058594 C 35.953125 275.289062 27.609375 279.695312 18.09375 281.011719 C 7.972656 282.410156 -0.550781 276.445312 -6.558594 269.015625 C -12.964844 261.089844 -19.558594 249.808594 -29.152344 245.464844 C -37.605469 241.632812 -46.363281 241.6875 -55.042969 244.5 C -64.625 247.605469 -73.476562 253.433594 -82.191406 259.015625 C -92.09375 265.359375 -101.878906 272.085938 -111.949219 278.007812 C -115.3125 279.984375 -119.519531 281.703125 -122.992188 283.457031 L -123.417969 300 C -107.945312 296.441406 -85.492188 273.011719 -66.964844 261.015625 C -58.949219 255.824219 -50.441406 251.546875 -41 251.328125 C -30.949219 251.097656 -22.539062 258.121094 -16.261719 265.601562 C -10.121094 272.917969 -3.421875 282.886719 6.457031 285.015625 C 15.050781 286.871094 23.578125 285.421875 31.601562 282.179688 C 40.828125 278.453125 49.332031 272.4375 57.574219 266.535156 C 66.0625 260.453125 74.726562 252.984375 84.953125 249.964844 C 89.203125 248.710938 94.570312 248.550781 98.078125 251.691406 C 101.828125 255.042969 103.757812 260.078125 106.464844 264.039062 C 111.175781 270.925781 118.09375 274.933594 126.40625 276.019531 C 145.066406 278.453125 162.996094 266.09375 178.289062 256.015625 C 187.488281 249.953125 196.714844 243.941406 206.992188 240.074219 C 214.503906 237.246094 226.113281 234.324219 232.582031 240.503906 C 235.679688 243.464844 236.753906 247.96875 237.96875 252.039062 C 239.035156 255.625 240.640625 259.21875 243.371094 261.835938 C 248.414062 266.671875 256.0625 267.496094 262.667969 266.730469 C 271.050781 265.757812 279.195312 263.203125 287.324219 260.699219 C 296.398438 257.90625 305.382812 254.6875 313.964844 250.789062 C 332.355469 242.4375 349.148438 230.632812 366.265625 219.828125 C 368.253906 218.570312 370.242188 217.289062 372.21875 215.992188 L 372.347656 211.09375 C 357.214844 221.164062 341.644531 230.925781 325.765625 239.6875 C 308.417969 249.265625 290.027344 255.847656 270.964844 261.011719 C 263.90625 262.921875 257 263.984375 250.175781 261.511719 C 246.539062 260.195312 244.492188 257.207031 243.011719 253.730469 C 243.277344 254.039062 243.550781 254.339844 243.84375 254.625 C 248.78125 259.472656 256.519531 260.328125 263.046875 259.554688 C 271.472656 258.558594 279.605469 255.847656 287.710938 253.144531 C 296.792969 250.113281 305.761719 246.613281 314.351562 242.515625 C 332.285156 233.972656 349.765625 223.257812 366.625 212.617188 C 368.554688 211.398438 370.484375 210.15625 372.402344 208.898438 L 372.523438 204.199219 C 341.128906 224.972656 307.660156 243.507812 271.386719 253.871094 C 264.3125 255.890625 257.25 257.015625 250.542969 254.453125 C 246.695312 252.980469 244.679688 249.777344 243.222656 246.105469 C 243.570312 246.542969 243.941406 246.964844 244.335938 247.363281 C 249.207031 252.261719 256.933594 253.121094 263.429688 252.296875 C 271.890625 251.222656 280.007812 248.34375 288.105469 245.460938 C 297.167969 242.230469 306.105469 238.523438 314.738281 234.351562 C 332.539062 225.746094 350.222656 215.988281 366.984375 205.40625 C 368.855469 204.226562 370.722656 203.019531 372.585938 201.804688 L 372.703125 197.304688 C 341.46875 217.867188 307.625 235.84375 271.8125 246.644531 C 264.738281 248.777344 257.621094 249.980469 250.914062 247.382812 C 246.863281 245.816406 244.851562 242.308594 243.378906 238.355469 C 243.824219 238.964844 244.308594 239.550781 244.835938 240.09375 C 249.671875 245.054688 257.320312 245.890625 263.8125 244.992188 C 272.296875 243.816406 280.402344 240.777344 288.496094 237.761719 C 297.523438 234.402344 306.417969 230.605469 315.113281 226.503906 C 333.007812 218.0625 350.609375 208.761719 367.34375 198.199219 C 369.15625 197.054688 370.964844 195.886719 372.769531 194.710938 L 372.878906 190.40625 C 341.640625 210.875 307.875 228.140625 272.238281 239.390625 C 265.171875 241.621094 257.980469 242.925781 251.28125 240.316406 C 247.070312 238.671875 245.109375 234.914062 243.621094 230.746094 C 244.136719 231.488281 244.699219 232.191406 245.328125 232.839844 C 250.148438 237.832031 257.707031 238.652344 264.195312 237.675781 C 272.691406 236.402344 280.78125 233.25 288.886719 230.175781 C 297.855469 226.777344 306.765625 223.082031 315.476562 219.148438 C 333.46875 211.023438 351.007812 201.53125 367.703125 190.988281 C 369.457031 189.882812 371.207031 188.753906 372.953125 187.617188 L 373.058594 183.515625 C 341.785156 203.933594 308.230469 220.628906 272.664062 232.171875 C 265.597656 234.464844 258.339844 235.878906 251.652344 233.25 C 247.179688 231.496094 245.085938 227.144531 243.410156 222.503906 C 244.070312 223.625 244.84375 224.679688 245.796875 225.632812 C 250.703125 230.558594 258.089844 231.414062 264.574219 230.390625 C 273.0625 229.050781 281.144531 225.847656 289.269531 222.820312 C 298.246094 219.476562 307.144531 215.863281 315.839844 211.9375 C 333.828125 203.816406 351.367188 194.320312 368.066406 183.78125 C 369.757812 182.710938 371.449219 181.625 373.136719 180.527344 L 373.234375 176.621094 C 342.097656 197.058594 308.515625 213.53125 273.085938 225.050781 C 266 227.351562 258.722656 228.824219 252.015625 226.191406 C 247.363281 224.367188 245.257812 219.851562 243.578125 215.046875 C 244.273438 216.292969 245.121094 217.457031 246.203125 218.492188 C 251.183594 223.261719 258.460938 224.203125 264.957031 223.171875 C 273.449219 221.828125 281.527344 218.671875 289.652344 215.625 C 298.613281 212.265625 307.507812 208.652344 316.199219 204.726562 C 334.1875 196.605469 351.691406 187.101562 368.425781 176.570312 C 370.066406 175.539062 371.695312 174.480469 373.320312 173.410156 L 373.417969 169.625 C 342.058594 189.84375 308.828125 206.929688 273.507812 218.042969 C 266.367188 220.289062 259.273438 221.808594 252.378906 219.136719 C 247.351562 217.191406 245.363281 212.460938 243.804688 207.441406 C 244.5 208.855469 245.378906 210.167969 246.5625 211.324219 C 251.460938 216.09375 258.9375 217.003906 265.335938 215.992188 C 273.820312 214.648438 281.910156 211.453125 290.03125 208.40625 C 298.988281 205.050781 307.875 201.4375 316.558594 197.519531 C 334.542969 189.398438 351.945312 179.882812 368.664062 169.320312 C 370.28125 168.296875 371.894531 167.265625 373.503906 166.226562 L 373.59375 162.785156 C 342.378906 182.976562 309.082031 199.933594 273.929688 210.988281 C 266.757812 213.242188 259.742188 214.730469 252.742188 212.078125 C 247.25 210 245.484375 204.617188 244.011719 199.144531 C 244.722656 200.96875 245.679688 202.664062 247.097656 204.109375 C 251.847656 208.949219 259.421875 209.769531 265.714844 208.773438 C 274.203125 207.429688 282.289062 204.234375 290.410156 201.191406 C 299.359375 197.835938 308.242188 194.226562 316.917969 190.308594 C 334.914062 182.183594 352.402344 172.617188 369.132812 162.148438 C 370.652344 161.195312 372.171875 160.222656 373.683594 159.242188 L 373.765625 156.039062 C 342.886719 176.328125 309.191406 192.976562 274.347656 203.933594 C 267.164062 206.195312 260.125 207.683594 253.113281 205.019531 C 247.683594 202.957031 246.109375 197.328125 244.71875 191.855469 C 245.40625 193.695312 246.332031 195.40625 247.707031 196.882812 C 252.304688 201.800781 259.898438 202.539062 266.097656 201.558594 C 274.582031 200.214844 282.671875 197.019531 290.792969 193.972656 C 299.734375 190.621094 308.609375 187.015625 317.277344 183.101562 C 335.269531 174.976562 353.128906 165.683594 369.769531 155.035156 C 371.140625 154.15625 372.503906 153.257812 373.863281 152.351562 L 373.941406 149.316406 C 343.414062 169.773438 309.351562 186.011719 274.769531 196.878906 C 267.566406 199.144531 260.457031 200.652344 253.480469 197.957031 C 247.929688 195.816406 246.53125 189.691406 245.058594 184 C 245.855469 186.101562 246.871094 188.042969 248.3125 189.652344 C 252.777344 194.640625 260.347656 195.308594 266.476562 194.339844 C 274.964844 192.996094 283.050781 189.800781 291.171875 186.757812 C 300.109375 183.40625 308.976562 179.804688 317.640625 175.890625 C 335.789062 167.695312 353.953125 159.085938 370.453125 147.9375 C 371.652344 147.125 372.847656 146.300781 374.039062 145.472656 L 374.117188 142.550781 C 343.726562 163.238281 309.878906 178.925781 275.191406 189.828125 C 267.96875 192.097656 260.792969 193.621094 253.847656 190.898438 Z M 280.410156 162.824219 C 273.511719 164.378906 264.863281 166.539062 258.046875 163.601562 C 251.53125 160.792969 259.792969 151.800781 260.390625 147.953125 C 261.445312 141.15625 248.003906 140.59375 243.867188 140.472656 C 234.238281 140.199219 224.140625 141.367188 214.632812 143.523438 C 203.652344 146.011719 192.640625 152.921875 181.539062 153.167969 C 173.28125 153.355469 164.753906 150.25 156.769531 147.757812 C 143.675781 143.679688 130.324219 137.980469 116.878906 136.207031 C 107.769531 135.007812 99.378906 136.292969 90.5 139.015625 C 80.253906 142.15625 69.886719 145.199219 59.476562 147.597656 C 46.839844 150.511719 33.738281 152.867188 20.914062 153.074219 C 10.746094 153.238281 -1.089844 152.058594 -9.667969 145.738281 C -15.722656 141.28125 -21.066406 136.75 -28.15625 134.371094 C -35.96875 131.746094 -44.785156 131.367188 -53.097656 131.453125 C -62.375 131.546875 -71.796875 132.425781 -81.136719 133.191406 C -91.453125 134.039062 -101.769531 134.949219 -112.078125 135.882812 C -114.453125 136.097656 -116.824219 136.308594 -119.199219 136.519531 L -119.242188 138.171875 C -101.53125 136.523438 -83.792969 134.753906 -66.105469 133.511719 C -57.25 132.890625 -48.203125 132.480469 -39.558594 133.546875 C -31.621094 134.523438 -23.421875 136.886719 -16.992188 142.113281 C -10.105469 147.710938 -3.441406 151.699219 5.238281 153.480469 C 16.730469 155.839844 29.40625 154.421875 41.023438 152.644531 C 53.132812 150.792969 65.296875 147.984375 77.125 144.621094 C 86.386719 141.988281 95.566406 138.539062 105.085938 137.171875 C 111.265625 136.28125 117.625 137.125 123.652344 138.402344 C 131.195312 140 138.710938 142.699219 146.101562 145.167969 C 155.285156 148.234375 164.8125 152.066406 174.230469 153.710938 C 185.613281 155.695312 193.066406 152.046875 203.503906 148.097656 C 211.824219 144.949219 220.851562 143.417969 229.703125 142.410156 C 236.875 141.59375 253.132812 139.191406 257.695312 145.789062 C 261.066406 150.667969 251.839844 156.738281 253.804688 162.136719 C 255.660156 167.230469 265.554688 166.46875 269.675781 166.046875 C 279.007812 165.09375 288.550781 162.234375 297.800781 159.644531 C 307.621094 156.894531 317.460938 153.746094 326.71875 149.679688 C 335.222656 145.945312 343.425781 141.3125 350.996094 135.710938 C 357.914062 130.585938 364.121094 124.769531 372.101562 121.550781 C 372.953125 121.207031 373.816406 120.886719 374.683594 120.582031 L 374.703125 119.859375 C 361.488281 124.660156 351.914062 134.398438 339.511719 141.820312 C 321.441406 152.636719 300.65625 158.269531 280.410156 162.824219 Z M 340.035156 117.425781 C 333.746094 120.363281 328.324219 124.753906 322.785156 128.859375 C 315.683594 134.117188 307.96875 137.953125 299.75 140.679688 C 293.777344 142.660156 285.542969 145.070312 279.433594 142.214844 C 276.042969 140.628906 275.265625 137.238281 274.035156 133.988281 C 272.183594 129.113281 269.367188 124.695312 265.949219 121.101562 C 259.617188 114.441406 250.214844 110.238281 240.585938 110.746094 C 231.503906 111.222656 223.097656 114.101562 214.625 117.480469 C 196.601562 124.667969 177.527344 132.429688 157.769531 132.5 C 147.59375 132.535156 136.992188 130.722656 127.863281 126.867188 C 119.703125 123.417969 115.039062 113.1875 106.289062 111.085938 C 97.667969 109.015625 89.363281 111.535156 81.097656 114.699219 C 72.117188 118.136719 63.140625 122.324219 54.066406 125.363281 C 44.878906 128.445312 35.070312 130.558594 25.511719 130.597656 C 16.238281 130.632812 7.59375 128.144531 -0.0273438 122.246094 C -7.273438 116.636719 -14.742188 110.679688 -23.136719 107.664062 C -31.363281 104.710938 -40.46875 103.914062 -49.386719 103.96875 C -58.902344 104.027344 -68.605469 104.9375 -78.191406 105.613281 C -88.84375 106.363281 -99.53125 107.082031 -110.1875 107.867188 C -112.949219 108.070312 -115.710938 108.28125 -118.476562 108.496094 L -118.5 109.5 C -99.804688 108.035156 -81.066406 106.730469 -62.394531 105.550781 C -53.191406 104.972656 -43.933594 104.660156 -34.886719 105.898438 C -25.355469 107.203125 -16.070312 111.179688 -8.324219 117.109375 C -1.679688 122.195312 5.09375 128.5625 13.46875 130.257812 C 22.394531 132.070312 31.5625 131.550781 40.417969 129.886719 C 49.527344 128.175781 58.445312 125.039062 67.105469 121.453125 C 76.144531 117.710938 85.347656 113.167969 94.726562 111.683594 C 99.953125 110.859375 105.074219 111.226562 109.691406 113.574219 C 113.851562 115.691406 116.679688 120.160156 120.367188 123.179688 C 127.449219 128.984375 137.847656 131.304688 146.875 132.449219 C 165.097656 134.761719 182.074219 130.632812 199.191406 124.699219 C 209.113281 121.257812 218.925781 116.660156 229.046875 113.832031 C 240.03125 110.765625 251.175781 110.972656 260.316406 117.359375 C 264.71875 120.433594 268.445312 124.71875 271.042969 129.785156 C 272.761719 133.132812 273.167969 137.203125 275.300781 140.296875 C 278.511719 144.960938 285.625 144.390625 290.25 143.730469 C 298.265625 142.585938 306.328125 139.585938 313.644531 135.699219 C 320.203125 132.21875 325.90625 127.363281 331.992188 123.171875 C 344.382812 114.632812 358.0625 113.992188 372.109375 110.726562 C 373.070312 110.503906 374.015625 110.25 374.957031 109.96875 L 374.984375 108.835938 C 363.515625 112.371094 351.160156 112.222656 340.035156 117.425781 Z M 321.476562 136.289062 C 313.371094 140.90625 304.480469 144.089844 295.644531 146.46875 C 289.503906 148.121094 280.636719 150.632812 274.605469 147.738281 C 271.699219 146.34375 271.808594 143.3125 271.742188 140.449219 C 271.632812 135.960938 271.015625 132.707031 268.535156 129.199219 C 263.5 122.082031 252.96875 118.910156 244.230469 119.1875 C 234.5 119.496094 225.210938 122.167969 215.910156 125.136719 C 199.132812 130.496094 181.28125 137.886719 163.378906 137.761719 C 153.097656 137.691406 142.476562 135.660156 133.003906 132.59375 C 127.632812 130.859375 122.363281 128.320312 117.507812 125.117188 C 113.773438 122.652344 110.234375 119.179688 105.90625 118.148438 C 97.3125 116.109375 88.964844 118.570312 80.734375 121.765625 C 72.191406 125.082031 63.582031 128.835938 54.816406 131.417969 C 44.988281 134.3125 34.542969 136.226562 24.414062 136.296875 C 15.289062 136.355469 5.90625 134.679688 -1.539062 128.714844 C -8.382812 123.234375 -15.613281 117.828125 -23.707031 114.976562 C -31.957031 112.070312 -41.046875 111.234375 -49.960938 111.253906 C -59.441406 111.273438 -69.105469 112.125 -78.660156 112.757812 C -89.289062 113.460938 -99.953125 114.140625 -110.582031 114.914062 C -113.273438 115.109375 -115.964844 115.316406 -118.65625 115.523438 L -118.6875 116.714844 C -100.101562 115.269531 -81.480469 114.011719 -62.917969 112.929688 C -53.738281 112.394531 -44.398438 112.054688 -35.488281 113.378906 C -25.996094 114.792969 -16.824219 118.484375 -9.070312 124.1875 C -2.429688 129.074219 3.355469 134.300781 11.507812 136.144531 C 20.746094 138.234375 31.121094 137.265625 40.535156 135.703125 C 49.882812 134.148438 59.132812 131.449219 68.066406 128.066406 C 76.765625 124.773438 85.390625 120.34375 94.328125 118.925781 C 99.539062 118.097656 104.578125 118.46875 109.253906 120.777344 C 114.042969 123.140625 118.609375 127 123.601562 129.5 C 132.734375 134.070312 143.585938 136.46875 153.695312 137.757812 C 169.785156 139.808594 183.722656 136.339844 199.191406 131.65625 C 210 128.382812 220.824219 124.585938 231.78125 122.121094 C 242.335938 119.746094 254.953125 118.894531 263.542969 125.820312 C 267.121094 128.707031 269.851562 131.96875 270.285156 136.949219 C 270.550781 139.976562 269.625 143.335938 270.792969 146.089844 C 272.761719 150.75 281.339844 149.789062 285.183594 149.335938 C 293.929688 148.308594 302.773438 145.515625 311.042969 142.152344 C 318.828125 138.988281 325.957031 134.945312 332.710938 129.765625 C 338.414062 125.394531 344.132812 121.074219 350.863281 118.378906 C 357.640625 115.664062 364.917969 114.863281 372.039062 113.800781 C 372.984375 113.660156 373.925781 113.507812 374.871094 113.34375 L 374.886719 112.71875 C 363.347656 115.0625 351.730469 115.785156 341.269531 122.386719 C 334.433594 126.703125 328.523438 132.277344 321.476562 136.289062 Z M 341.070312 135.148438 C 324.550781 147.050781 304.621094 153.035156 285.148438 157.257812 C 278.507812 158.695312 269.570312 161.003906 262.914062 158.089844 C 257.492188 155.714844 265.398438 146.148438 265.007812 142.484375 C 264.253906 135.398438 251.933594 134.371094 246.253906 134.335938 C 235.792969 134.273438 225.210938 135.847656 214.980469 138.171875 C 202.617188 140.976562 189.210938 147.894531 176.355469 147.722656 C 167.152344 147.597656 157.882812 145.027344 149.039062 142.660156 C 136.214844 139.21875 123.484375 132.988281 110.625 130.925781 C 102.078125 129.550781 94.242188 130.976562 85.941406 133.804688 C 76.722656 136.949219 67.386719 139.953125 57.964844 142.214844 C 46.257812 145.019531 34.039062 147.085938 22.117188 147.234375 C 12.351562 147.359375 1.285156 146.28125 -6.769531 140.183594 C -12.867188 135.5625 -18.597656 130.816406 -25.796875 128.429688 C -33.800781 125.777344 -42.753906 125.125 -51.398438 125.136719 C -60.828125 125.144531 -70.417969 125.945312 -79.917969 126.609375 C -90.425781 127.34375 -100.945312 128.125 -111.445312 128.964844 C -113.96875 129.167969 -116.496094 129.375 -119.019531 129.582031 L -119.058594 131.070312 C -100.867188 129.550781 -82.648438 128.042969 -64.484375 126.984375 C -55.429688 126.457031 -46.195312 126.132812 -37.382812 127.328125 C -29.113281 128.445312 -20.574219 131.027344 -13.828125 136.429688 C -7.160156 141.773438 -1.09375 145.914062 7.199219 147.445312 C 18.050781 149.449219 29.917969 148.40625 41.078125 146.75 C 52.054688 145.121094 63.121094 142.601562 73.769531 139.296875 C 82.242188 136.667969 90.589844 133.203125 99.324219 131.796875 C 105.066406 130.871094 110.976562 131.785156 116.53125 133.183594 C 123.722656 134.988281 130.894531 137.851562 138.046875 140.089844 C 148.046875 143.226562 158.488281 146.410156 168.773438 147.980469 C 180.988281 149.847656 190.0625 146.601562 201.65625 142.988281 C 211.363281 139.964844 221.460938 137.902344 231.542969 136.582031 C 240.03125 135.472656 255.4375 132.960938 261.871094 140.054688 C 266.601562 145.269531 257.699219 151.886719 259.050781 156.640625 C 260.347656 161.195312 269.949219 160.542969 273.9375 160.164062 C 283.402344 159.269531 293.078125 156.59375 302.371094 153.867188 C 311.738281 151.117188 321.089844 147.792969 329.683594 143.367188 C 344.300781 135.835938 355.933594 122.589844 372.164062 118.339844 C 373.019531 118.113281 373.882812 117.917969 374.757812 117.734375 L 374.769531 117.21875 C 370.054688 118.109375 365.429688 119.324219 361.011719 121.375 C 353.523438 124.847656 347.6875 130.382812 341.070312 135.148438 Z M 341.648438 128.25 C 325.914062 140.21875 309.605469 147.46875 290.503906 151.898438 C 284.121094 153.378906 275.160156 155.785156 268.769531 152.917969 C 263.914062 150.738281 269.65625 140.621094 268.15625 136.355469 C 265.441406 128.628906 253.253906 127.117188 246.507812 127.160156 C 236.109375 127.226562 225.699219 129.597656 215.566406 132.140625 C 200.976562 135.804688 185.253906 142.9375 169.9375 142.710938 C 160.058594 142.566406 150.019531 140.265625 140.585938 137.730469 C 128.996094 134.621094 117.984375 127.367188 106.582031 124.988281 C 98.292969 123.261719 90.457031 125.140625 82.394531 128.171875 C 73.785156 131.40625 65.097656 134.621094 56.265625 136.925781 C 45.542969 139.726562 34.269531 141.628906 23.285156 141.742188 C 13.957031 141.839844 3.703125 140.613281 -3.921875 134.601562 C -10.292969 129.574219 -16.691406 124.601562 -24.265625 122.027344 C -32.484375 119.234375 -41.570312 118.417969 -50.4375 118.40625 C -59.902344 118.394531 -69.542969 119.1875 -79.085938 119.804688 C -89.691406 120.492188 -100.320312 121.199219 -110.925781 121.988281 C -113.5625 122.183594 -116.199219 122.386719 -118.839844 122.589844 L -118.875 123.929688 C -100.386719 122.488281 -81.867188 121.15625 -63.402344 120.152344 C -54.242188 119.65625 -44.925781 119.371094 -36.015625 120.652344 C -27.304688 121.910156 -18.183594 124.921875 -11.019531 130.550781 C -4.429688 135.730469 1.222656 140.207031 9.355469 141.769531 C 19.398438 143.703125 30.484375 142.785156 40.835938 141.210938 C 50.828125 139.691406 60.910156 137.238281 70.523438 133.894531 C 78.746094 131.035156 86.863281 127.261719 95.335938 125.824219 C 100.765625 124.90625 106.105469 125.730469 111.25 127.4375 C 117.488281 129.507812 123.742188 132.769531 130.023438 135.003906 C 140.050781 138.570312 150.875 141.367188 161.457031 142.800781 C 175.324219 144.675781 186.742188 141.523438 200.09375 137.640625 C 210.886719 134.5 221.832031 131.746094 232.890625 129.847656 C 242.613281 128.179688 256.460938 126.234375 264.425781 133.5 C 270.75 139.261719 263.242188 145.851562 265.039062 151.414062 C 266.488281 155.886719 275.535156 155.09375 279.425781 154.707031 C 288.671875 153.777344 298.089844 151.109375 307.035156 148.125 C 315.683594 145.238281 324.242188 141.617188 331.855469 136.78125 C 338.503906 132.558594 344.527344 126.820312 351.515625 122.808594 C 358.007812 119.082031 364.816406 117.199219 372.097656 116.046875 C 372.996094 115.90625 373.902344 115.769531 374.808594 115.640625 L 374.824219 115.113281 C 369.613281 115.847656 364.40625 116.632812 359.414062 118.277344 C 352.859375 120.441406 347.113281 124.089844 341.648438 128.25 Z M 341.648438 128.25 "/></g></g></g></g></svg>