<svg xmlns="http://www.w3.org/2000/svg" xmlns:xlink="http://www.w3.org/1999/xlink" width="500" zoomAndPan="magnify" viewBox="0 0 375 374.999991" height="500" preserveAspectRatio="xMidYMid meet" version="1.2"><g id="533ad9eabd"><path style=" stroke:none;fill-rule:nonzero;fill:#000000;fill-opacity:1;" d="M 187.5 0 C 83.929688 0 0 83.929688 0 187.5 C 0 291.070312 83.929688 375 187.5 375 C 291.070312 375 375 291.070312 375 187.5 C 374.835938 83.929688 290.910156 0 187.5 0 Z M 288.472656 115.097656 L 251.949219 286.363281 C 250.164062 294.96875 240.097656 298.703125 233.117188 293.507812 L 146.429688 228.894531 L 242.207031 142.371094 C 242.207031 142.371094 248.703125 137.011719 246.914062 135.390625 C 244.96875 133.441406 237.824219 137.664062 234.253906 140.097656 C 230.519531 142.855469 116.882812 214.609375 116.882812 214.609375 L 59.253906 196.753906 C 52.757812 194.804688 52.757812 185.875 62.175781 181.980469 L 273.863281 100.488281 C 283.117188 95.941406 290.421875 106.332031 288.472656 115.097656 Z M 288.472656 115.097656 "/></g></svg>