<svg xmlns="http://www.w3.org/2000/svg" xmlns:xlink="http://www.w3.org/1999/xlink" width="500" zoomAndPan="magnify" viewBox="0 0 375 374.999991" height="500" preserveAspectRatio="xMidYMid meet" version="1.2"><defs><clipPath id="5bd5f9cf23"><path d="M 0.46875 0 L 374.71875 0 L 374.71875 375 L 0.46875 375 Z M 0.46875 0 "/></clipPath></defs><g id="f5ed04b52c"><g clip-rule="nonzero" clip-path="url(#5bd5f9cf23)"><path style=" stroke:none;fill-rule:nonzero;fill:#000000;fill-opacity:1;" d="M 374.714844 187.445312 C 374.714844 190.507812 374.640625 193.566406 374.492188 196.625 C 374.339844 199.683594 374.117188 202.738281 373.816406 205.785156 C 373.515625 208.832031 373.140625 211.871094 372.691406 214.898438 C 372.242188 217.929688 371.71875 220.945312 371.121094 223.949219 C 370.523438 226.953125 369.851562 229.9375 369.105469 232.910156 C 368.363281 235.878906 367.546875 238.832031 366.660156 241.761719 C 365.769531 244.691406 364.808594 247.597656 363.777344 250.480469 C 362.746094 253.367188 361.644531 256.222656 360.472656 259.050781 C 359.300781 261.878906 358.058594 264.679688 356.75 267.449219 C 355.441406 270.214844 354.0625 272.949219 352.621094 275.652344 C 351.175781 278.351562 349.667969 281.015625 348.09375 283.640625 C 346.519531 286.269531 344.882812 288.855469 343.179688 291.402344 C 341.480469 293.949219 339.714844 296.453125 337.890625 298.910156 C 336.066406 301.371094 334.183594 303.785156 332.242188 306.152344 C 330.296875 308.519531 328.300781 310.839844 326.242188 313.105469 C 324.183594 315.375 322.074219 317.59375 319.910156 319.757812 C 317.742188 321.921875 315.527344 324.035156 313.257812 326.089844 C 310.988281 328.148438 308.671875 330.148438 306.304688 332.089844 C 303.9375 334.03125 301.523438 335.917969 299.0625 337.738281 C 296.601562 339.5625 294.097656 341.328125 291.554688 343.027344 C 289.007812 344.730469 286.421875 346.367188 283.792969 347.941406 C 281.167969 349.515625 278.503906 351.023438 275.800781 352.46875 C 273.101562 353.914062 270.367188 355.289062 267.597656 356.597656 C 264.828125 357.90625 262.03125 359.148438 259.203125 360.320312 C 256.371094 361.492188 253.515625 362.597656 250.632812 363.628906 C 247.75 364.660156 244.84375 365.621094 241.914062 366.507812 C 238.980469 367.398438 236.03125 368.214844 233.0625 368.957031 C 230.089844 369.699219 227.101562 370.371094 224.097656 370.96875 C 221.09375 371.566406 218.078125 372.089844 215.050781 372.539062 C 212.023438 372.988281 208.984375 373.363281 205.9375 373.664062 C 202.890625 373.964844 199.835938 374.191406 196.777344 374.339844 C 193.71875 374.488281 190.65625 374.566406 187.59375 374.566406 C 184.53125 374.566406 181.472656 374.488281 178.414062 374.339844 C 175.355469 374.191406 172.300781 373.964844 169.253906 373.664062 C 166.207031 373.363281 163.167969 372.992188 160.136719 372.539062 C 157.109375 372.089844 154.09375 371.566406 151.089844 370.96875 C 148.085938 370.371094 145.097656 369.703125 142.128906 368.957031 C 139.15625 368.214844 136.207031 367.398438 133.277344 366.507812 C 130.34375 365.621094 127.4375 364.660156 124.554688 363.628906 C 121.671875 362.597656 118.816406 361.492188 115.984375 360.320312 C 113.15625 359.148438 110.359375 357.90625 107.589844 356.597656 C 104.820312 355.289062 102.085938 353.914062 99.386719 352.46875 C 96.683594 351.023438 94.019531 349.515625 91.394531 347.941406 C 88.769531 346.367188 86.179688 344.730469 83.636719 343.027344 C 81.089844 341.328125 78.585938 339.5625 76.125 337.738281 C 73.664062 335.917969 71.253906 334.03125 68.886719 332.089844 C 66.519531 330.148438 64.199219 328.148438 61.929688 326.089844 C 59.660156 324.035156 57.445312 321.921875 55.277344 319.757812 C 53.113281 317.59375 51.003906 315.375 48.945312 313.105469 C 46.890625 310.839844 44.890625 308.519531 42.945312 306.152344 C 41.003906 303.785156 39.121094 301.371094 37.296875 298.910156 C 35.472656 296.453125 33.710938 293.949219 32.007812 291.402344 C 30.304688 288.855469 28.667969 286.269531 27.09375 283.644531 C 25.519531 281.015625 24.011719 278.351562 22.566406 275.652344 C 21.125 272.949219 19.746094 270.214844 18.4375 267.445312 C 17.128906 264.679688 15.886719 261.878906 14.714844 259.050781 C 13.542969 256.222656 12.441406 253.367188 11.410156 250.480469 C 10.378906 247.597656 9.417969 244.691406 8.53125 241.761719 C 7.640625 238.832031 6.824219 235.878906 6.082031 232.910156 C 5.335938 229.9375 4.664062 226.953125 4.066406 223.949219 C 3.472656 220.945312 2.949219 217.929688 2.496094 214.902344 C 2.046875 211.871094 1.675781 208.832031 1.375 205.785156 C 1.074219 202.738281 0.847656 199.683594 0.699219 196.625 C 0.546875 193.566406 0.472656 190.507812 0.472656 187.445312 C 0.472656 184.382812 0.546875 181.320312 0.699219 178.261719 C 0.847656 175.203125 1.074219 172.152344 1.375 169.101562 C 1.675781 166.054688 2.046875 163.015625 2.496094 159.988281 C 2.949219 156.957031 3.472656 153.941406 4.066406 150.9375 C 4.664062 147.933594 5.335938 144.945312 6.082031 141.976562 C 6.824219 139.007812 7.640625 136.054688 8.53125 133.125 C 9.417969 130.195312 10.378906 127.289062 11.410156 124.402344 C 12.441406 121.519531 13.542969 118.664062 14.714844 115.832031 C 15.886719 113.003906 17.128906 110.207031 18.4375 107.4375 C 19.746094 104.671875 21.125 101.9375 22.566406 99.234375 C 24.011719 96.535156 25.519531 93.871094 27.09375 91.242188 C 28.667969 88.617188 30.304688 86.03125 32.007812 83.484375 C 33.710938 80.9375 35.472656 78.433594 37.296875 75.976562 C 39.121094 73.515625 41.003906 71.101562 42.945312 68.734375 C 44.890625 66.367188 46.890625 64.050781 48.945312 61.78125 C 51.003906 59.511719 53.113281 57.292969 55.277344 55.128906 C 57.445312 52.960938 59.660156 50.851562 61.929688 48.796875 C 64.199219 46.738281 66.519531 44.738281 68.886719 42.796875 C 71.253906 40.855469 73.664062 38.96875 76.125 37.144531 C 78.585938 35.320312 81.089844 33.558594 83.636719 31.859375 C 86.179688 30.15625 88.765625 28.519531 91.394531 26.945312 C 94.019531 25.371094 96.683594 23.859375 99.386719 22.417969 C 102.085938 20.972656 104.820312 19.597656 107.589844 18.289062 C 110.359375 16.980469 113.15625 15.738281 115.984375 14.566406 C 118.816406 13.394531 121.671875 12.292969 124.554688 11.261719 C 127.4375 10.230469 130.34375 9.269531 133.277344 8.378906 C 136.207031 7.492188 139.15625 6.675781 142.125 5.929688 C 145.097656 5.1875 148.085938 4.515625 151.089844 3.917969 C 154.09375 3.320312 157.109375 2.796875 160.136719 2.347656 C 163.167969 1.898438 166.207031 1.523438 169.253906 1.222656 C 172.300781 0.925781 175.355469 0.699219 178.414062 0.550781 C 181.472656 0.398438 184.53125 0.324219 187.59375 0.324219 C 190.65625 0.324219 193.71875 0.398438 196.777344 0.550781 C 199.835938 0.699219 202.890625 0.925781 205.9375 1.222656 C 208.984375 1.523438 212.023438 1.898438 215.050781 2.347656 C 218.078125 2.796875 221.09375 3.320312 224.097656 3.917969 C 227.101562 4.515625 230.089844 5.1875 233.058594 5.929688 C 236.03125 6.675781 238.980469 7.492188 241.914062 8.378906 C 244.84375 9.269531 247.75 10.230469 250.632812 11.261719 C 253.515625 12.292969 256.371094 13.394531 259.203125 14.566406 C 262.03125 15.738281 264.828125 16.980469 267.597656 18.289062 C 270.367188 19.597656 273.101562 20.972656 275.800781 22.417969 C 278.503906 23.859375 281.167969 25.371094 283.792969 26.945312 C 286.421875 28.519531 289.007812 30.15625 291.554688 31.859375 C 294.097656 33.558594 296.601562 35.320312 299.0625 37.144531 C 301.523438 38.96875 303.933594 40.855469 306.300781 42.796875 C 308.671875 44.738281 310.988281 46.738281 313.257812 48.796875 C 315.527344 50.851562 317.742188 52.960938 319.910156 55.128906 C 322.074219 57.292969 324.183594 59.511719 326.242188 61.78125 C 328.296875 64.050781 330.296875 66.367188 332.242188 68.734375 C 334.183594 71.101562 336.066406 73.515625 337.890625 75.976562 C 339.714844 78.433594 341.476562 80.9375 343.179688 83.484375 C 344.882812 86.03125 346.519531 88.617188 348.09375 91.242188 C 349.667969 93.871094 351.175781 96.535156 352.621094 99.234375 C 354.0625 101.933594 355.441406 104.667969 356.75 107.4375 C 358.058594 110.207031 359.300781 113.003906 360.472656 115.832031 C 361.644531 118.664062 362.746094 121.519531 363.777344 124.402344 C 364.808594 127.289062 365.769531 130.195312 366.660156 133.125 C 367.546875 136.054688 368.363281 139.003906 369.105469 141.976562 C 369.851562 144.945312 370.523438 147.933594 371.121094 150.9375 C 371.71875 153.941406 372.242188 156.957031 372.691406 159.984375 C 373.140625 163.015625 373.515625 166.054688 373.816406 169.101562 C 374.117188 172.148438 374.339844 175.203125 374.492188 178.261719 C 374.640625 181.320312 374.714844 184.382812 374.714844 187.445312 Z M 374.714844 187.445312 "/></g><path style="fill-rule:evenodd;fill:#ffffff;fill-opacity:1;stroke-width:2.14;stroke-linecap:round;stroke-linejoin:round;stroke:#ffffff;stroke-opacity:1;stroke-miterlimit:1.5;" d="M 30640.398801 9422.349327 L 30685.698526 9422.030599 L 30795.699141 9582.119671 L 30750.00033 9581.720385 Z M 30640.398801 9422.349327 " transform="matrix(1.115832,0,0,1.115273,-34088.637757,-10412.152836)"/><path style="fill-rule:evenodd;fill:#ffffff;fill-opacity:1;stroke-width:2.14;stroke-linecap:round;stroke-linejoin:round;stroke:#ffffff;stroke-opacity:1;stroke-miterlimit:1.5;" d="M 30776.802084 9422.030599 L 30790.89961 9422.030599 L 30653.999221 9582.119671 L 30640.398801 9582.119671 Z M 30776.802084 9422.030599 " transform="matrix(1.115832,0,0,1.115273,-34088.637757,-10412.152836)"/><path style=" stroke:none;fill-rule:evenodd;fill:#000000;fill-opacity:1;" d="M 121.757812 109.84375 L 145.191406 109.976562 L 253.535156 265.046875 L 230.105469 265.011719 Z M 121.757812 109.84375 "/><path style=" stroke:none;fill-rule:evenodd;fill:#000000;fill-opacity:1;" d="M 121.757812 109.84375 L 145.191406 109.976562 L 253.535156 265.046875 L 230.105469 265.011719 Z M 123.542969 110.792969 C 123.542969 110.792969 230.550781 264.074219 230.550781 264.074219 C 230.550781 264.074219 251.753906 264.109375 251.753906 264.109375 L 144.632812 110.914062 Z M 123.542969 110.792969 "/></g></svg>