<svg xmlns="http://www.w3.org/2000/svg" xmlns:xlink="http://www.w3.org/1999/xlink" width="500" zoomAndPan="magnify" viewBox="0 0 375 374.999991" height="500" preserveAspectRatio="xMidYMid meet" version="1.2"><defs><clipPath id="e8fafa876e"><path d="M 187.5 0 C 83.945312 0 0 83.945312 0 187.5 C 0 291.054688 83.945312 375 187.5 375 C 291.054688 375 375 291.054688 375 187.5 C 375 83.945312 291.054688 0 187.5 0 Z M 187.5 0 "/></clipPath><clipPath id="c869f091c9"><path d="M 196 82 L 307 82 L 307 293.382812 L 196 293.382812 Z M 196 82 "/></clipPath><clipPath id="1912bcb18b"><path d="M 68 82 L 174 82 L 174 293.382812 L 68 293.382812 Z M 68 82 "/></clipPath></defs><g id="e793338e3d"><g clip-rule="nonzero" clip-path="url(#e8fafa876e)"><rect x="0" width="375" y="0" height="374.999991" style="fill:#000000;fill-opacity:1;stroke:none;"/></g><path style=" stroke:none;fill-rule:nonzero;fill:#ffffff;fill-opacity:1;" d="M 173.457031 187.789062 C 173.457031 188.554688 173.417969 189.320312 173.34375 190.082031 C 173.265625 190.847656 173.15625 191.605469 173.003906 192.355469 C 172.855469 193.105469 172.667969 193.851562 172.449219 194.582031 C 172.226562 195.316406 171.96875 196.039062 171.671875 196.746094 C 171.378906 197.453125 171.054688 198.144531 170.691406 198.824219 C 170.332031 199.5 169.9375 200.15625 169.511719 200.792969 C 169.085938 201.429688 168.628906 202.042969 168.140625 202.636719 C 167.65625 203.230469 167.140625 203.796875 166.601562 204.339844 C 166.058594 204.882812 165.492188 205.394531 164.898438 205.882812 C 164.304688 206.367188 163.691406 206.824219 163.054688 207.25 C 162.414062 207.675781 161.757812 208.070312 161.082031 208.429688 C 160.40625 208.792969 159.714844 209.121094 159.007812 209.414062 C 158.296875 209.707031 157.578125 209.964844 156.84375 210.1875 C 156.109375 210.410156 155.367188 210.59375 154.617188 210.746094 C 153.863281 210.894531 153.105469 211.007812 152.34375 211.082031 C 151.582031 211.15625 150.816406 211.195312 150.050781 211.195312 C 149.285156 211.195312 148.519531 211.15625 147.757812 211.082031 C 146.992188 211.007812 146.234375 210.894531 145.484375 210.746094 C 144.730469 210.59375 143.988281 210.410156 143.257812 210.1875 C 142.523438 209.964844 141.800781 209.707031 141.09375 209.414062 C 140.386719 209.121094 139.691406 208.792969 139.015625 208.429688 C 138.339844 208.070312 137.683594 207.675781 137.046875 207.25 C 136.410156 206.824219 135.792969 206.367188 135.203125 205.882812 C 134.609375 205.394531 134.042969 204.882812 133.5 204.339844 C 132.957031 203.796875 132.445312 203.230469 131.957031 202.636719 C 131.472656 202.042969 131.015625 201.429688 130.589844 200.792969 C 130.164062 200.15625 129.769531 199.5 129.410156 198.824219 C 129.046875 198.144531 128.71875 197.453125 128.425781 196.746094 C 128.132812 196.039062 127.875 195.316406 127.652344 194.582031 C 127.429688 193.851562 127.246094 193.105469 127.09375 192.355469 C 126.945312 191.605469 126.832031 190.847656 126.757812 190.082031 C 126.683594 189.320312 126.644531 188.554688 126.644531 187.789062 C 126.644531 187.023438 126.683594 186.257812 126.757812 185.496094 C 126.832031 184.730469 126.945312 183.976562 127.09375 183.222656 C 127.246094 182.472656 127.429688 181.730469 127.652344 180.996094 C 127.875 180.261719 128.132812 179.539062 128.425781 178.832031 C 128.71875 178.125 129.046875 177.433594 129.410156 176.757812 C 129.769531 176.082031 130.164062 175.421875 130.589844 174.785156 C 131.015625 174.148438 131.472656 173.535156 131.957031 172.941406 C 132.445312 172.347656 132.957031 171.78125 133.5 171.238281 C 134.042969 170.699219 134.609375 170.183594 135.203125 169.695312 C 135.792969 169.210938 136.410156 168.753906 137.046875 168.328125 C 137.683594 167.902344 138.339844 167.507812 139.015625 167.148438 C 139.691406 166.785156 140.386719 166.460938 141.09375 166.164062 C 141.800781 165.871094 142.523438 165.613281 143.257812 165.390625 C 143.988281 165.167969 144.730469 164.984375 145.484375 164.832031 C 146.234375 164.683594 146.992188 164.570312 147.757812 164.496094 C 148.519531 164.421875 149.285156 164.382812 150.050781 164.382812 C 150.816406 164.382812 151.582031 164.421875 152.34375 164.496094 C 153.105469 164.570312 153.863281 164.683594 154.617188 164.832031 C 155.367188 164.984375 156.109375 165.167969 156.84375 165.390625 C 157.578125 165.613281 158.296875 165.871094 159.007812 166.164062 C 159.714844 166.460938 160.40625 166.785156 161.082031 167.148438 C 161.757812 167.507812 162.414062 167.902344 163.054688 168.328125 C 163.691406 168.753906 164.304688 169.210938 164.898438 169.695312 C 165.492188 170.183594 166.058594 170.699219 166.601562 171.238281 C 167.140625 171.78125 167.65625 172.347656 168.140625 172.941406 C 168.628906 173.535156 169.085938 174.148438 169.511719 174.785156 C 169.9375 175.421875 170.332031 176.082031 170.691406 176.757812 C 171.054688 177.433594 171.378906 178.125 171.671875 178.832031 C 171.96875 179.539062 172.226562 180.261719 172.449219 180.996094 C 172.667969 181.730469 172.855469 182.472656 173.003906 183.222656 C 173.15625 183.976562 173.265625 184.730469 173.34375 185.496094 C 173.417969 186.257812 173.457031 187.023438 173.457031 187.789062 Z M 173.457031 187.789062 "/><path style=" stroke:none;fill-rule:nonzero;fill:#ffffff;fill-opacity:1;" d="M 243.671875 187.789062 C 243.671875 188.554688 243.632812 189.320312 243.558594 190.082031 C 243.480469 190.847656 243.371094 191.605469 243.21875 192.355469 C 243.070312 193.105469 242.886719 193.851562 242.664062 194.582031 C 242.441406 195.316406 242.183594 196.039062 241.886719 196.746094 C 241.59375 197.453125 241.269531 198.144531 240.90625 198.824219 C 240.546875 199.5 240.152344 200.15625 239.726562 200.792969 C 239.300781 201.429688 238.84375 202.042969 238.359375 202.636719 C 237.871094 203.230469 237.355469 203.796875 236.816406 204.339844 C 236.273438 204.882812 235.707031 205.394531 235.113281 205.882812 C 234.519531 206.367188 233.90625 206.824219 233.269531 207.25 C 232.632812 207.675781 231.972656 208.070312 231.296875 208.429688 C 230.621094 208.792969 229.929688 209.121094 229.222656 209.414062 C 228.515625 209.707031 227.792969 209.964844 227.058594 210.1875 C 226.324219 210.410156 225.582031 210.59375 224.832031 210.746094 C 224.078125 210.894531 223.320312 211.007812 222.558594 211.082031 C 221.796875 211.15625 221.03125 211.195312 220.265625 211.195312 C 219.5 211.195312 218.734375 211.15625 217.972656 211.082031 C 217.207031 211.007812 216.449219 210.894531 215.699219 210.746094 C 214.949219 210.59375 214.203125 210.410156 213.472656 210.1875 C 212.738281 209.964844 212.015625 209.707031 211.308594 209.414062 C 210.601562 209.121094 209.90625 208.792969 209.230469 208.429688 C 208.554688 208.070312 207.898438 207.675781 207.261719 207.25 C 206.625 206.824219 206.007812 206.367188 205.417969 205.882812 C 204.824219 205.394531 204.257812 204.882812 203.714844 204.339844 C 203.171875 203.796875 202.660156 203.230469 202.171875 202.636719 C 201.6875 202.042969 201.230469 201.429688 200.804688 200.792969 C 200.378906 200.15625 199.984375 199.5 199.625 198.824219 C 199.261719 198.144531 198.933594 197.453125 198.640625 196.746094 C 198.347656 196.039062 198.089844 195.316406 197.867188 194.582031 C 197.644531 193.851562 197.460938 193.105469 197.308594 192.355469 C 197.160156 191.605469 197.046875 190.847656 196.972656 190.082031 C 196.898438 189.320312 196.859375 188.554688 196.859375 187.789062 C 196.859375 187.023438 196.898438 186.257812 196.972656 185.496094 C 197.046875 184.730469 197.160156 183.976562 197.308594 183.222656 C 197.460938 182.472656 197.644531 181.730469 197.867188 180.996094 C 198.089844 180.261719 198.347656 179.539062 198.640625 178.832031 C 198.933594 178.125 199.261719 177.433594 199.625 176.757812 C 199.984375 176.082031 200.378906 175.421875 200.804688 174.785156 C 201.230469 174.148438 201.6875 173.535156 202.171875 172.941406 C 202.660156 172.347656 203.171875 171.78125 203.714844 171.238281 C 204.257812 170.699219 204.824219 170.183594 205.417969 169.695312 C 206.007812 169.210938 206.625 168.753906 207.261719 168.328125 C 207.898438 167.902344 208.554688 167.507812 209.230469 167.148438 C 209.90625 166.785156 210.601562 166.460938 211.308594 166.164062 C 212.015625 165.871094 212.738281 165.613281 213.472656 165.390625 C 214.203125 165.167969 214.949219 164.984375 215.699219 164.832031 C 216.449219 164.683594 217.207031 164.570312 217.972656 164.496094 C 218.734375 164.421875 219.5 164.382812 220.265625 164.382812 C 221.03125 164.382812 221.796875 164.421875 222.558594 164.496094 C 223.320312 164.570312 224.078125 164.683594 224.832031 164.832031 C 225.582031 164.984375 226.324219 165.167969 227.058594 165.390625 C 227.792969 165.613281 228.515625 165.871094 229.222656 166.164062 C 229.929688 166.460938 230.621094 166.785156 231.296875 167.148438 C 231.972656 167.507812 232.632812 167.902344 233.269531 168.328125 C 233.90625 168.753906 234.519531 169.210938 235.113281 169.695312 C 235.707031 170.183594 236.273438 170.699219 236.816406 171.238281 C 237.355469 171.78125 237.871094 172.347656 238.359375 172.941406 C 238.84375 173.535156 239.300781 174.148438 239.726562 174.785156 C 240.152344 175.421875 240.546875 176.082031 240.90625 176.757812 C 241.269531 177.433594 241.59375 178.125 241.886719 178.832031 C 242.183594 179.539062 242.441406 180.261719 242.664062 180.996094 C 242.886719 181.730469 243.070312 182.472656 243.21875 183.222656 C 243.371094 183.976562 243.480469 184.730469 243.558594 185.496094 C 243.632812 186.257812 243.671875 187.023438 243.671875 187.789062 Z M 243.671875 187.789062 "/><path style=" stroke:none;fill-rule:nonzero;fill:#ffffff;fill-opacity:1;" d="M 237.820312 146.832031 C 236.726562 146.832031 235.652344 146.683594 234.601562 146.378906 C 195.777344 135.261719 174.527344 135.261719 135.714844 146.378906 C 134.976562 146.589844 134.222656 146.726562 133.457031 146.792969 C 132.691406 146.855469 131.925781 146.84375 131.164062 146.753906 C 130.398438 146.667969 129.652344 146.507812 128.921875 146.273438 C 128.1875 146.035156 127.488281 145.734375 126.816406 145.359375 C 126.144531 144.988281 125.515625 144.550781 124.929688 144.054688 C 124.34375 143.558594 123.808594 143.007812 123.332031 142.40625 C 122.855469 141.804688 122.441406 141.164062 122.089844 140.480469 C 121.738281 139.796875 121.457031 139.085938 121.246094 138.347656 C 121.03125 137.605469 120.894531 136.855469 120.832031 136.089844 C 120.769531 135.324219 120.78125 134.558594 120.871094 133.796875 C 120.957031 133.03125 121.117188 132.285156 121.351562 131.550781 C 121.585938 130.820312 121.890625 130.117188 122.265625 129.445312 C 122.636719 128.773438 123.074219 128.144531 123.570312 127.558594 C 124.066406 126.972656 124.617188 126.441406 125.21875 125.964844 C 125.820312 125.484375 126.460938 125.070312 127.144531 124.71875 C 127.828125 124.367188 128.539062 124.085938 129.277344 123.875 C 172.097656 111.636719 198.207031 111.636719 241.039062 123.875 C 241.710938 124.066406 242.359375 124.320312 242.988281 124.628906 C 243.617188 124.9375 244.210938 125.300781 244.773438 125.714844 C 245.339844 126.132812 245.859375 126.59375 246.339844 127.105469 C 246.820312 127.613281 247.25 128.160156 247.632812 128.75 C 248.011719 129.335938 248.339844 129.953125 248.609375 130.597656 C 248.882812 131.242188 249.09375 131.90625 249.246094 132.589844 C 249.398438 133.273438 249.488281 133.964844 249.515625 134.664062 C 249.542969 135.363281 249.507812 136.058594 249.410156 136.753906 C 249.3125 137.445312 249.15625 138.125 248.9375 138.789062 C 248.71875 139.453125 248.441406 140.09375 248.105469 140.710938 C 247.773438 141.324219 247.386719 141.90625 246.949219 142.453125 C 246.511719 142.996094 246.027344 143.5 245.5 143.960938 C 244.972656 144.417969 244.40625 144.828125 243.804688 145.183594 C 243.203125 145.542969 242.574219 145.84375 241.917969 146.089844 C 241.261719 146.335938 240.589844 146.519531 239.902344 146.644531 C 239.214844 146.769531 238.519531 146.832031 237.820312 146.832031 Z M 237.820312 146.832031 "/><path style=" stroke:none;fill-rule:nonzero;fill:#ffffff;fill-opacity:1;" d="M 185.15625 260.976562 C 164.144531 260.808594 143.570312 257.714844 123.433594 251.703125 C 122.695312 251.492188 121.984375 251.210938 121.300781 250.859375 C 120.617188 250.507812 119.972656 250.09375 119.371094 249.613281 C 118.769531 249.136719 118.222656 248.605469 117.722656 248.019531 C 117.226562 247.433594 116.792969 246.804688 116.417969 246.132812 C 116.046875 245.460938 115.742188 244.757812 115.507812 244.027344 C 115.273438 243.292969 115.113281 242.546875 115.023438 241.785156 C 114.9375 241.019531 114.925781 240.253906 114.988281 239.488281 C 115.050781 238.722656 115.1875 237.972656 115.398438 237.230469 C 115.609375 236.492188 115.890625 235.78125 116.242188 235.097656 C 116.59375 234.414062 117.007812 233.773438 117.488281 233.171875 C 117.964844 232.570312 118.496094 232.019531 119.082031 231.523438 C 119.667969 231.027344 120.296875 230.589844 120.96875 230.21875 C 121.640625 229.84375 122.34375 229.542969 123.074219 229.308594 C 123.808594 229.070312 124.554688 228.910156 125.316406 228.824219 C 126.082031 228.734375 126.847656 228.722656 127.613281 228.785156 C 128.378906 228.851562 129.128906 228.988281 129.867188 229.199219 C 138.828125 231.953125 147.9375 234.023438 157.207031 235.417969 C 166.472656 236.808594 175.792969 237.503906 185.164062 237.503906 C 194.535156 237.503906 203.855469 236.808594 213.121094 235.417969 C 222.386719 234.023438 231.5 231.953125 240.457031 229.199219 C 241.195312 228.988281 241.949219 228.851562 242.714844 228.789062 C 243.480469 228.726562 244.246094 228.738281 245.007812 228.824219 C 245.769531 228.914062 246.519531 229.074219 247.25 229.308594 C 247.980469 229.542969 248.683594 229.847656 249.355469 230.222656 C 250.027344 230.59375 250.65625 231.027344 251.242188 231.527344 C 251.828125 232.023438 252.359375 232.570312 252.835938 233.171875 C 253.316406 233.773438 253.730469 234.417969 254.082031 235.101562 C 254.433594 235.785156 254.714844 236.496094 254.925781 237.234375 C 255.136719 237.972656 255.273438 238.722656 255.335938 239.488281 C 255.398438 240.253906 255.386719 241.019531 255.300781 241.785156 C 255.210938 242.546875 255.050781 243.292969 254.816406 244.027344 C 254.582031 244.757812 254.277344 245.457031 253.90625 246.128906 C 253.53125 246.800781 253.097656 247.429688 252.601562 248.015625 C 252.105469 248.605469 251.554688 249.136719 250.953125 249.613281 C 250.351562 250.089844 249.710938 250.507812 249.027344 250.859375 C 248.34375 251.210938 247.632812 251.492188 246.894531 251.703125 C 226.753906 257.71875 206.175781 260.808594 185.15625 260.976562 Z M 185.15625 260.976562 "/><g clip-rule="nonzero" clip-path="url(#c869f091c9)"><path style=" stroke:none;fill-rule:nonzero;fill:#ffffff;fill-opacity:1;" d="M 249.523438 293.113281 C 234.449219 293.113281 214.414062 260.996094 214.414062 246.300781 C 214.414062 245.535156 214.488281 244.773438 214.640625 244.019531 C 214.789062 243.265625 215.011719 242.535156 215.304688 241.824219 C 215.597656 241.113281 215.960938 240.4375 216.386719 239.800781 C 216.8125 239.160156 217.296875 238.570312 217.839844 238.027344 C 218.386719 237.484375 218.976562 237 219.613281 236.570312 C 220.253906 236.144531 220.929688 235.785156 221.636719 235.488281 C 222.347656 235.195312 223.078125 234.972656 223.832031 234.824219 C 224.585938 234.675781 225.347656 234.597656 226.117188 234.597656 C 226.886719 234.597656 227.644531 234.675781 228.398438 234.824219 C 229.152344 234.972656 229.886719 235.195312 230.59375 235.488281 C 231.304688 235.785156 231.980469 236.144531 232.617188 236.570312 C 233.257812 237 233.847656 237.484375 234.390625 238.027344 C 234.933594 238.570312 235.417969 239.160156 235.847656 239.800781 C 236.273438 240.4375 236.632812 241.113281 236.929688 241.824219 C 237.222656 242.535156 237.445312 243.265625 237.59375 244.019531 C 237.742188 244.773438 237.820312 245.535156 237.820312 246.300781 C 237.820312 251.183594 246.660156 264.9375 251.804688 269.496094 C 261.792969 267.695312 273.132812 254.597656 279.785156 241.527344 C 286.3125 224.355469 283.804688 179.253906 263.171875 119.300781 C 257.761719 116.039062 252.074219 113.367188 246.109375 111.285156 C 240.144531 109.199219 234.03125 107.75 227.765625 106.929688 L 219.429688 127.773438 C 219.144531 128.488281 218.789062 129.164062 218.371094 129.808594 C 217.953125 130.453125 217.472656 131.050781 216.9375 131.601562 C 216.402344 132.148438 215.816406 132.640625 215.183594 133.078125 C 214.546875 133.511719 213.878906 133.878906 213.171875 134.183594 C 212.464844 134.484375 211.738281 134.714844 210.984375 134.875 C 210.234375 135.035156 209.472656 135.117188 208.703125 135.128906 C 207.9375 135.136719 207.175781 135.070312 206.417969 134.929688 C 205.664062 134.789062 204.929688 134.578125 204.214844 134.292969 C 203.5 134.003906 202.824219 133.652344 202.179688 133.234375 C 201.535156 132.816406 200.9375 132.335938 200.386719 131.800781 C 199.839844 131.261719 199.347656 130.679688 198.910156 130.042969 C 198.476562 129.410156 198.109375 128.742188 197.804688 128.035156 C 197.503906 127.328125 197.273438 126.597656 197.113281 125.847656 C 196.953125 125.09375 196.871094 124.335938 196.859375 123.566406 C 196.851562 122.796875 196.917969 122.035156 197.058594 121.28125 C 197.199219 120.527344 197.410156 119.792969 197.695312 119.078125 L 209.398438 89.820312 C 209.632812 89.234375 209.914062 88.667969 210.242188 88.125 C 210.570312 87.582031 210.9375 87.070312 211.347656 86.585938 C 211.757812 86.105469 212.207031 85.660156 212.6875 85.25 C 213.171875 84.839844 213.683594 84.46875 214.226562 84.140625 C 214.769531 83.816406 215.335938 83.535156 215.925781 83.300781 C 216.511719 83.066406 217.117188 82.878906 217.734375 82.742188 C 218.355469 82.605469 218.980469 82.519531 219.613281 82.484375 C 220.246094 82.449219 220.875 82.464844 221.503906 82.53125 C 226.671875 82.867188 231.792969 83.535156 236.867188 84.539062 C 241.945312 85.542969 246.9375 86.871094 251.839844 88.523438 C 256.746094 90.179688 261.523438 92.144531 266.171875 94.417969 C 270.820312 96.695312 275.300781 99.261719 279.613281 102.121094 C 281.679688 103.554688 283.128906 105.457031 283.960938 107.824219 C 305.179688 167.949219 312 224.007812 301.347656 250.648438 C 301.222656 250.949219 301.089844 251.234375 300.949219 251.539062 C 290.890625 271.636719 272.09375 293.113281 249.523438 293.113281 Z M 253.132812 270.515625 Z M 253.132812 270.515625 "/></g><g clip-rule="nonzero" clip-path="url(#1912bcb18b)"><path style=" stroke:none;fill-rule:nonzero;fill:#ffffff;fill-opacity:1;" d="M 122.761719 293.113281 C 100.898438 293.113281 82.8125 271.53125 73.1875 251.332031 C 73.054688 251.054688 72.929688 250.75 72.820312 250.46875 C 62.707031 223.933594 69.210938 168.011719 89.371094 107.996094 C 90.160156 105.648438 91.554688 103.742188 93.554688 102.277344 C 97.601562 99.414062 101.820312 96.835938 106.214844 94.550781 C 110.613281 92.261719 115.144531 90.28125 119.808594 88.613281 C 124.476562 86.945312 129.234375 85.601562 134.085938 84.585938 C 138.933594 83.566406 143.832031 82.886719 148.773438 82.535156 C 149.40625 82.46875 150.039062 82.449219 150.671875 82.484375 C 151.308594 82.515625 151.933594 82.601562 152.554688 82.738281 C 153.175781 82.875 153.78125 83.058594 154.371094 83.292969 C 154.960938 83.527344 155.527344 83.808594 156.070312 84.132812 C 156.617188 84.460938 157.132812 84.828125 157.617188 85.242188 C 158.101562 85.652344 158.546875 86.097656 158.960938 86.582031 C 159.371094 87.066406 159.742188 87.578125 160.070312 88.121094 C 160.398438 88.664062 160.679688 89.230469 160.914062 89.820312 L 172.617188 119.078125 C 172.902344 119.792969 173.117188 120.527344 173.257812 121.28125 C 173.398438 122.035156 173.464844 122.796875 173.453125 123.566406 C 173.445312 124.335938 173.363281 125.09375 173.203125 125.847656 C 173.042969 126.597656 172.8125 127.328125 172.511719 128.035156 C 172.207031 128.742188 171.839844 129.410156 171.402344 130.042969 C 170.96875 130.679688 170.476562 131.261719 169.925781 131.800781 C 169.378906 132.335938 168.78125 132.816406 168.136719 133.234375 C 167.492188 133.652344 166.8125 134.003906 166.101562 134.292969 C 165.386719 134.578125 164.652344 134.789062 163.898438 134.929688 C 163.140625 135.070312 162.378906 135.136719 161.609375 135.128906 C 160.84375 135.117188 160.082031 135.035156 159.332031 134.875 C 158.578125 134.714844 157.851562 134.484375 157.144531 134.183594 C 156.4375 133.878906 155.765625 133.511719 155.132812 133.078125 C 154.5 132.640625 153.914062 132.148438 153.378906 131.601562 C 152.839844 131.050781 152.363281 130.453125 151.945312 129.808594 C 151.523438 129.164062 151.171875 128.488281 150.886719 127.773438 L 142.570312 106.984375 C 136.828125 107.816406 131.238281 109.253906 125.804688 111.296875 C 120.371094 113.339844 115.21875 115.941406 110.347656 119.101562 C 90.652344 179.207031 88.277344 224.472656 94.550781 241.71875 C 100.730469 254.476562 111.074219 267.253906 120.191406 269.390625 C 123.140625 266.09375 125.65625 262.492188 127.738281 258.589844 C 129.816406 254.683594 131.40625 250.589844 132.496094 246.300781 C 132.496094 245.535156 132.570312 244.773438 132.722656 244.019531 C 132.871094 243.265625 133.09375 242.535156 133.386719 241.824219 C 133.679688 241.113281 134.042969 240.4375 134.46875 239.800781 C 134.894531 239.160156 135.378906 238.570312 135.925781 238.027344 C 136.46875 237.484375 137.058594 237 137.699219 236.570312 C 138.335938 236.144531 139.011719 235.785156 139.71875 235.488281 C 140.429688 235.195312 141.164062 234.972656 141.914062 234.824219 C 142.667969 234.675781 143.429688 234.597656 144.199219 234.597656 C 144.96875 234.597656 145.726562 234.675781 146.480469 234.824219 C 147.234375 234.972656 147.96875 235.195312 148.675781 235.488281 C 149.386719 235.785156 150.0625 236.144531 150.699219 236.570312 C 151.339844 237 151.929688 237.484375 152.472656 238.027344 C 153.015625 238.570312 153.503906 239.160156 153.929688 239.800781 C 154.355469 240.4375 154.714844 241.113281 155.011719 241.824219 C 155.304688 242.535156 155.527344 243.265625 155.675781 244.019531 C 155.828125 244.773438 155.902344 245.535156 155.902344 246.300781 C 155.386719 251.375 154.242188 256.304688 152.472656 261.085938 C 150.699219 265.867188 148.351562 270.351562 145.433594 274.535156 C 133.589844 293.113281 125.71875 293.113281 122.761719 293.113281 Z M 122.761719 293.113281 "/></g></g></svg>