<svg xmlns="http://www.w3.org/2000/svg" xmlns:xlink="http://www.w3.org/1999/xlink" width="500" zoomAndPan="magnify" viewBox="0 0 375 374.999991" height="500" preserveAspectRatio="xMidYMid meet" version="1.2"><defs><clipPath id="08d99b8983"><path d="M 0 123.195312 L 375 123.195312 L 375 259.695312 L 0 259.695312 Z M 0 123.195312 "/></clipPath></defs><g id="a569948738"><g clip-rule="nonzero" clip-path="url(#08d99b8983)"><path style=" stroke:none;fill-rule:nonzero;fill:#ff9f29;fill-opacity:1;" d="M 426.46875 258.300781 L 425.285156 259.453125 L 293.714844 124.347656 L 294.898438 123.195312 Z M 280.371094 124.324219 L 411.941406 259.433594 L 413.082031 258.320312 L 281.511719 123.214844 Z M 267.027344 124.304688 L 398.597656 259.410156 L 399.691406 258.34375 L 268.125 123.238281 Z M 253.683594 124.28125 L 385.253906 259.390625 L 386.304688 258.363281 L 254.734375 123.257812 Z M 240.339844 124.261719 L 371.910156 259.367188 L 372.917969 258.386719 L 241.347656 123.277344 Z M 226.996094 124.242188 L 358.566406 259.347656 L 359.53125 258.40625 L 227.960938 123.300781 Z M 213.652344 124.21875 L 345.222656 259.324219 L 346.144531 258.429688 L 214.574219 123.320312 Z M 200.308594 124.199219 L 331.878906 259.304688 L 332.753906 258.449219 L 201.1875 123.34375 Z M 186.964844 124.175781 L 318.535156 259.28125 L 319.367188 258.46875 L 187.796875 123.363281 Z M 173.621094 124.15625 L 305.191406 259.261719 L 305.980469 258.492188 L 174.410156 123.386719 Z M 160.277344 124.132812 L 291.847656 259.242188 L 292.59375 258.511719 L 161.023438 123.40625 Z M 146.933594 124.113281 L 278.503906 259.21875 L 279.207031 258.535156 L 147.636719 123.429688 Z M 133.589844 124.089844 L 265.160156 259.199219 L 265.820312 258.554688 L 134.25 123.449219 Z M 120.246094 124.070312 L 251.816406 259.175781 L 252.429688 258.578125 L 120.863281 123.46875 Z M 106.902344 124.046875 L 238.472656 259.15625 L 239.042969 258.597656 L 107.472656 123.492188 Z M 93.558594 124.027344 L 225.128906 259.132812 L 225.65625 258.621094 L 94.085938 123.511719 Z M 80.214844 124.007812 L 211.785156 259.113281 L 212.269531 258.640625 L 80.699219 123.535156 Z M 66.871094 123.984375 L 198.441406 259.089844 L 198.882812 258.660156 L 67.3125 123.554688 Z M 53.527344 123.964844 L 185.097656 259.070312 L 185.496094 258.683594 L 53.925781 123.578125 Z M 40.183594 123.941406 L 171.753906 259.050781 L 172.105469 258.703125 L 40.539062 123.597656 Z M 26.839844 123.921875 L 158.410156 259.027344 L 158.71875 258.726562 L 27.148438 123.621094 Z M 13.496094 123.898438 L 145.066406 259.007812 L 145.332031 258.746094 L 13.761719 123.640625 Z M 0.152344 123.878906 L 131.722656 258.984375 L 131.945312 258.769531 L 0.375 123.664062 Z M 0.152344 123.878906 "/></g></g></svg>