<svg xmlns="http://www.w3.org/2000/svg" xmlns:xlink="http://www.w3.org/1999/xlink" width="500" zoomAndPan="magnify" viewBox="0 0 375 374.999991" height="500" preserveAspectRatio="xMidYMid meet" version="1.2"><defs><clipPath id="c303a1679a"><path d="M 0 65.960938 L 375 65.960938 L 375 356.960938 L 0 356.960938 Z M 0 65.960938 "/></clipPath></defs><g id="1e062d4865"><g clip-rule="nonzero" clip-path="url(#c303a1679a)"><path style=" stroke:none;fill-rule:nonzero;fill:#ff9f29;fill-opacity:1;" d="M 619.019531 111.765625 C 626.34375 106.316406 633.203125 100.265625 640.480469 94.792969 L 640.480469 98.230469 C 639.121094 99.308594 637.769531 100.398438 636.414062 101.480469 C 614.285156 119.15625 590.878906 133.3125 564.828125 144.136719 C 551.59375 149.636719 537.847656 154.507812 524.476562 159.613281 C 512.960938 164.011719 501.542969 169.074219 489.449219 171.308594 C 480.761719 172.914062 470.191406 172.113281 463.621094 165.355469 C 454.722656 156.203125 464.519531 146.539062 460.496094 138.355469 C 456.488281 130.210938 437.117188 133.039062 429.101562 134.308594 C 419.691406 135.796875 410.128906 138.320312 402.101562 143.933594 C 387.535156 154.121094 372.257812 162.148438 354.644531 158.261719 C 345.605469 156.265625 337.878906 147.683594 330.167969 142.554688 C 322.183594 137.25 312.949219 133.707031 303.769531 131.761719 C 294.328125 129.757812 284.246094 129.328125 274.484375 130.832031 C 257.214844 133.492188 240.449219 139.617188 223.664062 144.726562 C 204.355469 150.609375 184.773438 156.621094 165.148438 160.777344 C 148.175781 164.371094 130.441406 166.527344 113.644531 163.457031 C 99.261719 160.828125 87.402344 153.472656 75.503906 145.03125 C 65.835938 138.171875 54.984375 134.601562 43.28125 133.75 C 31.5625 132.894531 19.4375 134.171875 7.539062 135.785156 C -15.988281 138.976562 -39.589844 142.996094 -63.199219 146.308594 L -63.199219 143.484375 C -60.253906 143.085938 -57.3125 142.679688 -54.375 142.261719 C -40.4375 140.289062 -26.480469 138.171875 -12.542969 136.121094 C -0.0078125 134.28125 12.644531 132.261719 25.144531 131.429688 C 36.5625 130.671875 48 130.9375 59.058594 133.734375 C 69.804688 136.453125 78.53125 144.113281 87.699219 150.25 C 101.800781 159.6875 119.671875 162.414062 135.980469 161.703125 C 155.292969 160.859375 174.707031 155.683594 193.625 150.46875 C 212.066406 145.386719 230.40625 139.5625 248.765625 134.1875 C 263.824219 129.777344 278.371094 126.925781 293.914062 128.386719 C 310.835938 129.976562 327.257812 136.980469 341.175781 146.757812 C 349.503906 152.609375 357.847656 156.867188 368.140625 155.835938 C 377.257812 154.925781 385.703125 152.058594 393.539062 146.8125 C 400.015625 142.476562 405.742188 138.390625 413.019531 135.820312 C 423.292969 132.195312 434.929688 131.011719 445.664062 131.226562 C 450.988281 131.332031 465.996094 131.773438 464.007812 141.164062 C 461.929688 150.96875 459.226562 163.167969 471.285156 167.316406 C 481.578125 170.859375 491.566406 168.535156 501.835938 165.015625 C 529.53125 155.523438 558.292969 145.984375 584.796875 132.726562 C 596.796875 126.726562 608.25 119.773438 619.019531 111.765625 Z M 588.144531 123.59375 C 561.582031 138.242188 531.980469 146.914062 503.140625 155.242188 C 493.300781 158.082031 481.859375 161.242188 471.867188 157.339844 C 460.476562 152.890625 469.332031 140.808594 471.167969 133.550781 C 473.539062 124.160156 455.257812 123.882812 450.410156 123.820312 C 438.097656 123.660156 425.011719 125.15625 413.015625 128.558594 C 398.378906 132.710938 385.5625 144.019531 370.511719 145.160156 C 359.6875 145.980469 348.855469 141.433594 338.695312 137.40625 C 321.09375 130.433594 302.667969 123.152344 283.882812 121.398438 C 269.726562 120.078125 256.558594 122.40625 242.828125 126.648438 C 226.457031 131.703125 210.035156 136.824219 193.515625 141.132812 C 174.582031 146.070312 154.984375 150.578125 135.691406 151.40625 C 120.328125 152.066406 103.21875 150.09375 89.929688 141.15625 C 80.957031 135.121094 72.964844 128.371094 62.804688 125.492188 C 51.859375 122.394531 39.78125 122.183594 28.085938 122.761719 C 15.199219 123.398438 2.136719 125.1875 -10.804688 126.816406 C -25.125 128.617188 -39.449219 130.511719 -53.757812 132.359375 C -56.902344 132.765625 -60.050781 133.164062 -63.199219 133.5625 L -63.199219 136.148438 C -38.804688 132.96875 -14.394531 129.367188 9.953125 126.597656 C 22.226562 125.199219 34.726562 124.125 46.785156 125.132812 C 57.988281 126.066406 69.351562 129.136719 78.664062 136.210938 C 89.300781 144.292969 99.859375 150.335938 112.898438 152.882812 C 129.84375 156.195312 148.378906 153.421875 165.296875 150.175781 C 184.078125 146.574219 202.847656 141.417969 221.226562 135.886719 C 236.003906 131.441406 250.75 125.828125 265.933594 123.460938 C 275.292969 122 284.863281 122.730469 294.132812 124.382812 C 304.597656 126.25 314.992188 129.8125 324.960938 133.78125 C 336.121094 138.222656 347.554688 144.691406 359.082031 146.835938 C 375.753906 149.9375 385.5625 143.207031 400.089844 135.726562 C 409.996094 130.625 421.011719 128.34375 431.835938 126.863281 C 440.871094 125.628906 462.804688 122.300781 467.613281 130.738281 C 471.578125 137.6875 458.824219 146.96875 464.8125 155.339844 C 469.84375 162.375 481.941406 162.421875 489.726562 161.003906 C 502.4375 158.6875 514.820312 154.101562 527.214844 150.082031 C 541.246094 145.535156 555.332031 140.769531 568.789062 135.015625 C 581.617188 129.527344 594.179688 123.035156 605.859375 115.136719 C 616.621094 107.855469 626.148438 98.425781 636.546875 91.371094 C 637.824219 90.503906 639.136719 89.671875 640.480469 88.875 L 640.480469 86.777344 C 633.085938 90.925781 626.515625 96.257812 619.808594 101.816406 C 609.90625 110.027344 599.414062 117.375 588.144531 123.59375 Z M 501.496094 175.089844 C 491.253906 178.601562 481.261719 180.941406 471.019531 177.398438 C 460.507812 173.761719 458.042969 159.03125 458.152344 149.324219 C 458.257812 140.324219 447.828125 138.65625 441.015625 138.648438 C 431.632812 138.636719 421.691406 139.6875 412.953125 143.675781 C 405.570312 147.050781 399.699219 152.902344 392.703125 156.992188 C 382.734375 162.828125 371.582031 166.914062 360.71875 167.828125 C 350.808594 168.664062 343.160156 166.132812 336.859375 157.9375 C 333.3125 153.328125 330.5625 148.019531 325.648438 144.453125 C 318.714844 139.425781 309.835938 137.085938 301.777344 136.066406 C 285.277344 133.984375 268.859375 137.859375 252.5625 142.644531 C 232.585938 148.511719 212.636719 155.089844 192.679688 161.074219 C 174.449219 166.535156 155.664062 172.03125 136.949219 172.796875 C 120.101562 173.488281 102.269531 169.484375 87.605469 160.332031 C 77.402344 153.964844 67.621094 145.289062 55.90625 142.285156 C 44.996094 139.488281 33.746094 139.296875 22.496094 140.257812 C 10.398438 141.289062 -1.84375 143.546875 -13.964844 145.59375 C -27.558594 147.886719 -41.183594 150.179688 -54.808594 152.261719 C -57.601562 152.6875 -60.398438 153.09375 -63.199219 153.488281 L -63.199219 156.574219 C -40.214844 153.21875 -17.289062 148.835938 5.558594 145.203125 C 17.121094 143.367188 28.902344 141.886719 40.316406 142.648438 C 52.601562 143.46875 63.675781 147.683594 73.984375 154.714844 C 86.90625 163.53125 100.359375 171.738281 115.589844 174.773438 C 131.675781 177.976562 148.507812 176.015625 164.738281 172.324219 C 184.390625 167.851562 203.894531 161.1875 223.277344 155.019531 C 242.136719 149.023438 261.054688 141.996094 280.714844 139.035156 C 290.667969 137.535156 300.9375 137.539062 310.152344 140.148438 C 317.632812 142.265625 324.0625 146.023438 328.371094 153.191406 C 332.570312 160.171875 337.0625 169.109375 345.425781 170.976562 C 364.390625 175.210938 387.785156 165.410156 402.816406 153.5 C 409.953125 147.839844 417.691406 143.949219 426.609375 142.097656 C 433.917969 140.582031 450.492188 138.269531 454.273438 146.371094 C 458.4375 155.304688 455.332031 167.007812 463.3125 175.605469 C 469.789062 182.582031 480.515625 183.214844 489.171875 181.613281 C 501.226562 179.386719 512.640625 174.53125 524.109375 169.890625 C 536.863281 164.730469 549.472656 159.144531 562.054688 153.636719 C 588.289062 142.152344 613.246094 129.003906 636.066406 111.742188 C 637.539062 110.628906 639.007812 109.503906 640.480469 108.375 L 640.480469 104.457031 C 621.796875 118.527344 603.074219 131.695312 581.648438 141.929688 C 555.664062 154.347656 528.460938 165.847656 501.496094 175.089844 Z M 470.757812 187.480469 C 460.75 183.851562 457.460938 167.859375 454.71875 158.5 C 452.257812 150.101562 445.265625 146.550781 437.011719 146.578125 C 428.660156 146.609375 419.964844 148.046875 412.628906 152.648438 C 392.730469 165.125 373.496094 178.398438 350.433594 180.59375 C 342.351562 181.363281 330.660156 180.050781 327.539062 170.472656 C 323.300781 157.449219 321.074219 147.640625 305.742188 145 C 288.488281 142.023438 269.925781 147.40625 252.535156 152.570312 C 231.792969 158.734375 211.171875 166 190.546875 172.636719 C 173.425781 178.144531 155.761719 183.75 138.113281 184.402344 C 121.359375 185.019531 104.46875 179.914062 89.703125 171.140625 C 78.125 164.261719 66.800781 154.933594 53.925781 151.457031 C 43.058594 148.523438 31.84375 148.328125 20.582031 149.472656 C 8.839844 150.667969 -3.042969 153.167969 -14.796875 155.378906 C -28.164062 157.894531 -41.601562 160.308594 -55.054688 162.367188 C -57.761719 162.785156 -60.480469 163.175781 -63.199219 163.558594 L -63.199219 166.828125 C -40.558594 163.5 -18.027344 159.101562 4.410156 155.058594 C 15.730469 153.019531 27.066406 151.527344 38.441406 152.125 C 51.671875 152.816406 63.839844 158.359375 74.929688 165.417969 C 88.53125 174.074219 102.5625 183.089844 118.125 186.53125 C 133.15625 189.855469 148.835938 188.117188 164.011719 184.445312 C 182.90625 179.871094 201.601562 172.933594 220.21875 166.640625 C 240.789062 159.683594 261.609375 151.949219 282.746094 148.683594 C 291.652344 147.308594 302.238281 146.277344 310.671875 150.207031 C 316.679688 153.011719 319.484375 159.257812 320.539062 165.46875 C 321.863281 173.261719 324.375 182.261719 333.5625 184.40625 C 355.304688 189.480469 382.621094 175.523438 400.320312 164.398438 C 408.28125 159.394531 415.675781 153.390625 424.59375 150.773438 C 432.167969 148.554688 445.144531 147.234375 449.953125 155.292969 C 452.550781 159.648438 453.917969 165.117188 455.472656 170.492188 C 455.179688 169.808594 454.871094 169.148438 454.53125 168.527344 C 450.46875 161 443.199219 155.296875 434.191406 155.511719 C 425.765625 155.714844 419.050781 158.542969 411.597656 162.859375 C 388.910156 175.996094 364.863281 190.847656 339.109375 193.640625 C 331.078125 194.511719 317.648438 194.546875 315.464844 183.757812 C 312.992188 171.546875 316.773438 159.792969 302.699219 155.78125 C 286.25 151.085938 265.058594 158.765625 248.359375 163.972656 C 228.042969 170.3125 207.894531 177.839844 187.746094 184.757812 C 171.984375 190.167969 155.683594 195.6875 139.390625 196.183594 C 122.980469 196.675781 107.445312 190.710938 93.09375 182.410156 C 80.535156 175.148438 67.96875 165.507812 54.027344 161.601562 C 42.867188 158.472656 31.5 158.042969 19.9375 159.332031 C 8.378906 160.621094 -3.355469 163.289062 -14.929688 165.5 C -28.324219 168.058594 -41.867188 170.414062 -55.355469 172.441406 C -57.960938 172.832031 -60.578125 173.207031 -63.199219 173.574219 L -63.199219 177.132812 C -40.519531 173.871094 -17.941406 169.652344 4.53125 165.492188 C 15.878906 163.390625 27.175781 161.824219 38.550781 162.519531 C 52.585938 163.382812 65.765625 169.378906 77.722656 176.695312 C 91.4375 185.082031 105.476562 194.707031 120.871094 198.414062 C 134.71875 201.746094 149.238281 200.296875 163.230469 196.75 C 180.855469 192.289062 198.273438 185.3125 215.617188 179.089844 C 236.214844 171.691406 257.132812 163.589844 278.355469 160.152344 C 286.460938 158.839844 297.476562 157.21875 304.5 162.070312 C 309.613281 165.601562 309.402344 173.097656 309.222656 178.742188 C 308.921875 188.191406 311.65625 195.453125 321.214844 197.96875 C 343.914062 203.945312 374.351562 187.605469 395.003906 176.058594 C 404.277344 170.875 413.558594 164.257812 423.667969 160.722656 C 432.261719 157.71875 442.683594 157.957031 448.910156 165.3125 C 452.75 169.851562 454.003906 175.828125 455.472656 181.679688 C 455.085938 180.632812 454.671875 179.628906 454.203125 178.691406 C 450.277344 170.828125 443.175781 165.46875 433.625 165.457031 C 424.414062 165.441406 416.125 169.636719 408.214844 173.757812 C 383.324219 186.730469 356.769531 203.734375 328.578125 206.46875 C 320.503906 207.253906 305.335938 207.816406 302.855469 197.191406 C 300.625 187.632812 308.441406 171.863281 295.082031 167.941406 C 278.511719 163.078125 257.777344 171.128906 242.019531 176.292969 C 222.820312 182.589844 203.816406 190.125 184.816406 197.035156 C 170.605469 202.203125 155.929688 207.359375 140.675781 207.8125 C 124.886719 208.277344 110.285156 201.757812 97.074219 193.882812 C 84.019531 186.097656 70.664062 176.511719 56.105469 172.40625 C 44.585938 169.160156 32.902344 168.546875 20.96875 169.820312 C 9.285156 171.0625 -2.59375 173.714844 -14.304688 175.859375 C -27.917969 178.355469 -41.6875 180.625 -55.398438 182.59375 C -57.992188 182.96875 -60.59375 183.328125 -63.199219 183.675781 L -63.199219 187.5 C -40.113281 184.339844 -17.105469 180.335938 5.785156 176.289062 C 17.382812 174.238281 28.894531 172.730469 40.488281 173.527344 C 55.113281 174.539062 69.003906 180.773438 81.542969 188.289062 C 94.746094 196.207031 108.402344 206.535156 123.425781 210.101562 C 136.523438 213.210938 149.621094 212.214844 162.632812 208.847656 C 178.71875 204.6875 194.59375 197.902344 210.378906 191.894531 C 230.128906 184.378906 250.230469 176.257812 270.660156 172.785156 C 277.832031 171.566406 289.191406 169.675781 294.703125 175.054688 C 298.863281 179.113281 297.265625 186.824219 296.609375 192.390625 C 295.425781 202.347656 300.484375 209.4375 310.546875 211.074219 C 336.8125 215.351562 365.730469 199.742188 388.128906 188.144531 C 399.226562 182.398438 410.265625 175.382812 422.207031 171.347656 C 431.070312 168.351562 442.105469 167.554688 448.449219 175.605469 C 452.003906 180.117188 453.191406 185.980469 454.605469 191.710938 C 454.269531 190.761719 453.914062 189.835938 453.523438 188.945312 C 449.828125 180.488281 441.550781 175.585938 432.421875 175.769531 C 422.011719 175.976562 412.347656 180.652344 403.234375 185.089844 C 377.199219 197.769531 349.769531 215.746094 320.699219 218.585938 C 311.828125 219.449219 296.496094 219.914062 291.917969 210.171875 C 287.921875 201.664062 296.65625 185.101562 284.929688 180.914062 C 269.820312 175.515625 249.132812 184.078125 234.671875 189.058594 C 217.074219 195.117188 199.671875 202.460938 182.261719 209.066406 C 169.160156 214.039062 155.878906 218.390625 141.851562 218.964844 C 127.070312 219.570312 113.183594 212.917969 100.929688 205.300781 C 87.933594 197.222656 74.171875 187.679688 59.320312 183.566406 C 47.488281 180.292969 35.308594 179.316406 23.023438 180.625 C 10.941406 181.914062 -1.144531 184.34375 -13.160156 186.382812 C -27.128906 188.753906 -41.25 190.894531 -55.308594 192.789062 C -57.933594 193.140625 -60.5625 193.484375 -63.199219 193.820312 L -63.199219 197.890625 C -39.488281 194.851562 -15.832031 191.117188 7.703125 187.292969 C 19.660156 185.347656 31.523438 183.941406 43.445312 184.855469 C 58.414062 186 72.746094 192.261719 85.582031 199.957031 C 98.164062 207.496094 111.019531 217.847656 125.363281 221.28125 C 137.699219 224.234375 150.183594 223.476562 162.4375 220.347656 C 176.957031 216.636719 191.226562 210.277344 205.390625 204.59375 C 223.664062 197.253906 242.328125 189.308594 261.25 186.035156 C 267.382812 184.976562 278.789062 182.96875 283.21875 188.566406 C 286.714844 192.976562 284.894531 200.25 284.855469 205.800781 C 284.78125 217.113281 294.429688 221.570312 303.75 223.136719 C 329.539062 227.480469 357.902344 211.894531 380.960938 200.304688 C 393.398438 194.054688 405.871094 186.679688 419.191406 182.394531 C 428.167969 179.503906 440.726562 177.367188 447.398438 186.058594 C 450.609375 190.242188 451.949219 195.4375 453.308594 200.601562 C 453.117188 200.140625 452.917969 199.6875 452.710938 199.238281 C 448.632812 190.433594 439.742188 185.933594 430.257812 186.339844 C 418.714844 186.832031 407.878906 191.796875 397.632812 196.589844 C 372.191406 208.492188 345.644531 226.765625 317.367188 229.5 C 306.835938 230.519531 293.003906 230.179688 284.847656 222.101562 C 277.347656 214.671875 284.53125 198.597656 273.96875 194.144531 C 260.390625 188.417969 240.335938 197.136719 227.453125 201.792969 C 211.730469 207.472656 196.167969 214.457031 180.582031 220.457031 C 168.289062 225.1875 155.859375 228.839844 142.691406 229.375 C 128.667969 229.945312 115.433594 223.902344 103.925781 216.414062 C 91.066406 208.039062 77.496094 199.179688 63.007812 194.875 C 51.007812 191.3125 38.246094 190.53125 25.605469 191.59375 C 13.207031 192.636719 0.617188 195.058594 -11.816406 196.96875 C -26.214844 199.179688 -40.738281 201.175781 -55.210938 202.984375 C -57.871094 203.316406 -60.53125 203.640625 -63.199219 203.957031 L -63.199219 208.265625 C -38.796875 205.332031 -14.425781 201.890625 9.832031 198.359375 C 22.203125 196.558594 34.484375 195.273438 46.78125 196.300781 C 61.789062 197.546875 76.261719 203.609375 89.039062 211.441406 C 100.804688 218.652344 112.582031 228.328125 126 232.050781 C 138.285156 235.457031 150.367188 234.394531 162.621094 231.09375 C 175.835938 227.535156 188.730469 222.074219 201.527344 216.714844 C 217.925781 209.851562 234.648438 202.367188 251.683594 199.355469 C 257.433594 198.339844 267.824219 196.632812 271.957031 202.019531 C 275.207031 206.25 274.695312 213.386719 276.105469 218.355469 C 278.84375 228 292.890625 232.960938 302.164062 234.125 C 327.582031 237.3125 352.3125 223.527344 374.792969 212.199219 C 388.074219 205.503906 401.382812 198.285156 415.394531 193.648438 C 424.734375 190.5625 438.667969 187.617188 446.054688 196.589844 C 449.285156 200.511719 450.851562 205.355469 452.339844 210.230469 C 452.222656 209.988281 452.105469 209.746094 451.984375 209.511719 C 447.304688 200.367188 437.574219 196.40625 427.679688 197.023438 C 415.246094 197.796875 403.476562 202.859375 392.410156 207.988281 C 368.171875 219.222656 342.96875 237.621094 316.441406 240.898438 C 304.214844 242.410156 293.351562 239.886719 283.175781 232.710938 C 278.113281 229.140625 274.761719 224.953125 272.320312 219.210938 C 270.289062 214.433594 269.007812 209.296875 263.917969 207.097656 C 251.308594 201.652344 233.394531 209.535156 221.476562 214.023438 C 207.628906 219.238281 193.859375 225.316406 180.085938 230.988281 C 167.726562 236.078125 155.492188 241.230469 142.222656 242.074219 C 128.429688 242.949219 116.152344 234.414062 105.316406 226.964844 C 93.273438 218.6875 80.347656 210.238281 66.503906 206.125 C 54.242188 202.480469 41.152344 201.652344 28.207031 202.570312 C 15.363281 203.480469 2.304688 205.742188 -10.589844 207.515625 C -25.414062 209.550781 -40.34375 211.410156 -55.222656 213.148438 C -57.878906 213.457031 -60.539062 213.761719 -63.199219 214.0625 L -63.199219 218.597656 C -38.1875 215.730469 -13.183594 212.570312 11.730469 209.355469 C 24.460938 207.714844 37.230469 206.535156 49.875 207.667969 C 64.554688 208.984375 78.773438 214.589844 91.121094 222.496094 C 102.339844 229.679688 112.9375 241.628906 125.441406 246.09375 C 137.738281 250.484375 149.882812 248.855469 162.035156 244.457031 C 174.667969 239.882812 187.027344 233.1875 199.640625 227.804688 C 214.023438 221.667969 228.570312 214.84375 243.507812 212.195312 C 249.296875 211.167969 258.1875 210.019531 262.804688 214.832031 C 266.746094 218.941406 268.707031 225.210938 272.480469 229.449219 C 279.640625 237.492188 289.722656 245.050781 300.863281 246.578125 C 325.753906 249.984375 349.160156 234.90625 370.917969 223.472656 C 384.140625 216.523438 397.539062 209.484375 411.625 204.898438 C 421.527344 201.675781 436.460938 198.097656 444.742188 207.113281 C 447.929688 210.582031 449.742188 214.875 451.332031 219.289062 C 446.03125 210.308594 435 206.789062 425.242188 207.667969 C 412.457031 208.816406 400.257812 213.539062 388.570312 219.011719 C 364.660156 230.207031 341.035156 249.855469 314.882812 253.664062 C 302.527344 255.464844 291.507812 252.917969 282.054688 244.65625 C 273.746094 237.394531 267.371094 223.472656 256.46875 219.234375 C 244.449219 214.558594 229.074219 220.933594 217.835938 225.285156 C 204.585938 230.40625 191.945312 236.972656 179.363281 243.71875 C 167.308594 250.1875 155.070312 256.628906 141.429688 257.832031 C 126.867188 259.117188 114.878906 248.269531 105.035156 238.769531 C 94.664062 228.757812 82.632812 221.113281 69.15625 217.109375 C 56.757812 213.425781 43.453125 212.625 30.347656 213.402344 C 17.058594 214.1875 3.546875 216.28125 -9.796875 217.929688 C -24.976562 219.800781 -40.234375 221.539062 -55.460938 223.238281 C -58.039062 223.527344 -60.617188 223.8125 -63.199219 224.097656 L -63.199219 228.941406 C -37.847656 225.6875 -12.378906 223.039062 12.953125 220.144531 C 26.015625 218.648438 39.140625 217.578125 52.097656 218.765625 C 65.835938 220.023438 80.742188 224.691406 91.152344 233.210938 C 101.902344 242.007812 111.15625 257.792969 124.628906 263.121094 C 136.929688 267.984375 149.132812 265.777344 161.074219 260.582031 C 174.050781 254.941406 186.464844 246.566406 199.054688 239.578125 C 211.53125 232.652344 224.351562 226.691406 238.242188 224.011719 C 244.417969 222.820312 252.046875 222.710938 257.617188 226.417969 C 263.398438 230.265625 267.484375 235.449219 271.445312 240.992188 C 277.953125 250.09375 287.488281 258.835938 298.976562 260.289062 C 324.742188 263.546875 348.464844 246.664062 370.035156 234.121094 C 382.375 226.945312 395.183594 220.300781 408.6875 215.925781 C 419.121094 212.542969 434.78125 208.742188 443.800781 217.535156 C 446.605469 220.269531 448.550781 223.78125 450.078125 227.449219 C 443.933594 219.652344 432.808594 217.210938 423.515625 218.121094 C 410.800781 219.363281 398.765625 223.828125 387.121094 229.390625 C 362.136719 241.316406 339.839844 262.40625 312.964844 267.199219 C 300.734375 269.382812 289.292969 266.867188 280.28125 258.050781 C 271.59375 249.550781 266.652344 233.019531 253.378906 230.003906 C 240.71875 227.125 228.515625 230.640625 216.890625 236.097656 C 203.519531 242.371094 190.878906 251.007812 178.234375 258.976562 C 166.75 266.214844 154.289062 273.992188 140.457031 275.3125 C 125.222656 276.773438 113.375 264.898438 104.46875 254.292969 C 94.765625 242.746094 85.148438 231.761719 70.308594 227.628906 C 57.691406 224.113281 44.609375 223.277344 31.53125 223.9375 C 17.867188 224.625 3.996094 226.53125 -9.746094 228.109375 C -25.105469 229.875 -40.371094 232.398438 -55.503906 235.375 C -57.933594 235.851562 -60.5625 236.25 -63.199219 236.652344 L -63.199219 250.859375 C -41.917969 246.945312 -11.351562 234.089844 13.109375 230.789062 C 26.234375 229.015625 39.648438 228.21875 52.796875 229.324219 C 67.738281 230.582031 80.628906 236.648438 90.515625 247.601562 C 100.429688 258.585938 109.628906 275.921875 123.695312 281.621094 C 135.847656 286.546875 148.234375 283.796875 159.929688 278.132812 C 173.121094 271.746094 185.460938 262.355469 197.941406 254.097656 C 210.210938 245.984375 222.703125 237.980469 236.902344 234.882812 C 243.101562 233.53125 251.003906 233.636719 256.546875 237.433594 C 262.535156 241.535156 265.96875 248.3125 269.667969 254.363281 C 275.625 264.109375 285.101562 273.238281 296.832031 274.554688 C 323.359375 277.539062 347.554688 259.304688 369.207031 245.660156 C 381.367188 238 393.792969 230.996094 407.410156 226.5 C 418.480469 222.847656 433.988281 219.589844 443.585938 227.761719 C 446.40625 230.164062 448.179688 233.460938 449.550781 236.96875 C 443.414062 229.417969 432.21875 227.320312 423.085938 228.222656 C 410.164062 229.5 398.089844 233.953125 386.511719 239.992188 C 361.789062 252.882812 338.949219 276.089844 310.96875 280.90625 C 298.46875 283.058594 287.113281 281.078125 278.191406 272.152344 C 269.558594 263.511719 265.429688 245.152344 252.449219 241.472656 C 239.566406 237.816406 227.179688 242.824219 215.707031 249.324219 C 202.308594 256.914062 189.679688 266.742188 176.890625 275.578125 C 165.679688 283.328125 153.332031 291.503906 139.449219 293.175781 C 124.074219 295.03125 112.199219 283.066406 103.761719 272.089844 C 94.503906 260.046875 84.613281 244.886719 69.863281 239.316406 C 57.542969 234.660156 44.472656 233.851562 31.46875 235.046875 C 17.746094 236.308594 4.074219 239.832031 -9.332031 243.734375 C -24.300781 248.09375 -39.105469 253.308594 -53.847656 258.53125 C -56.734375 259.554688 -59.996094 260.460938 -63.199219 261.378906 L -63.199219 281.347656 C -42.054688 275.089844 -11.675781 255.390625 13.4375 247.730469 C 26.183594 243.84375 39.269531 241.554688 52.4375 242.882812 C 67.785156 244.429688 80.375 253.589844 89.800781 265.394531 C 99.097656 277.03125 108.386719 294.796875 122.769531 300.085938 C 134.945312 304.5625 147.300781 301.554688 158.785156 295.757812 C 172.046875 289.0625 184.25 279.207031 196.511719 270.21875 C 208.464844 261.457031 220.988281 251.449219 235.691406 247.851562 C 241.972656 246.3125 249.695312 246.4375 255.015625 250.535156 C 260.742188 254.945312 263.933594 262.789062 267.492188 268.746094 C 273.367188 278.578125 282.570312 287.285156 294.757812 288.667969 C 321.65625 291.722656 346.976562 271.980469 368.035156 257.953125 C 380.457031 249.675781 393.109375 241.796875 407.15625 236.886719 C 417.878906 233.136719 434.035156 229.527344 443.285156 237.941406 C 445.847656 240.273438 447.519531 243.324219 448.820312 246.585938 C 442.609375 239.410156 431.769531 237.328125 422.789062 238.308594 C 409.554688 239.753906 397.234375 244.816406 385.550781 251.359375 C 360.75 265.238281 337.714844 289.050781 309.179688 294.171875 C 296.796875 296.394531 285.210938 294.839844 276.121094 286.21875 C 267.253906 277.816406 263.535156 258.78125 250.875 254.855469 C 237.878906 250.828125 225.378906 257.101562 214.121094 264.269531 C 200.878906 272.695312 188.386719 283.171875 175.535156 292.347656 C 164.507812 300.21875 152.3125 308.167969 138.550781 310.074219 C 123.398438 312.175781 111.433594 301.558594 103.007812 290.648438 C 93.683594 278.578125 83.917969 262.351562 69.496094 255.984375 C 57.320312 250.609375 44.492188 249.945312 31.652344 252.628906 C 18.003906 255.480469 4.914062 261.640625 -7.917969 267.863281 C -22.410156 274.890625 -36.667969 282.667969 -51.027344 289.90625 C -54.746094 291.777344 -59.132812 293.46875 -63.199219 295.175781 L -63.199219 318.675781 C -42.074219 311.742188 -11.277344 284.390625 14.46875 271.664062 C 26.519531 265.707031 39.089844 261.4375 52.398438 262.125 C 67.511719 262.90625 79.878906 273.238281 89.0625 284.785156 C 98.082031 296.128906 107.59375 312.710938 121.976562 316.984375 C 134.179688 320.609375 146.46875 317.675781 157.816406 312.109375 C 171.015625 305.628906 183.070312 295.914062 195.007812 286.761719 C 206.925781 277.625 219.261719 266.796875 233.992188 262.527344 C 240.144531 260.746094 247.847656 260.722656 253.019531 264.992188 C 258.570312 269.570312 261.640625 277.246094 265.253906 283.304688 C 271.160156 293.203125 281.292969 300.832031 293.089844 301.90625 C 320.40625 304.394531 345.457031 285.21875 366.703125 270.578125 C 379.378906 261.84375 392.191406 253.339844 406.546875 247.902344 C 417.226562 243.859375 433.503906 239.824219 442.8125 248.382812 C 445.148438 250.535156 446.730469 253.289062 447.972656 256.246094 C 441.644531 249.449219 431.03125 247.71875 422.261719 248.847656 C 408.722656 250.59375 396.128906 256.171875 384.382812 263.160156 C 360.074219 277.625 336.507812 301.371094 307.875 306.390625 C 295.648438 308.535156 283.902344 307.386719 274.402344 299.511719 C 265.078125 291.78125 261.261719 274.019531 248.953125 269.300781 C 236.519531 264.53125 222.238281 273.214844 212.378906 279.914062 C 199.476562 288.683594 187.1875 299.203125 174.351562 308.089844 C 163.152344 315.839844 151.417969 322.429688 137.898438 324.65625 C 123.515625 327.023438 111.140625 318.832031 102.300781 308.457031 C 92.875 297.394531 83.054688 281.546875 69.21875 275.707031 C 57.019531 270.554688 44.535156 270.953125 32.261719 275.285156 C 18.710938 280.066406 6.300781 288.703125 -5.914062 296.980469 C -19.804688 306.394531 -33.511719 316.347656 -47.652344 325.160156 C -52.375 328.105469 -58.308594 330.707031 -63.199219 333.339844 L -63.199219 356.945312 C -41.265625 351.300781 -10.109375 317.066406 15.871094 299.273438 C 27.109375 291.578125 39.082031 285.164062 52.539062 284.507812 C 66.863281 283.808594 79.113281 293.507812 88.339844 303.945312 C 97.363281 314.152344 107.285156 328.121094 121.449219 330.796875 C 133.773438 333.121094 145.878906 330.746094 157.203125 325.824219 C 170.21875 320.171875 182.125 311.28125 193.660156 302.558594 C 205.542969 293.578125 217.621094 282.605469 232.097656 277.921875 C 238.105469 275.976562 245.757812 275.550781 250.875 279.902344 C 256.34375 284.542969 259.28125 291.652344 263.289062 297.199219 C 270.261719 306.847656 280.273438 312.3125 292.164062 313.550781 C 318.867188 316.332031 343.976562 298.050781 365.414062 283.117188 C 378.308594 274.132812 391.246094 265.21875 405.753906 259.324219 C 416.367188 255.015625 432.808594 250.421875 442.261719 258.996094 C 446.789062 263.105469 448.488281 269.492188 450.367188 275.25 C 452.023438 280.324219 454.441406 285.386719 458.433594 289.019531 C 465.800781 295.730469 476.742188 296.625 486.128906 295.289062 C 498.046875 293.589844 509.570312 289.648438 521.066406 285.78125 C 533.902344 281.460938 546.597656 276.546875 558.691406 270.671875 C 584.605469 258.082031 608.117188 240.632812 632.128906 224.589844 C 634.921875 222.722656 637.707031 220.824219 640.480469 218.902344 L 640.480469 211.914062 C 619.273438 226.828125 597.429688 241.324219 575.113281 254.40625 C 550.726562 268.699219 524.742188 278.765625 497.75 286.828125 C 487.753906 289.8125 477.945312 291.582031 468.125 288.308594 C 462.890625 286.5625 459.859375 282.378906 457.621094 277.476562 C 458.007812 277.90625 458.414062 278.320312 458.839844 278.71875 C 466.058594 285.449219 477.128906 286.386719 486.40625 285.042969 C 498.382812 283.308594 509.882812 279.148438 521.34375 274.992188 C 534.179688 270.335938 546.839844 265.011719 558.941406 258.855469 C 584.195312 246.011719 608.726562 230.09375 632.378906 214.296875 C 635.085938 212.488281 637.789062 210.644531 640.480469 208.78125 L 640.480469 202.074219 C 596.476562 232.855469 549.4375 260.519531 498.089844 276.628906 C 488.074219 279.773438 478.046875 281.632812 468.386719 278.226562 C 462.847656 276.269531 459.851562 271.777344 457.640625 266.59375 C 458.152344 267.203125 458.695312 267.792969 459.277344 268.347656 C 466.402344 275.152344 477.449219 276.09375 486.683594 274.679688 C 498.707031 272.835938 510.183594 268.429688 521.617188 264.019531 C 534.425781 259.082031 547.035156 253.46875 559.1875 247.199219 C 584.257812 234.273438 609.113281 219.707031 632.625 204.003906 C 635.25 202.25 637.871094 200.460938 640.480469 198.65625 L 640.480469 192.234375 C 596.699219 222.707031 549.097656 249.589844 498.433594 266.308594 C 488.421875 269.613281 478.316406 271.589844 468.65625 268.132812 C 462.824219 266.046875 459.828125 261.117188 457.578125 255.539062 C 458.238281 256.390625 458.945312 257.203125 459.722656 257.960938 C 466.800781 264.855469 477.738281 265.769531 486.960938 264.25 C 499.015625 262.261719 510.464844 257.628906 521.894531 253.03125 C 534.644531 247.902344 547.1875 242.164062 559.4375 235.996094 C 584.640625 223.300781 609.398438 209.386719 632.875 193.710938 C 635.417969 192.011719 637.953125 190.28125 640.480469 188.535156 L 640.480469 182.394531 C 596.6875 212.734375 549.175781 238.597656 498.773438 255.949219 C 488.777344 259.390625 478.570312 261.515625 468.921875 258.039062 C 462.851562 255.851562 459.921875 250.566406 457.644531 244.675781 C 458.40625 245.714844 459.238281 246.695312 460.15625 247.601562 C 467.210938 254.539062 478.023438 255.429688 487.234375 253.800781 C 499.308594 251.667969 510.726562 246.875 522.171875 242.195312 C 534.839844 237.019531 547.402344 231.421875 559.683594 225.488281 C 585.039062 213.246094 609.699219 199.0625 633.121094 183.417969 C 635.582031 181.773438 638.035156 180.097656 640.480469 178.410156 L 640.480469 172.558594 C 596.636719 202.828125 549.402344 227.871094 499.113281 245.640625 C 489.117188 249.171875 478.820312 251.453125 469.1875 247.953125 C 462.742188 245.613281 459.601562 239.484375 457.039062 232.929688 C 458.023438 234.507812 459.167969 235.980469 460.558594 237.304688 C 467.734375 244.144531 478.304688 245.09375 487.511719 243.398438 C 499.566406 241.175781 510.972656 236.308594 522.449219 231.691406 C 535.121094 226.59375 547.679688 221.113281 559.933594 215.195312 C 585.285156 202.953125 609.945312 188.765625 633.371094 173.121094 C 635.746094 171.535156 638.117188 169.921875 640.480469 168.292969 L 640.480469 162.722656 C 596.828125 193.011719 549.546875 217.738281 499.453125 235.46875 C 489.433594 239.015625 479.109375 241.378906 469.449219 237.875 C 462.746094 235.441406 459.574219 229.082031 457.007812 222.289062 C 458.042969 224.039062 459.292969 225.667969 460.875 227.105469 C 468.152344 233.722656 478.5625 234.796875 487.789062 233.09375 C 499.851562 230.863281 511.253906 226.0625 522.726562 221.417969 C 535.382812 216.296875 547.933594 210.816406 560.179688 204.902344 C 585.535156 192.65625 610.144531 178.464844 633.617188 162.828125 C 635.917969 161.296875 638.203125 159.726562 640.480469 158.140625 L 640.480469 152.738281 C 596.507812 182.726562 549.753906 208.316406 499.792969 225.460938 C 489.695312 228.925781 479.636719 231.355469 469.707031 227.800781 C 462.464844 225.207031 459.453125 218.535156 457.050781 211.4375 C 458.09375 213.429688 459.394531 215.269531 461.125 216.871094 C 468.285156 223.496094 478.980469 224.515625 488.066406 222.835938 C 500.117188 220.609375 511.535156 215.753906 523.003906 211.113281 C 535.648438 205.996094 548.191406 200.519531 560.429688 194.609375 C 585.773438 182.367188 610.238281 168.15625 633.691406 152.480469 C 635.957031 150.964844 638.222656 149.433594 640.480469 147.890625 L 640.480469 142.984375 C 596.710938 172.921875 549.859375 198.328125 500.132812 215.386719 C 489.992188 218.867188 480.039062 221.242188 469.960938 217.722656 C 462.054688 214.960938 459.335938 207.351562 457.035156 199.597656 C 458.117188 202.175781 459.542969 204.558594 461.621094 206.566406 C 468.574219 213.292969 479.40625 214.183594 488.34375 212.53125 C 500.394531 210.304688 511.8125 205.449219 523.28125 200.808594 C 535.917969 195.691406 548.449219 190.222656 560.675781 184.316406 C 586.039062 172.066406 610.625 157.78125 634.097656 142.238281 C 636.230469 140.824219 638.359375 139.378906 640.480469 137.925781 L 640.480469 133.355469 C 597.191406 163.425781 549.757812 188.40625 500.476562 205.3125 C 490.3125 208.796875 480.332031 211.179688 470.230469 207.640625 C 462.417969 204.902344 459.964844 196.933594 457.773438 189.179688 C 458.828125 191.773438 460.207031 194.183594 462.226562 196.234375 C 468.957031 203.082031 479.816406 203.851562 488.621094 202.226562 C 500.671875 199.996094 512.085938 195.144531 523.554688 190.503906 C 536.183594 185.390625 548.707031 179.925781 560.925781 174.023438 C 586.28125 161.773438 611.402344 147.867188 634.742188 132.070312 C 636.664062 130.769531 638.574219 129.4375 640.480469 128.09375 L 640.480469 123.765625 C 597.707031 154.058594 549.730469 178.464844 500.816406 195.238281 C 490.625 198.730469 480.546875 201.144531 470.496094 197.558594 C 462.503906 194.710938 460.285156 186.027344 457.972656 177.964844 C 459.1875 180.929688 460.707031 183.664062 462.820312 185.90625 C 469.375 192.851562 480.191406 193.527344 488.894531 191.917969 C 500.949219 189.691406 512.363281 184.839844 523.832031 180.195312 C 536.453125 175.089844 548.964844 169.625 561.171875 163.730469 C 586.75 151.375 612.335938 138.425781 635.457031 121.921875 C 637.136719 120.722656 638.808594 119.503906 640.480469 118.273438 L 640.480469 114.105469 C 597.90625 144.726562 550.222656 168.34375 501.15625 185.164062 C 490.9375 188.664062 480.765625 191.105469 470.757812 187.480469 Z M 507.601562 146.46875 C 497.828125 148.933594 485.570312 152.335938 475.742188 148.398438 C 466.351562 144.632812 477.800781 131.507812 478.511719 125.996094 C 479.761719 116.265625 460.574219 115.957031 454.671875 115.941406 C 440.933594 115.902344 426.578125 117.941406 413.097656 121.363281 C 397.53125 125.316406 382.082031 135.578125 366.257812 136.339844 C 354.492188 136.90625 342.21875 132.792969 330.738281 129.535156 C 311.917969 124.199219 292.671875 116.566406 273.429688 114.535156 C 260.398438 113.15625 248.480469 115.296875 235.917969 119.507812 C 221.421875 124.363281 206.753906 129.085938 192 132.890625 C 174.085938 137.507812 155.492188 141.351562 137.207031 142.117188 C 122.714844 142.726562 105.796875 141.480469 93.328125 132.785156 C 84.535156 126.648438 76.746094 120.386719 66.550781 117.253906 C 55.3125 113.800781 42.722656 113.582031 30.875 114.007812 C 17.648438 114.488281 4.246094 116.085938 -9.042969 117.523438 C -23.722656 119.109375 -38.402344 120.789062 -53.070312 122.496094 C -56.445312 122.890625 -59.820312 123.28125 -63.199219 123.671875 L -63.199219 126.027344 C -38.003906 123.027344 -12.777344 119.847656 12.398438 117.425781 C 25.003906 116.210938 37.890625 115.296875 50.257812 116.496094 C 61.613281 117.601562 73.390625 120.664062 82.753906 127.878906 C 92.777344 135.609375 102.425781 141.050781 114.867188 143.273438 C 131.34375 146.210938 149.371094 143.722656 165.871094 140.765625 C 183.070312 137.679688 200.308594 133.226562 217.050781 127.996094 C 230.160156 123.902344 243.125 118.640625 256.648438 116.339844 C 265.429688 114.847656 274.527344 115.8125 283.167969 117.410156 C 293.988281 119.414062 304.800781 122.984375 315.433594 126.234375 C 328.640625 130.269531 342.367188 135.382812 355.855469 137.378906 C 372.164062 139.792969 382.65625 134.3125 397.394531 128.296875 C 409.144531 123.5 421.960938 120.984375 434.546875 119.222656 C 444.742188 117.796875 467.835938 113.769531 474.585938 123.011719 C 479.574219 129.847656 466.636719 138.835938 469.640625 146.464844 C 472.476562 153.660156 486.554688 152.210938 492.414062 151.457031 C 505.6875 149.753906 519.1875 145.324219 532.285156 141.289062 C 546.1875 137.007812 560.101562 132.160156 573.152344 126.019531 C 585.144531 120.378906 596.671875 113.472656 607.257812 105.203125 C 616.9375 97.644531 625.574219 89.117188 636.835938 84.234375 C 638.039062 83.710938 639.253906 83.222656 640.480469 82.757812 L 640.480469 81.726562 C 621.816406 89.058594 608.523438 103.300781 591.109375 114.339844 C 565.738281 130.429688 536.304688 139.222656 507.601562 146.46875 Z M 590.957031 79.53125 C 582.101562 83.953125 574.53125 90.417969 566.78125 96.472656 C 556.847656 104.234375 545.984375 109.988281 534.363281 114.179688 C 525.925781 117.222656 514.273438 120.960938 505.457031 117.113281 C 500.558594 114.976562 499.328125 110.171875 497.449219 105.582031 C 494.632812 98.699219 490.457031 92.503906 485.449219 87.503906 C 476.171875 78.238281 462.613281 72.589844 448.894531 73.667969 C 435.96875 74.683594 424.085938 79.101562 412.125 84.230469 C 386.6875 95.140625 359.773438 106.914062 331.605469 107.742188 C 317.09375 108.167969 301.914062 105.972656 288.75 100.808594 C 276.988281 96.191406 269.957031 81.773438 257.40625 79.101562 C 245.039062 76.464844 233.285156 80.367188 221.617188 85.179688 C 208.9375 90.410156 196.292969 96.710938 183.464844 101.382812 C 170.476562 106.113281 156.566406 109.492188 142.933594 109.898438 C 129.71875 110.289062 117.296875 107.058594 106.210938 98.929688 C 95.671875 91.195312 84.804688 82.972656 72.722656 78.984375 C 60.882812 75.074219 47.871094 74.273438 35.152344 74.683594 C 21.585938 75.117188 7.785156 76.773438 -5.859375 78.089844 C -21.023438 79.550781 -36.238281 80.964844 -51.40625 82.480469 C -55.335938 82.871094 -59.265625 83.277344 -63.199219 83.683594 L -63.199219 85.113281 C -36.59375 82.335938 -9.921875 79.785156 16.664062 77.417969 C 29.769531 76.25 42.957031 75.46875 55.902344 76.898438 C 69.542969 78.40625 82.929688 83.738281 94.191406 91.90625 C 103.851562 98.914062 113.75 107.746094 125.75 109.859375 C 138.546875 112.109375 151.605469 111.035156 164.167969 108.335938 C 177.09375 105.558594 189.695312 100.757812 201.914062 95.324219 C 214.660156 89.652344 227.621094 82.839844 240.941406 80.378906 C 248.363281 79.007812 255.675781 79.34375 262.351562 82.523438 C 268.363281 85.386719 272.558594 91.65625 277.925781 95.828125 C 288.238281 103.84375 303.152344 106.765625 316.066406 108.066406 C 342.140625 110.695312 366.195312 104.179688 390.382812 95.089844 C 404.410156 89.820312 418.230469 82.898438 432.558594 78.496094 C 448.109375 73.71875 464.007812 73.601562 477.277344 82.371094 C 483.667969 86.59375 489.136719 92.570312 493.03125 99.699219 C 495.605469 104.410156 496.332031 110.199219 499.488281 114.535156 C 504.242188 121.0625 514.363281 119.992188 520.933594 118.878906 C 532.320312 116.949219 543.707031 112.371094 554 106.566406 C 563.21875 101.363281 571.179688 94.226562 579.699219 88.023438 C 597.058594 75.394531 616.535156 73.972656 636.449219 68.800781 C 637.808594 68.445312 639.152344 68.050781 640.480469 67.617188 L 640.480469 65.996094 C 624.253906 71.460938 606.628906 71.707031 590.957031 79.53125 Z M 565.191406 107.117188 C 553.800781 113.996094 541.238281 118.867188 528.722656 122.582031 C 520.03125 125.164062 507.480469 129.074219 498.773438 125.167969 C 494.578125 123.289062 494.621094 118.960938 494.417969 114.878906 C 494.097656 108.484375 493.101562 103.863281 489.433594 98.953125 C 481.992188 88.992188 466.855469 84.859375 454.410156 85.574219 C 440.542969 86.371094 427.394531 90.523438 414.238281 95.101562 C 390.515625 103.359375 365.332031 114.558594 339.796875 115.039062 C 325.136719 115.3125 309.914062 112.808594 296.292969 108.789062 C 288.566406 106.507812 280.964844 103.085938 273.917969 98.691406 C 268.503906 95.316406 263.328125 90.496094 257.121094 89.1875 C 244.792969 86.589844 232.980469 90.410156 221.363281 95.269531 C 209.300781 100.3125 197.160156 105.984375 184.757812 109.988281 C 170.851562 114.476562 156.023438 117.59375 141.578125 118.0625 C 128.574219 118.484375 115.132812 116.441406 104.292969 108.207031 C 94.332031 100.644531 83.824219 93.203125 72.175781 89.433594 C 60.304688 85.59375 47.316406 84.734375 34.601562 85.089844 C 21.082031 85.464844 7.335938 87.039062 -6.265625 88.292969 C -21.398438 89.6875 -36.578125 91.050781 -51.707031 92.539062 C -55.535156 92.917969 -59.367188 93.3125 -63.199219 93.710938 L -63.199219 95.40625 C -36.75 92.664062 -10.246094 90.183594 16.191406 87.957031 C 29.261719 86.859375 42.566406 86.03125 55.320312 87.589844 C 68.910156 89.253906 82.121094 94.183594 93.386719 102.03125 C 103.039062 108.75 111.480469 115.996094 123.171875 118.324219 C 136.421875 120.964844 151.183594 119.199219 164.546875 116.625 C 177.824219 114.0625 190.914062 109.875 203.53125 104.71875 C 215.8125 99.703125 227.945312 93.070312 240.640625 90.71875 C 248.035156 89.347656 255.238281 89.691406 261.988281 92.808594 C 268.90625 96.003906 275.558594 101.339844 282.769531 104.71875 C 295.960938 110.902344 311.527344 113.921875 325.984375 115.386719 C 349.007812 117.71875 368.753906 112.257812 390.640625 105.011719 C 405.933594 99.949219 421.226562 94.132812 436.765625 90.214844 C 451.726562 86.441406 469.6875 84.761719 482.1875 94.320312 C 487.398438 98.304688 491.410156 102.855469 492.214844 109.941406 C 492.703125 114.25 491.507812 119.070312 493.273438 122.957031 C 496.253906 129.53125 508.449219 127.847656 513.917969 127.058594 C 526.347656 125.269531 538.859375 120.960938 550.527344 115.863281 C 561.511719 111.066406 571.527344 105.03125 580.96875 97.398438 C 588.9375 90.957031 596.933594 84.585938 606.429688 80.496094 C 616 76.375 626.347656 74.960938 636.460938 73.1875 C 637.800781 72.953125 639.144531 72.703125 640.480469 72.433594 L 640.480469 71.535156 C 624.113281 75.304688 607.570312 76.761719 592.898438 86.5625 C 583.308594 92.96875 575.089844 101.136719 565.191406 107.117188 Z M 593.085938 104.769531 C 569.96875 122.347656 541.765625 131.617188 514.15625 138.351562 C 504.742188 140.648438 492.078125 144.269531 482.480469 140.359375 C 474.664062 137.171875 485.582031 123.242188 484.894531 118.027344 C 483.558594 107.953125 465.949219 106.941406 457.847656 107.101562 C 442.929688 107.394531 427.894531 110.03125 413.394531 113.71875 C 395.871094 118.179688 377.007812 128.53125 358.671875 128.761719 C 345.539062 128.925781 332.226562 125.601562 319.53125 122.546875 C 301.113281 118.113281 282.730469 109.699219 264.320312 107.230469 C 252.078125 105.585938 240.957031 107.90625 229.226562 112.246094 C 216.199219 117.066406 202.996094 121.695312 189.640625 125.265625 C 173.050781 129.699219 155.707031 133.09375 138.710938 133.746094 C 124.789062 134.28125 108.964844 133.152344 97.261719 124.753906 C 88.390625 118.390625 80.042969 111.832031 69.695312 108.695312 C 58.179688 105.210938 45.394531 104.609375 33.0625 104.9375 C 19.617188 105.300781 5.972656 106.792969 -7.546875 108.089844 C -22.507812 109.523438 -37.476562 111.027344 -52.421875 112.613281 C -56.011719 112.992188 -59.605469 113.382812 -63.199219 113.769531 L -63.199219 115.894531 C -37.316406 113.058594 -11.394531 110.238281 14.472656 108.058594 C 27.363281 106.96875 40.519531 106.171875 53.132812 107.550781 C 64.964844 108.839844 77.238281 112.207031 87.054688 119.664062 C 96.757812 127.035156 105.5625 132.71875 117.445312 134.597656 C 132.992188 137.054688 149.875 135.125 165.730469 132.355469 C 181.324219 129.628906 197.007812 125.628906 212.074219 120.523438 C 224.058594 116.464844 235.832031 111.21875 248.238281 108.890625 C 256.394531 107.359375 264.851562 108.445312 272.828125 110.230469 C 283.148438 112.542969 293.476562 116.359375 303.757812 119.292969 C 318.136719 123.394531 333.144531 127.550781 347.867188 129.410156 C 365.355469 131.625 378.171875 126.660156 394.570312 121.082031 C 408.300781 116.414062 422.628906 113.101562 436.957031 110.847656 C 449.019531 108.949219 470.894531 104.804688 480.328125 114.679688 C 487.265625 121.945312 474.816406 131.707031 476.917969 138.433594 C 478.933594 144.882812 492.601562 143.597656 498.273438 142.914062 C 511.738281 141.285156 525.441406 137.117188 538.589844 132.886719 C 551.84375 128.621094 565.0625 123.535156 577.148438 116.90625 C 597.71875 105.632812 613.816406 86.3125 636.808594 79.652344 C 638.015625 79.300781 639.242188 78.988281 640.480469 78.695312 L 640.480469 77.960938 C 633.789062 79.402344 627.238281 81.304688 621.015625 84.390625 C 610.464844 89.621094 602.347656 97.730469 593.085938 104.769531 Z M 593.652344 94.910156 C 571.660156 112.554688 548.671875 123.492188 521.59375 130.515625 C 512.550781 132.859375 499.859375 136.621094 490.640625 132.765625 C 483.640625 129.84375 491.449219 115.199219 489.15625 109.171875 C 485 98.253906 467.566406 96.546875 457.949219 96.859375 C 443.121094 97.335938 428.367188 101.101562 414.007812 105.101562 C 393.335938 110.863281 371.179688 121.613281 349.332031 121.851562 C 335.238281 122.007812 320.839844 119.097656 307.296875 115.832031 C 290.652344 111.820312 274.683594 101.882812 258.335938 98.914062 C 246.453125 96.757812 235.347656 99.726562 223.964844 104.339844 C 211.800781 109.273438 199.535156 114.175781 187.023438 117.789062 C 171.835938 122.179688 155.832031 125.304688 140.171875 125.871094 C 126.875 126.351562 112.207031 124.984375 101.113281 116.6875 C 91.84375 109.757812 82.539062 102.898438 71.640625 99.507812 C 59.816406 95.828125 46.828125 94.996094 34.1875 95.308594 C 20.6875 95.640625 6.96875 97.128906 -6.613281 98.359375 C -21.714844 99.726562 -36.84375 101.128906 -51.933594 102.640625 C -55.6875 103.019531 -59.441406 103.402344 -63.199219 103.789062 L -63.199219 105.703125 C -36.886719 102.96875 -10.53125 100.386719 15.761719 98.277344 C 28.804688 97.226562 42.082031 96.480469 54.832031 97.980469 C 67.300781 99.449219 80.417969 103.410156 90.839844 111.171875 C 100.433594 118.316406 108.652344 124.492188 120.3125 126.425781 C 134.703125 128.808594 150.480469 127.09375 165.183594 124.46875 C 179.371094 121.933594 193.660156 118.066406 207.242188 112.941406 C 218.863281 108.5625 230.300781 102.878906 242.332031 100.519531 C 250.039062 99.007812 257.683594 99.992188 265.085938 102.234375 C 274.054688 104.957031 283.09375 109.375 292.128906 112.328125 C 306.5625 117.046875 322.097656 120.640625 337.242188 122.292969 C 357.089844 124.457031 373.25 119.542969 392.148438 113.511719 C 407.425781 108.636719 422.929688 104.304688 438.625 101.195312 C 452.433594 98.457031 472.105469 95.171875 483.730469 105.238281 C 492.960938 113.222656 482.496094 122.898438 485.269531 130.761719 C 487.496094 137.085938 500.367188 135.625 505.90625 134.925781 C 519.050781 133.261719 532.386719 129.109375 545.03125 124.523438 C 557.257812 120.089844 569.328125 114.609375 580.007812 107.4375 C 589.332031 101.171875 597.710938 92.765625 607.523438 86.789062 C 616.648438 81.234375 626.285156 78.300781 636.628906 76.386719 C 637.902344 76.152344 639.191406 75.925781 640.480469 75.707031 L 640.480469 74.953125 C 633.078125 76.199219 625.679688 77.503906 618.625 80.039062 C 609.355469 83.363281 601.296875 88.777344 593.652344 94.910156 Z M 593.652344 94.910156 "/></g></g></svg>